<?xml version="1.0" encoding="UTF-8" standalone="no"?>
<!-- Created with Inkscape (http://www.inkscape.org/) -->

<svg
   width="2.9972503mm"
   height="3mm"
   viewBox="0 0 2.9972503 3"
   version="1.1"
   id="svg39319"
   inkscape:version="1.1.2 (0a00cf5339, 2022-02-04)"
   sodipodi:docname="logoPwa.svg"
   inkscape:export-filename="/var/www/html/vm_work/web-components-toolbox-musigschuel/src/img/logoPwa.png"
   inkscape:export-xdpi="1905"
   inkscape:export-ydpi="1905"
   xmlns:inkscape="http://www.inkscape.org/namespaces/inkscape"
   xmlns:sodipodi="http://sodipodi.sourceforge.net/DTD/sodipodi-0.dtd"
   xmlns="http://www.w3.org/2000/svg"
   xmlns:svg="http://www.w3.org/2000/svg">
  <sodipodi:namedview
     id="namedview39321"
     pagecolor="#ffffff"
     bordercolor="#666666"
     borderopacity="1.0"
     inkscape:pageshadow="2"
     inkscape:pageopacity="0.0"
     inkscape:pagecheckerboard="0"
     inkscape:document-units="mm"
     showgrid="false"
     scale-x="1e-05"
     inkscape:zoom="16"
     inkscape:cx="14.6875"
     inkscape:cy="17.90625"
     inkscape:window-width="1862"
     inkscape:window-height="1016"
     inkscape:window-x="0"
     inkscape:window-y="0"
     inkscape:window-maximized="1"
     inkscape:current-layer="g49431"
     showguides="true"
     inkscape:guide-bbox="true"
     fit-margin-top="0"
     fit-margin-left="0"
     fit-margin-right="0"
     fit-margin-bottom="0" />
  <defs
     id="defs39316">
    <inkscape:path-effect
       effect="taper_stroke"
       id="path-effect3484"
       is_visible="true"
       lpeversion="1"
       stroke_width="0.05"
       attach_start="0"
       end_offset="0.2"
       start_smoothing="3.3"
       end_smoothing="0.6"
       jointype="extrapolated"
       start_shape="center"
       end_shape="center"
       miter_limit="100" />
    <inkscape:path-effect
       effect="simplify"
       id="path-effect3482"
       is_visible="true"
       lpeversion="1"
       steps="1"
       threshold="0.0042"
       smooth_angles="110"
       helper_size="5"
       simplify_individual_paths="false"
       simplify_just_coalesce="false" />
    <inkscape:path-effect
       effect="offset"
       id="path-effect11814"
       is_visible="true"
       lpeversion="1"
       linejoin_type="miter"
       unit="mm"
       offset="0.01"
       miter_limit="4"
       attempt_force_join="false"
       update_on_knot_move="true" />
    <inkscape:path-effect
       effect="offset"
       id="path-effect11812"
       is_visible="true"
       lpeversion="1"
       linejoin_type="miter"
       unit="mm"
       offset="0.01"
       miter_limit="1"
       attempt_force_join="false"
       update_on_knot_move="true" />
    <linearGradient
       id="linearGradient11734"
       inkscape:swatch="solid">
      <stop
         style="stop-color:#ff27d9;stop-opacity:1;"
         offset="0"
         id="stop11732" />
    </linearGradient>
    <linearGradient
       id="linearGradient5784"
       inkscape:swatch="solid">
      <stop
         style="stop-color:#670002;stop-opacity:1;"
         offset="0"
         id="stop5782" />
    </linearGradient>
    <inkscape:path-effect
       effect="offset"
       id="path-effect43985"
       is_visible="true"
       lpeversion="1"
       linejoin_type="miter"
       unit="mm"
       offset="0.2"
       miter_limit="4"
       attempt_force_join="false"
       update_on_knot_move="true" />
    <inkscape:path-effect
       effect="offset"
       id="path-effect43983"
       is_visible="true"
       lpeversion="1"
       linejoin_type="miter"
       unit="mm"
       offset="0.7"
       miter_limit="4"
       attempt_force_join="false"
       update_on_knot_move="true" />
    <linearGradient
       id="linearGradient27357"
       inkscape:swatch="solid">
      <stop
         style="stop-color:#23d953;stop-opacity:1;"
         offset="0"
         id="stop27355" />
    </linearGradient>
    <linearGradient
       id="linearGradient51055"
       inkscape:swatch="solid">
      <stop
         style="stop-color:#68f45c;stop-opacity:1;"
         offset="0"
         id="stop51053" />
    </linearGradient>
    <inkscape:path-effect
       effect="copy_rotate"
       starting_point="1.4210855e-14,-1.4210855e-14"
       origin="71.512865,87.58"
       id="path-effect52748"
       is_visible="true"
       lpeversion="1"
       method="normal"
       num_copies="8"
       starting_angle="129.23313"
       rotation_angle="45"
       gap="0.03"
       copies_to_360="true"
       mirror_copies="false"
       split_items="false" />
    <inkscape:path-effect
       effect="copy_rotate"
       starting_point="0,0"
       origin="71.512865,87.58"
       id="path-effect52748-4"
       is_visible="true"
       lpeversion="1"
       method="normal"
       num_copies="8"
       starting_angle="0"
       rotation_angle="60"
       gap="0.03"
       copies_to_360="true"
       mirror_copies="false"
       split_items="false" />
    <inkscape:path-effect
       effect="copy_rotate"
       starting_point="1.4210855e-14,-1.4210855e-14"
       origin="71.512865,87.58"
       id="path-effect52748-2"
       is_visible="true"
       lpeversion="1"
       method="normal"
       num_copies="8"
       starting_angle="129.23313"
       rotation_angle="45"
       gap="0.03"
       copies_to_360="true"
       mirror_copies="false"
       split_items="false" />
    <inkscape:path-effect
       effect="copy_rotate"
       starting_point="1.4210855e-14,-1.4210855e-14"
       origin="71.512865,87.58"
       id="path-effect52748-5"
       is_visible="true"
       lpeversion="1"
       method="normal"
       num_copies="8"
       starting_angle="129.23313"
       rotation_angle="45"
       gap="0.03"
       copies_to_360="true"
       mirror_copies="false"
       split_items="false" />
    <inkscape:path-effect
       effect="copy_rotate"
       starting_point="8.2651359,10.12211"
       origin="71.512865,87.58"
       id="path-effect52748-2-7"
       is_visible="true"
       lpeversion="1"
       method="normal"
       num_copies="8"
       starting_angle="129.23313"
       rotation_angle="45"
       gap="0.03"
       copies_to_360="true"
       mirror_copies="false"
       split_items="false" />
    <inkscape:path-effect
       effect="copy_rotate"
       starting_point="76.010502,31.30025"
       origin="70.882173,31.30025"
       id="path-effect15961"
       is_visible="true"
       lpeversion="1"
       method="normal"
       num_copies="6"
       starting_angle="0"
       rotation_angle="60"
       gap="-0.01"
       copies_to_360="true"
       mirror_copies="false"
       split_items="false" />
    <inkscape:path-effect
       effect="transform_2pts"
       start="60.625515,31.30025"
       end="81.138831,31.30025"
       id="path-effect15965"
       is_visible="true"
       lpeversion="1"
       first_knot="1"
       last_knot="2"
       helper_size="20"
       stretch="1"
       offset="0"
       elastic="false"
       from_original_width="true"
       flip_vertical="false"
       flip_horizontal="false"
       lock_length="false"
       lock_angle="false" />
    <inkscape:path-effect
       effect="skeletal"
       id="path-effect15969"
       is_visible="true"
       lpeversion="1"
       pattern="m -33.229283,-42.304731 c -0.197833,0.104918 -1.311259,0.69306 -1.630032,0.861005 -0.16467,0.08676 -0.329376,0.172512 -0.366007,0.190579 -0.03664,0.01804 -0.223162,0.11533 -0.414483,0.216204 -0.603971,0.318378 -0.652762,0.343891 -0.657147,0.34369 -0.0052,-2.29e-4 -0.003,-0.06934 0.03448,-1.051456 0.04914,-1.288603 0.05624,-1.457851 0.06119,-1.45879 0.0061,-0.0012 0.07199,0.03961 0.552931,0.342278 0.21953,0.138159 0.40239,0.252207 0.406354,0.25344 0.01089,0.0034 0.013,-0.03086 0.03374,-0.548653 0.01037,-0.25891 0.01944,-0.481043 0.02016,-0.493632 l 0.0013,-0.02288 0.05654,0.03438 c 0.03109,0.01891 0.467297,0.292453 0.969339,0.607868 0.502041,0.315416 0.944247,0.592979 0.982678,0.616808 0.03843,0.02383 0.06929,0.04402 0.06858,0.04486 -7.06e-4,8.46e-4 -0.05454,0.02979 -0.119621,0.06431 z m -0.164524,-0.07625 c -0.0022,-0.0015 -0.0087,0.0021 -0.01454,0.0079 -0.0099,0.0099 -0.0098,0.01029 0.0015,0.0063 0.01382,-0.0049 0.01878,-0.01027 0.01306,-0.01417 z m -0.793809,0.42377 c -9.22e-4,-6.27e-4 -0.0068,4.78e-4 -0.01309,0.0025 -0.01035,0.0033 -0.01031,0.0035 5.24e-4,0.0028 0.01138,-7.57e-4 0.01622,-0.0028 0.01256,-0.0053 z m -0.230819,0.03388 c -0.0384,-0.02388 -0.187727,-0.117877 -0.331843,-0.208881 -0.248518,-0.15694 -0.347048,-0.217656 -0.348871,-0.21498 -6.73e-4,9.87e-4 -0.0222,0.557472 -0.03117,0.805713 -0.0021,0.05734 -8.2e-4,0.06858 0.0075,0.067 0.0155,-0.003 0.108495,-0.05055 0.411533,-0.2106 0.154123,-0.08139 0.297456,-0.156777 0.318512,-0.167527 0.02106,-0.01074 0.03963,-0.02127 0.04124,-0.02342 0.0017,-0.0023 -0.02605,-0.02192 -0.06686,-0.0473 z m -0.839806,0.07093 c 0.0077,-0.200845 0.01566,-0.412493 0.01758,-0.470328 l 0.0035,-0.105153 -0.05671,-0.04061 c -0.08272,-0.05924 -0.771695,-0.493265 -0.780395,-0.491616 -0.002,3.84e-4 -0.0046,0.03187 -0.0056,0.06995 -0.0011,0.03809 -0.01149,0.317917 -0.02316,0.621841 -0.01939,0.505301 -0.03713,0.982119 -0.04605,1.237916 -0.0019,0.05513 -0.0025,0.100919 -0.0013,0.101743 0.0012,8.25e-4 0.01617,-0.0059 0.03321,-0.01482 0.01703,-0.009 0.154759,-0.08157 0.30607,-0.161288 0.15131,-0.07972 0.315956,-0.166981 0.365874,-0.193918 0.04992,-0.02694 0.108383,-0.05835 0.129895,-0.06985 l 0.03913,-0.02088 0.0019,-0.0489 c 0.0011,-0.0269 0.0083,-0.213229 0.01601,-0.414075 z m -0.318177,-3.222937 c -0.0081,0.223787 -0.05542,1.482114 -0.06936,1.842151 -0.0072,0.185988 -0.01529,0.371505 -0.01796,0.412262 -0.0027,0.04076 -0.0117,0.250929 -0.02,0.467054 -0.02626,0.682243 -0.02856,0.737255 -0.03093,0.740951 -0.0028,0.0044 -0.06154,-0.03209 -0.89335,-0.555587 -1.091393,-0.686857 -1.234416,-0.777629 -1.232753,-0.782387 0.0021,-0.0059 0.0703,-0.04254 0.572886,-0.307714 0.229421,-0.121026 0.419612,-0.222379 0.422657,-0.225202 0.0084,-0.0078 -0.02023,-0.02669 -0.458277,-0.303547 -0.219036,-0.138436 -0.406873,-0.257361 -0.417415,-0.264278 l -0.01917,-0.01257 0.05804,-0.03178 c 0.03192,-0.01747 0.486921,-0.258462 1.011098,-0.535537 0.524183,-0.277066 0.98566,-0.521251 1.025511,-0.542622 0.03986,-0.02135 0.07277,-0.038 0.07314,-0.03696 3.77e-4,10e-4 -0.0015,0.06213 -0.0041,0.135752 z m -0.148295,0.104358 c -0.0024,0.0011 -0.0025,0.0086 -4.35e-4,0.01654 0.0036,0.01354 0.004,0.01365 0.0062,0.0019 0.0027,-0.01442 4.95e-4,-0.0214 -0.0057,-0.0184 z m -0.02991,0.899343 c -10e-4,4.89e-4 -0.003,0.0061 -0.0044,0.01258 -0.0023,0.0106 -0.0021,0.01069 0.0027,9.54e-4 0.005,-0.01023 0.0057,-0.01546 0.0017,-0.01353 z m -0.08607,0.216836 c -0.03988,0.02132 -0.195941,0.103651 -0.346817,0.182946 -0.26018,0.136739 -0.362013,0.191737 -0.360613,0.194642 5.19e-4,0.0011 0.471685,0.297961 0.682183,0.42985 0.04862,0.03046 0.05899,0.035 0.06176,0.02704 0.0052,-0.0149 0.01047,-0.119235 0.02338,-0.461699 0.0066,-0.17417 0.01296,-0.335992 0.01417,-0.359602 0.0012,-0.02361 0.0014,-0.04496 3.37e-4,-0.04743 -0.0011,-0.0026 -0.03201,0.0116 -0.07439,0.03426 z m -0.358476,0.762758 c -0.170065,-0.107128 -0.349401,-0.219804 -0.398524,-0.25039 l -0.08931,-0.05561 -0.06352,0.0288 c -0.09266,0.04202 -0.813028,0.421675 -0.815951,0.430031 -6.86e-4,0.0019 0.02531,0.01989 0.05776,0.03986 0.03245,0.01998 0.269577,0.168913 0.526953,0.330976 0.427908,0.269441 0.831976,0.523211 1.04904,0.658839 0.04678,0.02923 0.08615,0.05262 0.08748,0.05196 0.0013,-6.48e-4 0.003,-0.01694 0.0038,-0.03617 7.39e-4,-0.01924 0.0067,-0.174809 0.01336,-0.34571 0.0066,-0.170899 0.01337,-0.357116 0.015,-0.413815 0.0016,-0.0567 0.0037,-0.123036 0.0045,-0.147418 l 0.0015,-0.04433 -0.04138,-0.02613 c -0.02276,-0.01437 -0.180526,-0.113777 -0.350593,-0.220905 z m -2.950234,-1.335918 c 0.189778,0.118868 1.255838,0.789052 1.560668,0.981145 0.15747,0.09923 0.314089,0.198993 0.34805,0.221683 0.03395,0.02271 0.211461,0.135599 0.39448,0.25085 0.577709,0.363866 0.6242,0.393364 0.626218,0.397261 0.0024,0.0047 -0.05856,0.03725 -0.927827,0.49587 -1.140533,0.601744 -1.290655,0.680221 -1.293942,0.676405 -0.0041,-0.0047 -0.0017,-0.08215 0.01995,-0.649991 0.0099,-0.259199 0.01722,-0.474584 0.01631,-0.478633 -0.0025,-0.01114 -0.03322,0.0042 -0.492018,0.245107 -0.229408,0.120472 -0.426322,0.223673 -0.437579,0.229353 l -0.02047,0.01032 0.0015,-0.06616 c 8.34e-4,-0.03638 0.01962,-0.550917 0.04176,-1.143405 0.02214,-0.592489 0.04141,-1.114232 0.04283,-1.159429 0.0014,-0.0452 0.0035,-0.08202 0.0046,-0.08182 0.0011,1.83e-4 0.05307,0.03233 0.115508,0.07144 z m 0.01623,0.180605 c -2.18e-4,0.0026 0.0062,0.0065 0.0141,0.0086 0.01352,0.0036 0.01383,0.0034 0.0047,-0.0044 -0.01116,-0.0095 -0.01828,-0.01113 -0.01881,-0.0042 z m 0.763899,0.475574 c -8.9e-5,0.0011 0.0038,0.0057 0.0087,0.0101 0.008,0.0073 0.0082,0.0072 0.0022,-0.0019 -0.0063,-0.0095 -0.01055,-0.01265 -0.01088,-0.0082 z m 0.144753,0.182953 c -0.0015,0.04519 -0.0082,0.221515 -0.01497,0.391826 -0.01165,0.293692 -0.01497,0.40938 -0.01174,0.409621 0.0012,8.7e-5 0.493892,-0.259497 0.713352,-0.375862 0.05069,-0.02687 0.05981,-0.03358 0.05429,-0.03997 -0.01031,-0.01194 -0.09803,-0.06868 -0.388152,-0.251098 -0.147549,-0.09278 -0.2845,-0.179215 -0.304338,-0.192075 -0.01984,-0.01287 -0.03824,-0.02368 -0.04091,-0.02401 -0.0028,-3.87e-4 -0.006,0.03352 -0.0075,0.08156 z m 0.48133,0.691829 c -0.177808,0.09372 -0.365054,0.192695 -0.416102,0.219946 l -0.09283,0.04953 -0.0068,0.06941 c -0.0099,0.101253 -0.04133,0.914941 -0.03555,0.92165 0.0013,0.0016 0.02989,-0.01197 0.06341,-0.03008 0.03352,-0.01811 0.281078,-0.148992 0.550103,-0.290879 0.447302,-0.23585 0.869106,-0.458901 1.095092,-0.579075 0.04871,-0.0259 0.08865,-0.04829 0.08875,-0.04977 9.8e-5,-0.0015 -0.01316,-0.01108 -0.02944,-0.02135 -0.01629,-0.01026 -0.148019,-0.09324 -0.292716,-0.184421 -0.144695,-0.09118 -0.302587,-0.190135 -0.350874,-0.219898 -0.04829,-0.02976 -0.104723,-0.06469 -0.125442,-0.07756 l -0.03765,-0.02344 -0.04332,0.02277 c -0.02382,0.01253 -0.188804,0.09944 -0.366613,0.193156 z m -2.632056,1.887018 c 0.197832,-0.104918 1.311258,-0.693061 1.630031,-0.861006 0.16467,-0.08676 0.329377,-0.172512 0.366007,-0.190578 0.03664,-0.01804 0.223162,-0.115331 0.414483,-0.216204 0.603971,-0.318378 0.652762,-0.343892 0.657147,-0.343691 0.0052,2.3e-4 0.003,0.06934 -0.03448,1.051457 -0.04914,1.288602 -0.05624,1.457851 -0.06119,1.458789 -0.0061,0.0012 -0.072,-0.03961 -0.552931,-0.342277 -0.219531,-0.138159 -0.402391,-0.252208 -0.406354,-0.25344 -0.01089,-0.0034 -0.013,0.03086 -0.03374,0.548653 -0.01037,0.258909 -0.01944,0.481043 -0.02016,0.493631 l -0.0013,0.02289 -0.05654,-0.03438 c -0.03109,-0.01891 -0.467297,-0.292452 -0.969338,-0.607867 -0.502042,-0.315416 -0.944248,-0.59298 -0.982679,-0.616809 -0.03843,-0.02383 -0.06929,-0.04402 -0.06858,-0.04486 7.07e-4,-8.46e-4 0.05454,-0.02979 0.119621,-0.06431 z m 0.164523,0.07625 c 0.0022,0.0015 0.0087,-0.0021 0.01454,-0.0079 0.0099,-0.0099 0.0098,-0.01029 -0.0015,-0.0063 -0.01382,0.0049 -0.01878,0.01027 -0.01306,0.01417 z m 0.793809,-0.42377 c 9.22e-4,6.27e-4 0.0068,-4.78e-4 0.01309,-0.0025 0.01035,-0.0033 0.01031,-0.0035 -5.24e-4,-0.0028 -0.01138,7.58e-4 -0.01622,0.0028 -0.01256,0.0053 z m 0.230819,-0.03388 c 0.0384,0.02388 0.187727,0.117877 0.331844,0.208881 0.248517,0.15694 0.347047,0.217656 0.34887,0.214979 6.73e-4,-9.86e-4 0.0222,-0.557472 0.03117,-0.805712 0.0021,-0.05734 8.2e-4,-0.06858 -0.0075,-0.067 -0.0155,0.003 -0.108495,0.05055 -0.411533,0.210601 -0.154123,0.08139 -0.297456,0.156777 -0.318512,0.167527 -0.02106,0.01074 -0.03963,0.02127 -0.04124,0.02342 -0.0017,0.0023 0.02605,0.02192 0.06686,0.0473 z m 0.839806,-0.07093 c -0.0077,0.200845 -0.01566,0.412493 -0.01758,0.470327 l -0.0035,0.105154 0.05671,0.04061 c 0.08272,0.05924 0.771695,0.493265 0.780395,0.491615 0.002,-3.83e-4 0.0046,-0.03186 0.0056,-0.06995 0.0011,-0.03809 0.01149,-0.317917 0.02316,-0.621842 0.01939,-0.5053 0.03713,-0.982118 0.04605,-1.237915 0.0019,-0.05513 0.0025,-0.100919 0.0013,-0.101743 -0.0012,-8.25e-4 -0.01617,0.0059 -0.03321,0.01482 -0.01703,0.009 -0.15476,0.08157 -0.306071,0.161288 -0.15131,0.07972 -0.315956,0.166981 -0.365874,0.193918 -0.04992,0.02694 -0.108383,0.05835 -0.129895,0.06985 l -0.03913,0.02089 -0.0019,0.0489 c -0.0011,0.02689 -0.0083,0.213228 -0.01601,0.414075 z m 0.318177,3.222936 c 0.0081,-0.223786 0.05542,-1.482113 0.06936,-1.842151 0.0072,-0.185987 0.01529,-0.371505 0.01796,-0.412261 0.0027,-0.04075 0.0117,-0.250929 0.02,-0.467054 0.02626,-0.682244 0.02856,-0.737255 0.03093,-0.740951 0.0028,-0.0044 0.06154,0.03209 0.893349,0.555586 1.091393,0.686858 1.234416,0.77763 1.232753,0.782388 -0.0021,0.0059 -0.0703,0.04254 -0.572886,0.307714 -0.229421,0.121026 -0.419612,0.222378 -0.422657,0.225202 -0.0084,0.0078 0.02023,0.02669 0.458277,0.303546 0.219036,0.138437 0.406873,0.257362 0.417415,0.264279 l 0.01917,0.01257 -0.05804,0.03178 c -0.03192,0.01747 -0.486922,0.258463 -1.011099,0.535538 -0.524183,0.277066 -0.98566,0.521251 -1.02551,0.542622 -0.03986,0.02135 -0.07277,0.038 -0.07314,0.03696 -3.77e-4,-10e-4 0.0015,-0.06213 0.0041,-0.135752 z m 0.148295,-0.104357 c 0.0024,-0.0011 0.0025,-0.0086 4.35e-4,-0.01654 -0.0036,-0.01354 -0.004,-0.01365 -0.0062,-0.0019 -0.0027,0.01442 -4.94e-4,0.0214 0.0057,0.0184 z m 0.02991,-0.899343 c 10e-4,-4.9e-4 0.003,-0.0061 0.0044,-0.01258 0.0023,-0.0106 0.0021,-0.01069 -0.0027,-9.54e-4 -0.005,0.01023 -0.0057,0.01546 -0.0017,0.01353 z m 0.08607,-0.216837 c 0.03988,-0.02132 0.195941,-0.10365 0.346817,-0.182946 0.26018,-0.136738 0.362013,-0.191736 0.360613,-0.194641 -5.19e-4,-0.0011 -0.471685,-0.297961 -0.682182,-0.42985 -0.04862,-0.03046 -0.05899,-0.035 -0.06176,-0.02704 -0.0052,0.0149 -0.01047,0.119235 -0.02338,0.461698 -0.0066,0.174171 -0.01296,0.335993 -0.01417,0.359603 -0.0012,0.02361 -0.0014,0.04495 -3.37e-4,0.04743 0.0011,0.0026 0.03201,-0.0116 0.0744,-0.03426 z m 0.358476,-0.762757 c 0.170066,0.107127 0.349402,0.219804 0.398525,0.25039 l 0.08931,0.05561 0.06352,-0.0288 c 0.09266,-0.04202 0.813028,-0.421676 0.815951,-0.430032 6.86e-4,-0.0019 -0.02531,-0.01989 -0.05776,-0.03987 -0.03245,-0.01997 -0.269577,-0.168912 -0.526952,-0.330975 -0.427909,-0.269441 -0.831977,-0.523211 -1.049041,-0.658839 -0.04678,-0.02923 -0.08615,-0.05262 -0.08748,-0.05196 -0.0013,6.47e-4 -0.003,0.01693 -0.0038,0.03617 -7.39e-4,0.01924 -0.0067,0.174809 -0.01336,0.345709 -0.0066,0.170899 -0.01337,0.357116 -0.015,0.413815 -0.0016,0.0567 -0.0037,0.123037 -0.0045,0.147419 l -0.0015,0.04433 0.04138,0.02613 c 0.02276,0.01437 0.180526,0.113778 0.350593,0.220906 z m 2.950234,1.335918 c -0.189778,-0.118869 -1.255837,-0.789053 -1.560668,-0.981146 -0.15747,-0.09923 -0.314089,-0.198992 -0.34805,-0.221682 -0.03395,-0.02271 -0.21146,-0.135599 -0.394479,-0.250851 -0.577709,-0.363865 -0.624201,-0.393363 -0.626219,-0.39726 -0.0024,-0.0047 0.05856,-0.03725 0.927827,-0.49587 1.140533,-0.601744 1.290655,-0.680221 1.293942,-0.676405 0.0041,0.0047 0.0017,0.08215 -0.01995,0.649991 -0.0099,0.259198 -0.01722,0.474584 -0.01631,0.478633 0.0025,0.01114 0.03323,-0.0042 0.492017,-0.245107 0.229408,-0.120473 0.426323,-0.223673 0.437579,-0.229353 l 0.02047,-0.01032 -0.0015,0.06616 c -8.35e-4,0.03638 -0.01962,0.550918 -0.04176,1.143406 -0.02214,0.592489 -0.04141,1.114232 -0.04283,1.159429 -0.0014,0.0452 -0.0035,0.08202 -0.0046,0.08183 -0.0011,-1.84e-4 -0.05307,-0.03234 -0.115508,-0.07144 z m -0.01623,-0.180606 c 2.18e-4,-0.0026 -0.0062,-0.0065 -0.0141,-0.0086 -0.01352,-0.0036 -0.01383,-0.0034 -0.0047,0.0044 0.01115,0.0095 0.01828,0.01113 0.01881,0.0042 z m -0.763899,-0.475573 c 8.9e-5,-0.0011 -0.0038,-0.0057 -0.0087,-0.0101 -0.008,-0.0073 -0.0082,-0.0072 -0.0022,0.0019 0.0063,0.0095 0.01055,0.01264 0.01088,0.0082 z m -0.144753,-0.182954 c 0.0015,-0.04519 0.0082,-0.221514 0.01497,-0.391825 0.01166,-0.293692 0.01497,-0.40938 0.01174,-0.409621 -0.0012,-8.8e-5 -0.493892,0.259497 -0.713352,0.375862 -0.05069,0.02687 -0.05981,0.03358 -0.05429,0.03997 0.01031,0.01194 0.09803,0.06868 0.388152,0.251098 0.147549,0.09278 0.2845,0.179216 0.304338,0.192076 0.01984,0.01287 0.03824,0.02368 0.04091,0.02401 0.0028,3.87e-4 0.006,-0.03352 0.0075,-0.08156 z m -0.48133,-0.691828 c 0.177808,-0.09372 0.365054,-0.192695 0.416102,-0.219946 l 0.09283,-0.04953 0.0068,-0.06941 c 0.0099,-0.101252 0.04133,-0.91494 0.03555,-0.921649 -0.0013,-0.0016 -0.02989,0.01197 -0.06341,0.03008 -0.03352,0.01811 -0.281077,0.148992 -0.550102,0.290879 -0.447303,0.23585 -0.869106,0.458901 -1.095092,0.579075 -0.04871,0.0259 -0.08865,0.04829 -0.08875,0.04977 -9.8e-5,0.0015 0.01316,0.01108 0.02944,0.02135 0.0163,0.01026 0.148019,0.09324 0.292716,0.18442 0.144695,0.09118 0.302587,0.190136 0.350874,0.219898 0.04829,0.02976 0.104723,0.06469 0.125442,0.07756 l 0.03765,0.02345 0.04332,-0.02277 c 0.02382,-0.01253 0.188804,-0.09944 0.366613,-0.193155 z"
       copytype="repeated"
       prop_scale="0.19"
       scale_y_rel="false"
       spacing="0"
       normal_offset="0"
       tang_offset="0"
       prop_units="false"
       vertical_pattern="false"
       hide_knot="false"
       fuse_tolerance="0" />
    <inkscape:path-effect
       effect="copy_rotate"
       starting_point="76.010502,31.30025"
       origin="70.882173,31.30025"
       id="path-effect6714-4-8-3-4"
       is_visible="true"
       lpeversion="1"
       method="normal"
       num_copies="6"
       starting_angle="0"
       rotation_angle="60"
       gap="-0.01"
       copies_to_360="true"
       mirror_copies="false"
       split_items="false" />
  </defs>
  <g
     inkscape:groupmode="layer"
     id="layer2"
     inkscape:label="background"
     style="display:none"
     sodipodi:insensitive="true">
    <rect
       style="fill:#000000;stroke:none;stroke-width:1.01989;stroke-linecap:round;stroke-linejoin:round"
       id="rect49109"
       width="4.9998651"
       height="4.3498673"
       x="-1.0705081"
       y="-0.63529074" />
  </g>
  <g
     inkscape:groupmode="layer"
     id="g3050"
     inkscape:label="logo and border"
     style="display:none"
     transform="translate(-4.848896,-3.2904967)"
     sodipodi:insensitive="true">
    <path
       id="path1582"
       style="font-size:1.76389px;line-height:125%;font-family:Ramaraja;-inkscape-font-specification:Ramaraja;letter-spacing:0.396875px;word-spacing:0px;display:inline;fill:#9d835d;fill-opacity:1;stroke:none;stroke-width:0.378736px;stroke-miterlimit:4;stroke-dasharray:none;stroke-opacity:1"
       d="m 6.5109861,3.2904967 c -0.055678,0 -0.1118886,0.051064 -0.1675645,0.1535058 -0.047213,0.085448 -0.074381,0.1890226 -0.081558,0.3107018 h 0.1008359 c 0.00876,-0.027938 0.019472,-0.054986 0.03188,-0.08118 0.042179,-0.089006 0.093481,-0.133579 0.1542182,-0.133579 0.053988,0 0.080816,0.045641 0.080816,0.1380076 0,0.024448 -0.00265,0.050209 -0.00816,0.076754 h 0.080816 C 6.7013307,3.6878806 6.6942174,3.6252871 6.6800378,3.5672517 6.6665365,3.5034345 6.6498663,3.4523712 6.6296202,3.4137458 6.6093763,3.3751198 6.5885309,3.3448028 6.5665984,3.3229708 6.5463545,3.3011378 6.5278628,3.2904978 6.510991,3.2904978 Z m 0.1912898,0.4642076 c 6.59e-5,0.00473 7.593e-4,0.00925 7.593e-4,0.014024 0,0.019723 -4.556e-4,0.039086 -0.00147,0.058303 H 7.7734579 V 5.9665149 H 6.72528 c 1.585e-4,0.00651 7.591e-4,0.012882 7.591e-4,0.019189 0,0.018359 -0.00178,0.036131 -0.00444,0.053137 h 1.0882161 c 0.020172,2.568e-4 0.036587,-0.016085 0.036328,-0.036162 V 3.7908677 c 2.584e-4,-0.020075 -0.016155,-0.036419 -0.036328,-0.036162 z m 0.019275,2.2841352 h -0.068213 c -0.00456,0.019944 -0.010473,0.038574 -0.018537,0.05535 -0.01687,0.040305 -0.039529,0.069348 -0.068212,0.087823 -0.028684,0.018471 -0.056787,0.030917 -0.083782,0.037638 -0.02531,0.0084 -0.050319,0.013281 -0.075626,0.013281 -0.067487,0 -0.1164352,-0.023824 -0.146804,-0.070848 0.1048913,0 0.1632457,-0.041118 0.1749786,-0.1232464 H 6.090593 c 8.732e-4,0.069255 0.031861,0.1283578 0.09342,0.1763836 0.062426,0.050381 0.1358476,0.075276 0.2202063,0.075276 0.089421,0 0.1651944,-0.028511 0.22762,-0.08561 0.049546,-0.045321 0.079492,-0.100632 0.089712,-0.1660518 z m -0.63096,0 c -1.2e-5,-9.785e-4 0,-0.00196 0,-0.00294 0,-0.023658 0.00368,-0.046826 0.011119,-0.069372 H 4.9185939 V 3.8270287 h 1.3417872 c -8.9e-6,-0.00174 0,-0.00344 0,-0.00517 0,-0.02297 1.97e-4,-0.04535 0.00147,-0.067159 H 4.885228 C 4.865058,3.7544418 4.84864,3.7707847 4.848899,3.7908607 v 2.2118087 c -2.584e-4,0.020075 0.016159,0.036419 0.036329,0.036162 z M 6.2603808,3.8270287 c 5.693e-4,0.1128238 0.019611,0.2370627 0.057832,0.3726941 -0.059049,0.058777 -0.1056461,0.1056919 -0.1393902,0.1409597 -0.032054,0.033589 -0.071926,0.079967 -0.1208543,0.1387445 -0.047241,0.057099 -0.083683,0.1086966 -0.1089902,0.1557201 -0.023619,0.045343 -0.045741,0.098952 -0.065987,0.1594095 -0.018559,0.060456 -0.028174,0.1198204 -0.028174,0.1785979 0,0.1679381 0.058564,0.3122955 0.1749782,0.4332108 0.1181025,0.1209158 0.2589614,0.1815501 0.4226175,0.1815501 0.055676,0 0.1022709,-0.00543 0.1393901,-0.0155 0.047241,0.2183192 0.070436,0.3455451 0.070436,0.3808122 0,0.00462 1.291e-4,0.00879 0,0.013281 h 0.063021 C 6.7225646,5.8569214 6.6974124,5.7189396 6.6496353,5.5524867 6.8318501,5.4819527 6.9232243,5.3477014 6.9232243,5.1495345 6.9232243,5.0302983 6.8880606,4.929241 6.8171996,4.846951 6.7463384,4.762983 6.6591325,4.7214897 6.556215,4.7214897 c -0.021934,0 -0.046408,0.00234 -0.073403,0.00739 L 6.416823,4.4314565 C 6.5933934,4.2696998 6.6884932,4.0680114 6.7015337,3.8270281 h -0.100836 c -0.013961,0.038374 -0.033064,0.078828 -0.057091,0.1210328 -0.055675,0.099084 -0.1153146,0.168017 -0.1794269,0.2066422 -0.021935,-0.05206 -0.033364,-0.1139679 -0.033364,-0.1845019 0,-0.049961 0.00525,-0.097433 0.014089,-0.1431735 z m 0.084522,0 h 0.2557954 c 0.00904,-0.024867 0.015936,-0.049068 0.020762,-0.072325 H 6.3626996 c -0.0074,0.023544 -0.012999,0.04754 -0.017792,0.072325 z M 6.6622372,5.9665143 H 6.4331343 c 0.00269,0.012782 0.00444,0.025482 0.00444,0.039115 0,0.011639 -7.591e-4,0.022869 -0.00224,0.033209 h 0.2179818 c 0.00507,-0.02215 0.00816,-0.04627 0.0089,-0.072325 z m -0.2291033,0 c -0.00661,-0.031317 -0.020981,-0.060111 -0.043745,-0.086346 -0.030369,-0.035265 -0.070979,-0.053137 -0.121596,-0.053137 -0.048927,0 -0.091354,0.022018 -0.1267856,0.065682 -0.017899,0.024052 -0.030893,0.048332 -0.039296,0.0738 z m -0.059315,-1.4922527 0.045969,0.2693733 c -0.060737,0.021833 -0.1169491,0.066404 -0.1675637,0.1335803 -0.048928,0.065495 -0.073403,0.1380434 -0.073403,0.2169745 0,0.07893 0.024474,0.1442488 0.073403,0.1963101 0.050615,0.05206 0.1037317,0.085255 0.159408,0.10037 l 0.020762,-0.012539 -0.015572,-0.00739 c -0.010126,-0.00672 -0.022629,-0.016825 -0.037813,-0.030262 -0.015185,-0.013439 -0.030042,-0.028225 -0.045227,-0.045017 -0.013502,-0.016792 -0.025464,-0.037008 -0.03559,-0.060517 -0.010124,-0.025192 -0.015572,-0.050825 -0.015572,-0.076015 0,-0.048702 0.018491,-0.095617 0.055607,-0.1409597 0.038806,-0.045344 0.081232,-0.07258 0.1267855,-0.082657 l 0.116405,0.5793417 c -0.070861,0.018473 -0.1203464,0.027308 -0.1490281,0.027308 -0.1181023,0 -0.2237973,-0.040958 -0.3165922,-0.123248 -0.092793,-0.082289 -0.1393883,-0.1844177 -0.1393883,-0.3070126 0,-0.2048843 0.132522,-0.41764 0.3974087,-0.6376392 z m 0.146804,0.4560895 c 0.086044,0 0.1565783,0.027236 0.2105675,0.082657 0.053989,0.055419 0.080816,0.1297746 0.080816,0.2221404 0,0.1276336 -0.059101,0.215505 -0.1772026,0.2642071 z"
       sodipodi:nodetypes="sccccsscccscsscsccccscccccccccccsccccsssccsccccsccccccccccccscscscccscsccccccsccccccccccsccccccsccccccsccccsccscccssssccsscc" />
  </g>
  <g
     inkscape:groupmode="layer"
     id="layer1"
     inkscape:label="times text 1"
     transform="translate(-2.4991707,3.9938131)"
     sodipodi:insensitive="true"
     style="display:none">
    <g
       aria-label="decentral"
       id="g3048-5-2"
       style="font-size:3.52778px;letter-spacing:0px;word-spacing:0px;display:inline;fill:#fff8e0;fill-opacity:1;stroke:none;stroke-width:0.01;stroke-miterlimit:4;stroke-dasharray:none;stroke-opacity:1"
       transform="matrix(0.88372684,0,0,0.88372684,-0.06026851,-4.4444242)">
      <text
         xml:space="preserve"
         style="font-size:0.612053px;line-height:125%;font-family:sans-serif;letter-spacing:0.17214px;word-spacing:0px;fill:none;stroke:#000000;stroke-width:0.11476px;stroke-linecap:butt;stroke-linejoin:miter;stroke-opacity:1"
         x="3.3898861"
         y="2.0265713"
         id="text8176-62-7"><tspan
           sodipodi:role="line"
           id="tspan8174-9-0"
           style="font-style:normal;font-variant:normal;font-weight:normal;font-stretch:normal;font-family:Ramaraja;-inkscape-font-specification:Ramaraja;fill:#9d835d;fill-opacity:1;stroke:none;stroke-width:0.11476px"
           x="3.3898861"
           y="2.0265713"
           dy="0"
           rotate="0 0 0 0 0 0">MUSIG</tspan></text>
    </g>
    <g
       aria-label="decentral"
       id="g3048-5-2-6"
       style="font-size:3.52778px;letter-spacing:0px;word-spacing:0px;display:inline;fill:#fff8e0;fill-opacity:1;stroke:none;stroke-width:0.01;stroke-miterlimit:4;stroke-dasharray:none;stroke-opacity:1"
       transform="matrix(0.88372684,0,0,0.88372684,-1.7472715,-2.7119681)">
      <text
         xml:space="preserve"
         style="font-size:0.612053px;line-height:125%;font-family:sans-serif;letter-spacing:0.17214px;word-spacing:0px;fill:none;stroke:#000000;stroke-width:0.11476px;stroke-linecap:butt;stroke-linejoin:miter;stroke-opacity:1"
         x="5.0438547"
         y="1.3322338"
         id="text8176-62-7-1"><tspan
           sodipodi:role="line"
           id="tspan8174-9-0-8"
           style="font-style:normal;font-variant:normal;font-weight:normal;font-stretch:normal;font-family:Ramaraja;-inkscape-font-specification:Ramaraja;fill:#9d835d;fill-opacity:1;stroke:none;stroke-width:0.11476px"
           x="5.0438547"
           y="1.3322338"
           rotate="0 0 0 0 0 0 0">SCHUEL</tspan></text>
    </g>
  </g>
  <g
     inkscape:groupmode="layer"
     id="g49435"
     inkscape:label="logo and border copy 2"
     style="display:inline"
     transform="translate(-4.848896,-3.2904967)"
     sodipodi:insensitive="true" />
  <g
     inkscape:groupmode="layer"
     id="g49431"
     inkscape:label="times text 1 copy 2"
     transform="translate(-2.4991707,3.9938131)"
     style="display:inline"
     sodipodi:insensitive="true">
    <g
       aria-label="decentral"
       id="g49423"
       style="font-size:3.52778px;letter-spacing:0px;word-spacing:0px;display:inline;fill:#fff8e0;fill-opacity:1;stroke:none;stroke-width:0.01;stroke-miterlimit:4;stroke-dasharray:none;stroke-opacity:1"
       transform="matrix(0.88372684,0,0,0.88372684,-0.06026851,-4.8909097)">
      <g
         aria-label="MUSIG"
         id="text49421"
         style="font-size:0.612053px;line-height:125%;letter-spacing:0.17214px;fill:none;stroke:#000000;stroke-width:0.11476px">
        <path
           d="m 3.422529,1.6699484 q 0.01877,8.161e-4 0.029378,0.00245 0.010609,8.161e-4 0.029379,8.161e-4 0.013873,0 0.02693,-8.161e-4 0.013057,-0.00163 0.029379,-0.00245 l 0.1020089,0.2284998 0.00163,8.161e-4 q 0.00245,0 0.00245,-0.00326 l 0.02285,-0.057125 q 0.00979,-0.024482 0.020402,-0.053045 0.011425,-0.028562 0.020402,-0.053045 0.00326,-0.00898 0.00653,-0.019586 0.00326,-0.010609 0.00571,-0.019586 0.00326,-0.010609 0.00571,-0.021218 0.00163,0 0.00653,0 0.00571,0 0.012241,8.161e-4 0.00734,0 0.013873,0 0.00653,0 0.010609,0 0.013873,0 0.037539,-8.161e-4 0.023666,-0.00163 0.039987,-0.00245 0.00163,0.00163 0.00245,0.00979 0.00163,0.00734 0,0.010609 -0.00408,0 -0.014689,0.00163 -0.00979,0.00163 -0.013873,0.00408 -0.00408,0.00326 -0.00653,0.00734 -0.00163,0.00408 -8.161e-4,0.014689 8.161e-4,0.014689 0.00163,0.042436 8.16e-4,0.02693 0.00163,0.059573 0.00163,0.032643 0.00245,0.066102 8.161e-4,0.032643 0.00245,0.058757 8.161e-4,0.015505 0.00163,0.029379 0.00163,0.013873 0.00571,0.024482 8.16e-4,0.00326 0.00571,0.0049 0.0049,0.00163 0.010609,0.00326 0.00571,8.16e-4 0.010609,0.00163 0.0049,0 0.00653,0 0.00163,0.00408 0.00163,0.010609 8.161e-4,0.00571 -8.161e-4,0.00979 -0.016321,-0.00163 -0.035907,-0.00326 -0.01877,-0.00163 -0.036723,-0.00163 -0.01877,0 -0.042436,0.00163 -0.023666,0.00163 -0.042436,0.00326 -0.00163,-0.00163 -0.00245,-0.00898 0,-0.00734 0.00163,-0.011425 0.00245,0 0.00734,0 0.00571,-8.161e-4 0.011425,-0.00163 0.00653,-0.00163 0.011425,-0.00326 0.00571,-0.00245 0.00734,-0.0049 0.00163,-0.00408 0.00245,-0.00898 0.00163,-0.00571 0.00163,-0.00979 v -0.033459 l -0.0049,-0.1656624 q 0,-0.00326 -8.161e-4,-0.00898 0,-0.00653 -8.16e-4,-0.012241 0,-0.00571 -8.161e-4,-0.00979 -8.161e-4,-0.0049 -0.00245,-0.0049 -0.00163,0 -0.00245,0.00326 l -0.094664,0.2570622 q -8.161e-4,0.00163 -0.00326,0.00571 -0.00245,0.00326 -0.00571,0.00734 -0.00326,0.00326 -0.00734,0.00653 -0.00326,0.00245 -0.00653,0.00245 -0.00326,0 -0.0049,-8.16e-4 L 3.4902628,1.7450269 q -0.00163,0.04162 -0.00245,0.067734 0,0.026114 -8.161e-4,0.047332 -8.16e-4,0.020402 -0.00163,0.04162 -8.161e-4,0.021218 -0.00163,0.053045 -8.161e-4,0.00898 0,0.021218 8.16e-4,0.012241 0.00163,0.015505 8.161e-4,0.00408 0.00816,0.00734 0.00734,0.00326 0.015505,0.00571 0.00816,0.00163 0.014689,0.00326 0.00734,8.161e-4 0.00898,8.161e-4 0.00163,0.00326 0.00163,0.00979 8.161e-4,0.00653 -8.16e-4,0.010609 -0.016321,-0.00163 -0.032643,-0.00326 -0.016321,-0.00163 -0.034275,-0.00163 -0.01877,0 -0.033459,0.00163 -0.014689,0.00163 -0.033459,0.00326 -0.00163,-0.00326 -0.00245,-0.00898 0,-0.00653 0.00163,-0.010609 0.00245,0 0.00898,-8.161e-4 0.00653,-0.00163 0.013873,-0.00408 0.00734,-0.00245 0.013873,-0.00571 0.00653,-0.00408 0.00898,-0.00898 8.16e-4,-0.00163 0.00163,-0.00816 0.00163,-0.00653 0.00245,-0.013873 8.161e-4,-0.00734 0.00163,-0.014689 8.16e-4,-0.00734 8.16e-4,-0.010609 8.161e-4,-0.023666 0.00245,-0.058757 0.00163,-0.035091 0.00245,-0.069366 0.00163,-0.035091 0.00245,-0.062837 0.00163,-0.027746 0.00163,-0.037539 0,-0.00326 -8.161e-4,-0.00571 0,-0.00326 -0.00163,-0.00653 -0.00163,-0.00245 -0.00653,-0.00408 -0.00408,-0.00245 -0.00979,-0.00408 -0.0049,-0.00163 -0.010609,-0.00245 -0.0049,-8.16e-4 -0.00816,-8.16e-4 -0.00245,-0.00408 -0.00163,-0.011425 8.161e-4,-0.00816 0.00163,-0.00898 z"
           style="font-family:Ramaraja;-inkscape-font-specification:Ramaraja;fill:#9d835d;stroke:none"
           id="path49517" />
        <path
           d="m 4.3789122,1.8723339 q 0,0.04162 -0.012241,0.071814 -0.012241,0.029379 -0.032643,0.048964 -0.020402,0.019586 -0.047332,0.029379 -0.026114,0.00898 -0.055493,0.00898 -0.034275,0 -0.06447,-0.011425 -0.030195,-0.012241 -0.048964,-0.035907 -0.016321,-0.019586 -0.023666,-0.048148 -0.00653,-0.029378 -0.00653,-0.071814 V 1.7499233 q 0,-0.017138 -8.161e-4,-0.029378 0,-0.012241 -0.00408,-0.021218 -8.161e-4,-0.00245 -0.00571,-0.00408 -0.00408,-0.00163 -0.00979,-0.00245 -0.00571,-0.00163 -0.011425,-0.00163 -0.0049,-8.16e-4 -0.00734,-8.16e-4 -0.00163,-0.00326 -0.00163,-0.010609 0,-0.00734 0.00163,-0.00979 0.016321,0.00163 0.038355,0.00326 0.022034,8.161e-4 0.039171,8.161e-4 0.016322,0 0.037539,-8.161e-4 0.022034,-0.00163 0.038355,-0.00326 0.00163,0.00245 0.00163,0.00979 0,0.00734 -0.00163,0.010609 -0.00245,0 -0.00816,8.16e-4 -0.00571,0 -0.011425,0.00163 -0.0049,8.161e-4 -0.00979,0.00245 -0.0049,0.00163 -0.00571,0.00408 -0.00326,0.00898 -0.00408,0.021218 0,0.012241 0,0.029378 v 0.098745 q 0,0.027746 0.00163,0.04978 0.00245,0.021218 0.012241,0.042436 0.00734,0.017953 0.017954,0.028562 0.011425,0.00979 0.02285,0.015505 0.011425,0.0049 0.022034,0.00653 0.010609,8.161e-4 0.01877,8.161e-4 0.016321,0 0.031827,-0.00734 0.015505,-0.00734 0.027746,-0.02285 0.012241,-0.016321 0.019586,-0.040803 0.00816,-0.025298 0.00816,-0.061205 v -0.0914 q 0,-0.017954 -0.00245,-0.037539 -0.00163,-0.019586 -0.0049,-0.028562 -0.00163,-0.00326 -0.00734,-0.00571 -0.00571,-0.00245 -0.012241,-0.00408 -0.00653,-0.00163 -0.013057,-0.00163 -0.00571,-8.16e-4 -0.00816,-8.16e-4 -0.00163,-0.00326 -0.00163,-0.010609 0,-0.00734 0.00163,-0.00979 0.01877,0.00163 0.033459,0.00326 0.015505,8.161e-4 0.034275,8.161e-4 0.017954,0 0.031827,-0.00163 0.014689,-0.00163 0.031011,-0.00245 0.00163,0.00245 0.00163,0.00979 0,0.00734 -0.00163,0.010609 -0.00245,0 -0.00898,8.16e-4 -0.00653,0 -0.013057,0.00163 -0.00653,8.161e-4 -0.012241,0.00326 -0.00571,0.00245 -0.00734,0.00653 -0.00326,0.00898 -0.00571,0.028562 -0.00163,0.019586 -0.00163,0.036723 z"
           style="font-family:Ramaraja;-inkscape-font-specification:Ramaraja;fill:#9d835d;stroke:none"
           id="path49519" />
        <path
           d="m 5.1295938,1.6740288 q 0.017137,0 0.038355,-8.161e-4 0.021218,-0.00163 0.037539,-0.00326 0.00163,0.00245 0.00163,0.00979 0,0.00734 -0.00163,0.010609 -0.00245,0 -0.00816,8.16e-4 -0.00571,0 -0.011425,0.00163 -0.0049,8.161e-4 -0.00979,0.00245 -0.00408,0.00163 -0.0049,0.00408 -0.00408,0.00898 -0.0049,0.021218 0,0.012241 0,0.029378 v 0.1983052 q 0,0.017954 0,0.030195 8.161e-4,0.012241 0.0049,0.020402 8.161e-4,0.00245 0.0049,0.0049 0.0049,0.00163 0.00979,0.00326 0.00571,8.16e-4 0.011425,0.00163 0.00571,0 0.00816,0 0.00163,0.00326 0.00163,0.010609 0,0.00734 -0.00163,0.00979 -0.016321,-0.00163 -0.038355,-0.00245 -0.022034,-0.00163 -0.039171,-0.00163 -0.016321,0 -0.038355,0.00163 -0.021218,8.16e-4 -0.037539,0.00245 -0.00163,-0.00245 -0.00163,-0.00979 0,-0.00734 0.00163,-0.010609 0.00245,0 0.00816,0 0.00571,-8.161e-4 0.010609,-0.00163 0.00571,-0.00163 0.00979,-0.00326 0.0049,-0.00245 0.00653,-0.0049 0.00326,-0.00816 0.00326,-0.020402 8.161e-4,-0.012241 8.161e-4,-0.030195 V 1.7499233 q 0,-0.017138 -8.161e-4,-0.029378 0,-0.012241 -0.00326,-0.021218 -0.00163,-0.00245 -0.00653,-0.00408 -0.00408,-0.00163 -0.00979,-0.00245 -0.0049,-0.00163 -0.010609,-0.00163 -0.00571,-8.16e-4 -0.00816,-8.16e-4 -0.00163,-0.00326 -0.00163,-0.010609 0,-0.00734 0.00163,-0.00979 0.016321,0.00163 0.038355,0.00326 0.022034,8.161e-4 0.039171,8.165e-4 z"
           style="font-family:Ramaraja;-inkscape-font-specification:Ramaraja;fill:#9d835d;stroke:none"
           id="path49523" />
        <path
           d="m 5.6469315,1.9008964 q -0.00163,-0.0049 -0.00653,-0.00816 -0.0049,-0.00326 -0.010609,-0.00408 -0.00571,-0.00163 -0.011425,-0.00163 -0.0049,-8.161e-4 -0.00734,-8.161e-4 -0.00163,0 -0.00245,-0.00898 0,-0.00898 0.00245,-0.011425 0.020402,0.00163 0.040804,0.00245 0.020402,8.16e-4 0.040803,8.16e-4 0.017137,0 0.033459,-8.16e-4 0.017137,-8.161e-4 0.033459,-0.00245 0.00163,0.00571 8.161e-4,0.013057 0,0.00734 -0.00163,0.00734 -0.00326,0 -0.013873,0.00245 -0.010609,0.00163 -0.014689,0.00408 -0.00245,0.00163 -0.0049,0.00898 -0.00163,0.00653 -0.00163,0.014689 v 0.057125 q 0,0.00408 0.00163,0.00898 0.00163,0.0049 0.00163,0.00653 0,0.0049 -0.00653,0.00898 -0.00653,0.00326 -0.012241,0.00571 -0.026114,0.00898 -0.054677,0.017953 -0.028563,0.00898 -0.066102,0.00898 -0.038355,0 -0.07263,-0.013057 -0.033459,-0.013873 -0.058757,-0.037539 -0.024482,-0.023666 -0.039171,-0.056309 -0.014689,-0.032643 -0.014689,-0.070998 0,-0.037539 0.014689,-0.070998 0.014689,-0.034275 0.039987,-0.059573 0.025298,-0.025298 0.058757,-0.039987 0.034275,-0.014689 0.07263,-0.014689 0.02693,0 0.057941,0.00245 0.031011,0.00245 0.054677,0.00734 0,0.00245 0.00245,0.014689 0.00326,0.012241 0.00653,0.026114 0.00326,0.013873 0.00571,0.026114 0.00326,0.012241 0.00326,0.014689 0,0.00245 -0.0049,0.00571 -0.00408,0.00245 -0.00898,0.00245 -0.00571,0 -0.00734,-0.00245 -0.00245,-0.00734 -0.00816,-0.019586 -0.00571,-0.013057 -0.017138,-0.025298 -0.011425,-0.012241 -0.030195,-0.020402 -0.01877,-0.00898 -0.047332,-0.00898 -0.030195,0 -0.050596,0.013057 -0.020402,0.012241 -0.032643,0.033459 -0.012241,0.021218 -0.017953,0.048148 -0.0049,0.02693 -0.0049,0.054677 0,0.031827 0.00734,0.062021 0.00734,0.029378 0.021218,0.053045 0.014689,0.023666 0.035907,0.038355 0.021218,0.013873 0.04978,0.013873 0.015505,0 0.024482,-0.00245 0.00979,-0.00245 0.017138,-0.00571 0.00163,-0.00163 0.00326,-0.00245 0.00163,-0.00163 0.00163,-0.00571 v -0.062838 q 0,-0.00816 0,-0.013057 0,-0.0049 -0.00245,-0.013873 z"
           style="font-family:Ramaraja;-inkscape-font-specification:Ramaraja;fill:#9d835d;stroke:none"
           id="path49525" />
      </g>
    </g>
    <g
       aria-label="decentral"
       id="g49429"
       style="font-size:3.52778px;letter-spacing:0px;word-spacing:0px;display:inline;fill:#fff8e0;fill-opacity:1;stroke:none;stroke-width:0.01;stroke-miterlimit:4;stroke-dasharray:none;stroke-opacity:1"
       transform="matrix(0.88372684,0,0,0.88372684,-1.7472715,-2.5466031)">
      <g
         aria-label="SCHUEL"
         id="text49427"
         style="font-size:0.612053px;line-height:125%;letter-spacing:0.17214px;fill:none;stroke:#000000;stroke-width:0.11476px">
        <path
           d="m 5.1785064,1.3150963 q 0.021218,0 0.036723,-0.011425 0.015505,-0.012241 0.015505,-0.040803 0,-0.014689 -0.00898,-0.02693 -0.00816,-0.013057 -0.021218,-0.024482 -0.012241,-0.011425 -0.026114,-0.020402 -0.013873,-0.00898 -0.023666,-0.016321 -0.014689,-0.00979 -0.029379,-0.019586 -0.013873,-0.00979 -0.025298,-0.022034 -0.010609,-0.012241 -0.017137,-0.027747 -0.00653,-0.015505 -0.00653,-0.036723 0,-0.020402 0.00979,-0.038355 0.010609,-0.017954 0.02693,-0.0310107 0.016321,-0.0130571 0.036723,-0.0204018 0.020402,-0.007345 0.04162,-0.007345 0.023666,0 0.044068,0.004896 0.021218,0.004896 0.0457,0.009793 0.00245,0.0212179 0.00326,0.0432518 0.00163,0.022034 0.00326,0.046516 -0.00326,0.00326 -0.00653,0.00326 -0.00163,0 -0.00816,0 -0.00653,-8.161e-4 -0.00734,-0.00408 -0.00163,-0.011425 -0.00734,-0.025298 -0.00571,-0.013873 -0.014689,-0.026114 -0.00898,-0.012241 -0.022034,-0.020402 -0.012241,-0.008977 -0.027746,-0.008977 -0.016322,0 -0.031011,0.009793 -0.014689,0.00979 -0.014689,0.036723 0,0.012241 0.00734,0.024482 0.00734,0.011425 0.01877,0.02285 0.012241,0.010609 0.025298,0.021218 0.013873,0.00979 0.026114,0.017954 0.013057,0.00898 0.02693,0.01877 0.014689,0.00898 0.026114,0.022034 0.011425,0.012241 0.01877,0.029378 0.00734,0.016321 0.00734,0.040804 0,0.022034 -0.00979,0.040803 -0.00979,0.017953 -0.02693,0.031011 -0.016321,0.013057 -0.037539,0.020402 -0.020402,0.00734 -0.042436,0.00734 -0.023666,0 -0.051413,-0.00408 -0.02693,-0.00408 -0.051412,-0.010609 -0.00163,-0.00898 -0.00408,-0.022034 -0.00163,-0.013057 -0.00408,-0.026114 -0.00163,-0.013873 -0.00326,-0.025298 -8.161e-4,-0.012241 -0.00163,-0.017954 0.00163,-0.00245 0.00734,-0.0049 0.00653,-0.00245 0.00816,-0.00245 0.00653,0 0.00734,0.00408 0.00163,0.011425 0.00898,0.026114 0.00734,0.014689 0.01877,0.028562 0.011425,0.013057 0.026114,0.02285 0.015505,0.00898 0.033459,0.00898 z"
           style="font-family:Ramaraja;-inkscape-font-specification:Ramaraja;fill:#9d835d;stroke:none"
           id="path49528" />
        <path
           d="m 5.8174376,1.2285928 q 0,0.00245 -0.00245,0.015505 -0.00245,0.012241 -0.00571,0.02693 -0.00326,0.014689 -0.00734,0.02693 -0.00326,0.012241 -0.00653,0.013057 -0.026114,0.00898 -0.053861,0.017137 -0.02693,0.00816 -0.06447,0.00816 -0.038355,0 -0.071814,-0.013057 -0.033459,-0.013873 -0.058757,-0.037539 -0.025298,-0.023666 -0.039987,-0.056309 -0.014689,-0.032643 -0.014689,-0.070998 0,-0.039171 0.014689,-0.07263 0.014689,-0.033459 0.039987,-0.058757 0.025298,-0.025298 0.058757,-0.0391714 0.034275,-0.0146893 0.07263,-0.0146893 0.02693,0 0.057941,0.002448 0.031011,0.002448 0.054677,0.007345 0,0.002448 0.00245,0.0146893 0.00326,0.0122411 0.00653,0.0261143 0.00326,0.013873 0.00571,0.026114 0.00326,0.012241 0.00326,0.014689 0,0.00245 -0.0049,0.00571 -0.00408,0.00245 -0.00898,0.00245 -0.00571,0 -0.00734,-0.00245 -0.00245,-0.00734 -0.00816,-0.019586 -0.00571,-0.013057 -0.017953,-0.025298 -0.011425,-0.012241 -0.031011,-0.020402 -0.01877,-0.008977 -0.047332,-0.008977 -0.028563,0 -0.048964,0.012241 -0.019586,0.012241 -0.031827,0.032643 -0.012241,0.020402 -0.017954,0.047332 -0.00571,0.026114 -0.00571,0.054677 0,0.031827 0.00653,0.062021 0.00653,0.030195 0.020402,0.054677 0.014689,0.023666 0.035907,0.038355 0.022034,0.014689 0.053045,0.014689 0.023666,0 0.039171,-0.00653 0.016321,-0.00653 0.02693,-0.017138 0.00816,-0.00734 0.014689,-0.017954 0.00734,-0.011425 0.012241,-0.021218 0.0049,-0.010609 0.00734,-0.017954 0.00326,-0.00816 0.00408,-0.00979 0.00653,0 0.010609,0.00245 0.00408,0.00163 0.00816,0.00408 z"
           style="font-family:Ramaraja;-inkscape-font-specification:Ramaraja;fill:#9d835d;stroke:none"
           id="path49530" />
        <path
           id="path49534"
           style="font-family:Ramaraja;-inkscape-font-specification:Ramaraja;fill:#9d835d;stroke:none"
           d="m 6.8692495,1.1779964 q 0,0.04162 -0.012241,0.071814 -0.012241,0.029378 -0.032643,0.048964 -0.020402,0.019586 -0.047332,0.029378 -0.026114,0.00898 -0.055493,0.00898 -0.034275,0 -0.06447,-0.011425 -0.030195,-0.012241 -0.048964,-0.035907 -0.016321,-0.019586 -0.023666,-0.048148 -0.00653,-0.029378 -0.00653,-0.071814 V 1.0555858 q 0,-0.017137 -8.161e-4,-0.029378 0,-0.012241 -0.00408,-0.021218 -8.16e-4,-0.00245 -0.00571,-0.00408 -0.00408,-0.001632 -0.00979,-0.002448 -0.00571,-0.001632 -0.011425,-0.001632 -0.0049,-8.1608e-4 -0.00734,-8.1608e-4 -0.00163,-0.003264 -0.00163,-0.0106089 0,-0.007345 0.00163,-0.009793 0.016321,0.001632 0.038355,0.003264 0.022034,8.1607e-4 0.039171,8.1607e-4 0.016321,0 0.037539,-8.1607e-4 0.022034,-0.001632 0.038355,-0.003264 0.00163,0.002448 0.00163,0.009793 0,0.007345 -0.00163,0.0106089 -0.00245,0 -0.00816,8.1608e-4 -0.00571,0 -0.011425,0.001632 -0.0049,8.1607e-4 -0.00979,0.002448 -0.0049,0.00163 -0.00571,0.00408 -0.00326,0.00898 -0.00408,0.021218 0,0.012241 0,0.029378 v 0.098745 q 0,0.027746 0.00163,0.04978 0.00245,0.021218 0.012241,0.042436 0.00734,0.017953 0.017953,0.028562 0.011425,0.00979 0.02285,0.015505 0.011425,0.0049 0.022034,0.00653 0.010609,8.161e-4 0.01877,8.161e-4 0.016321,0 0.031827,-0.00734 0.015505,-0.00734 0.027746,-0.02285 0.012241,-0.016321 0.019586,-0.040803 0.00816,-0.025298 0.00816,-0.061205 v -0.0914 q 0,-0.017954 -0.00245,-0.037539 -0.00163,-0.019586 -0.0049,-0.028563 -0.00163,-0.00326 -0.00734,-0.00571 -0.00571,-0.00245 -0.012241,-0.00408 -0.00653,-0.001632 -0.013057,-0.001632 -0.00571,-8.1608e-4 -0.00816,-8.1608e-4 -0.00163,-0.003264 -0.00163,-0.0106089 0,-0.007345 0.00163,-0.009793 0.01877,0.001632 0.033459,0.003264 0.015505,8.1607e-4 0.034275,8.1607e-4 0.017953,0 0.031827,-0.001632 0.014689,-0.001632 0.031011,-0.002448 0.00163,0.002448 0.00163,0.009793 0,0.007345 -0.00163,0.0106089 -0.00245,0 -0.00898,8.1608e-4 -0.00653,0 -0.013057,0.001632 -0.00653,8.1607e-4 -0.012241,0.003264 -0.00571,0.00245 -0.00734,0.00653 -0.00326,0.00898 -0.00571,0.028563 -0.00163,0.019586 -0.00163,0.036723 z M 6.1258608,1.253891 q 0,0.017954 0,0.030195 8.161e-4,0.012241 0.0049,0.020402 8.16e-4,0.00245 0.0049,0.0049 0.0049,0.00163 0.00979,0.00326 0.00571,8.161e-4 0.011425,0.00163 0.00571,0 0.00816,0 0.00163,0.00326 0.00163,0.010609 0,0.00734 -0.00163,0.00979 -0.016321,-0.00163 -0.038355,-0.00245 -0.022034,-0.00163 -0.039171,-0.00163 -0.016321,0 -0.038355,0.00163 -0.021218,8.161e-4 -0.037539,0.00245 -0.00163,-0.00245 -0.00163,-0.00979 0,-0.00734 0.00163,-0.010609 0.00245,0 0.00816,0 0.00571,-8.16e-4 0.010609,-0.00163 0.00571,-0.00163 0.00979,-0.00326 0.0049,-0.00245 0.00653,-0.0049 0.00326,-0.00816 0.00326,-0.020402 8.16e-4,-0.012241 8.16e-4,-0.030195 V 1.0555858 q 0,-0.017137 -8.16e-4,-0.029378 0,-0.012241 -0.00326,-0.021218 -0.00163,-0.00245 -0.00653,-0.00408 -0.00408,-0.001632 -0.00979,-0.002448 -0.0049,-0.001632 -0.010609,-0.001632 -0.00571,-8.1608e-4 -0.00816,-8.1608e-4 -0.00163,-0.003264 -0.00163,-0.0106089 0,-0.007345 0.00163,-0.009793 0.016321,0.001632 0.038355,0.003264 0.022034,8.1607e-4 0.039171,8.1607e-4 0.017137,0 0.038355,-8.1607e-4 0.021218,-0.001632 0.037539,-0.003264 0.00163,0.002448 0.00163,0.009793 0,0.007345 -0.00163,0.0106089 -0.00245,0 -0.00816,8.1608e-4 -0.00571,0 -0.011425,0.001632 -0.0049,8.1607e-4 -0.00979,0.002448 -0.00408,0.00163 -0.0049,0.00408 -0.00408,0.00898 -0.0049,0.021218 0,0.012241 0,0.029378 v 0.076711 q 0,8.161e-4 8.161e-4,8.161e-4 l 8.161e-4,8.16e-4 q 0.015505,8.161e-4 0.031011,0.00163 0.015505,0 0.034275,0 0.014689,0 0.031011,0 0.017138,-8.161e-4 0.031827,-0.00163 v -8.16e-4 q 0,0 8.16e-4,-0.00163 l -8.16e-4,-0.075895 q 0,-0.017137 -8.161e-4,-0.029378 0,-0.012241 -0.00326,-0.021218 -8.161e-4,-0.00245 -0.00571,-0.00408 -0.00408,-0.001632 -0.00979,-0.002448 -0.00571,-0.001632 -0.011425,-0.001632 -0.0049,-8.1608e-4 -0.00734,-8.1608e-4 -0.00163,-0.003264 -0.00163,-0.0106089 0,-0.007345 0.00163,-0.009793 0.016321,0.001632 0.038355,0.003264 0.022034,8.1607e-4 0.038355,8.1607e-4 0.017137,0 0.038355,-8.1607e-4 0.022034,-0.001632 0.037539,-0.003264 0.00163,0.002448 0.00163,0.009793 8.161e-4,0.007345 -0.00163,0.0106089 -0.00245,0 -0.00816,8.1608e-4 -0.0049,0 -0.010609,0.001632 -0.00571,8.1607e-4 -0.010609,0.002448 -0.00408,0.00163 -0.0049,0.00408 -0.00326,0.00898 -0.00408,0.021218 0,0.012241 0,0.029378 V 1.253891 q 0,0.017954 0,0.030195 8.161e-4,0.012241 0.00408,0.020402 8.161e-4,0.00245 0.0049,0.0049 0.0049,0.00163 0.010609,0.00326 0.00571,8.161e-4 0.010609,0.00163 0.00571,0 0.00816,0 0.00245,0.00326 0.00163,0.010609 0,0.00734 -0.00163,0.00979 -0.015505,-0.00163 -0.037539,-0.00245 -0.022034,-0.00163 -0.039171,-0.00163 -0.017137,0 -0.038355,0.00163 -0.021218,8.161e-4 -0.037539,0.00245 -0.00163,-0.00245 -0.00163,-0.00979 0,-0.00734 0.00163,-0.010609 0.00245,0 0.00734,0 0.00571,-8.16e-4 0.011425,-0.00163 0.00571,-0.00163 0.00979,-0.00326 0.0049,-0.00245 0.00571,-0.0049 0.00326,-0.00816 0.00326,-0.020402 Q 6.255617,1.271845 6.255617,1.253891 V 1.164939 q 0,0 -8.161e-4,-0.00163 v -8.161e-4 q -0.014689,-8.161e-4 -0.030195,-8.161e-4 -0.015505,0 -0.031827,0 -0.02285,0 -0.035907,0 -0.012241,0 -0.019586,8.161e-4 -0.00653,0 -0.00816,8.161e-4 -0.00163,0 -0.00245,0 -8.161e-4,8.16e-4 -8.161e-4,0.00163 v 8.161e-4 z m 0.5210355,-1.89720745 q 0.021218,0 0.036723,-0.011425 0.015505,-0.012241 0.015505,-0.040803 0,-0.014689 -0.00898,-0.02693 -0.00816,-0.013057 -0.021218,-0.024482 -0.012241,-0.011425 -0.026114,-0.020402 -0.013873,-0.00898 -0.023666,-0.016322 -0.014689,-0.00979 -0.029379,-0.019586 -0.013873,-0.00979 -0.025298,-0.022034 -0.010609,-0.012241 -0.017137,-0.027746 -0.00653,-0.015505 -0.00653,-0.036723 0,-0.020402 0.00979,-0.038355 0.010609,-0.017953 0.02693,-0.031011 0.016321,-0.013057 0.036723,-0.020402 0.020402,-0.00734 0.04162,-0.00734 0.023666,0 0.044068,0.0049 0.021218,0.0049 0.0457,0.00979 0.00245,0.021218 0.00326,0.043252 0.00163,0.022034 0.00326,0.046516 -0.00326,0.00326 -0.00653,0.00326 -0.00163,0 -0.00816,0 -0.00653,-8.161e-4 -0.00734,-0.00408 -0.00163,-0.011425 -0.00734,-0.025298 -0.00571,-0.013873 -0.014689,-0.026114 -0.00898,-0.012241 -0.022034,-0.020402 -0.012241,-0.00898 -0.027746,-0.00898 -0.016321,0 -0.031011,0.00979 -0.014689,0.00979 -0.014689,0.036723 0,0.012241 0.00734,0.024482 0.00734,0.011425 0.01877,0.02285 0.012241,0.010609 0.025298,0.021218 0.013873,0.00979 0.026114,0.017953 0.013057,0.00898 0.02693,0.01877 0.014689,0.00898 0.026114,0.022034 0.011425,0.012241 0.01877,0.029378 0.00734,0.016321 0.00734,0.040804 0,0.022034 -0.00979,0.040803 -0.00979,0.017953 -0.02693,0.031011 -0.016321,0.013057 -0.037539,0.020402 -0.020402,0.00734 -0.042436,0.00734 -0.023666,0 -0.051413,-0.00408 -0.02693,-0.00408 -0.051412,-0.010609 -0.00163,-0.00898 -0.00408,-0.022034 -0.00163,-0.013057 -0.00408,-0.026114 -0.00163,-0.013873 -0.00326,-0.025298 -8.161e-4,-0.012241 -0.00163,-0.017953 0.00163,-0.00245 0.00734,-0.0049 0.00653,-0.00245 0.00816,-0.00245 0.00653,0 0.00734,0.00408 0.00163,0.011425 0.00898,0.026114 0.00734,0.014689 0.01877,0.028562 0.011425,0.013057 0.026114,0.02285 0.015505,0.00898 0.033459,0.00898 z m 0.03903,-0.99430505 c -0.063004,0 -0.1266099,0.057783 -0.1896111,0.1737028 -0.053425,0.09669 -0.084167,0.2138926 -0.092289,0.3515813 h 0.114103 c 0.00991,-0.031614 0.022034,-0.062221 0.036075,-0.091861 0.047728,-0.1007166 0.1057804,-0.1511542 0.1745089,-0.1511542 0.061091,0 0.091449,0.051646 0.091449,0.1561655 0,0.027665 -0.003,0.056815 -0.00923,0.086853 h 0.091449 c -0.00107,-0.075619 -0.00912,-0.1464481 -0.025161,-0.2121193 -0.015278,-0.072214 -0.034141,-0.1299955 -0.057051,-0.1737029 -0.022907,-0.043708 -0.046495,-0.078014 -0.071314,-0.1027184 -0.022907,-0.024706 -0.043832,-0.036745 -0.062924,-0.036745 z m 0.2164581,0.5252841 c 7.46e-5,0.00535 8.592e-4,0.010467 8.592e-4,0.015869 0,0.022318 -5.155e-4,0.044229 -0.00166,0.065974 H 8.114503 V 1.3904841 H 6.9284149 c 1.793e-4,0.00737 8.59e-4,0.014577 8.59e-4,0.021714 0,0.020774 -0.00201,0.040885 -0.00502,0.060128 h 1.2313942 c 0.022826,2.906e-4 0.041401,-0.018201 0.041108,-0.04092 V -1.071416 c 2.924e-4,-0.022716 -0.01828,-0.041211 -0.041108,-0.04092 z m 0.021811,2.584662 h -0.077188 c -0.00516,0.022568 -0.011851,0.043649 -0.020976,0.062632 -0.01909,0.045608 -0.04473,0.078472 -0.077187,0.099378 -0.032458,0.020901 -0.064259,0.034985 -0.094805,0.04259 -0.02864,0.00951 -0.05694,0.015028 -0.085576,0.015028 -0.076366,0 -0.1317548,-0.026958 -0.1661193,-0.080169 0.118692,0 0.1847242,-0.046528 0.1980008,-0.1394621 H 6.2102212 c 9.881e-4,0.078367 0.036053,0.145246 0.1057114,0.1995906 0.07064,0.05701 0.1537213,0.08518 0.2491792,0.08518 0.1011862,0 0.1869292,-0.032262 0.2575683,-0.096874 0.056065,-0.051284 0.089951,-0.1138723 0.1015155,-0.1878995 z m -0.7139762,0 c -1.36e-5,-0.00111 0,-0.00222 0,-0.00333 0,-0.026771 0.00416,-0.052987 0.012582,-0.078499 H 4.8840206 v -2.4209928 h 1.518328 c -1.01e-5,-0.00197 0,-0.00389 0,-0.00585 0,-0.025992 2.229e-4,-0.051317 0.00166,-0.075995 H 4.8462647 c -0.022824,-2.919e-4 -0.041402,0.018201 -0.041109,0.040919 v 2.5028194 c -2.924e-4,0.022716 0.018285,0.041211 0.041109,0.04092 z m 0.1921291,-2.5028218 c 6.442e-4,0.12766825 0.022191,0.26825345 0.065441,0.42173005 -0.066818,0.06651 -0.1195461,0.1195979 -0.15773,0.1595059 -0.036271,0.038008 -0.081389,0.090488 -0.1367552,0.1569993 -0.053457,0.064612 -0.094693,0.122998 -0.1233302,0.1762084 -0.026727,0.051309 -0.051759,0.1119713 -0.074669,0.1803833 -0.021001,0.06841 -0.031881,0.1355853 -0.031881,0.2020962 0,0.190034 0.066269,0.3533847 0.1980003,0.490209 0.1336414,0.1368248 0.2930333,0.2054369 0.4782219,0.2054369 0.063001,0 0.1157268,-0.00614 0.1577298,-0.017539 0.053457,0.24704375 0.079703,0.39100895 0.079703,0.43091615 0,0.00523 1.461e-4,0.00995 0,0.015028 h 0.071313 C 6.9253422,1.2664713 6.8968807,1.110335 6.8428175,0.92198175 7.0490066,0.84216745 7.152403,0.69025255 7.152403,0.46601255 c 0,-0.1349243 -0.03979,-0.2492778 -0.1199745,-0.3423948 -0.080184,-0.0950158 -0.1788642,-0.1419684 -0.2953227,-0.1419684 -0.02482,0 -0.052514,0.00265 -0.083061,0.00836 l -0.074671,-0.3365533 c 0.199802,-0.1830393 0.3074142,-0.4112641 0.3221705,-0.68395395 H 6.7874411 c -0.015798,0.0434231 -0.037414,0.0891991 -0.064602,0.13695735 -0.063,0.1121206 -0.1304867,0.1901232 -0.2030344,0.2338304 -0.024821,-0.05891 -0.037754,-0.1289628 -0.037754,-0.2087771 0,-0.056534 0.00594,-0.1102524 0.015943,-0.16201105 z m 0.095643,0 h 0.2894508 c 0.010229,-0.028139 0.018033,-0.055524 0.023494,-0.081841 H 6.5181293 c -0.00837,0.026642 -0.014709,0.053795 -0.020133,0.081841 z M 6.8570775,1.3904835 H 6.5978312 c 0.00304,0.014464 0.00502,0.028835 0.00502,0.044261 0,0.01317 -8.59e-4,0.025878 -0.00253,0.037578 h 0.246662 c 0.00574,-0.025064 0.00923,-0.052358 0.010071,-0.081841 z m -0.2592468,0 c -0.00748,-0.035438 -0.023741,-0.06802 -0.049501,-0.097707 -0.034365,-0.039905 -0.080318,-0.060128 -0.1375945,-0.060128 -0.055364,0 -0.1033736,0.024915 -0.143467,0.074324 -0.020254,0.027217 -0.034958,0.054691 -0.044466,0.08351 z m -0.067119,-1.68859045 0.052017,0.3048151 c -0.068728,0.024706 -0.1323363,0.075141 -0.1896103,0.1511557 -0.055365,0.074112 -0.083061,0.1562059 -0.083061,0.2455221 0,0.089315 0.027694,0.1632278 0.083061,0.2221389 0.057275,0.05891 0.1173798,0.096472 0.1803815,0.1135758 l 0.023494,-0.014189 -0.017621,-0.00836 c -0.011458,-0.0076 -0.025606,-0.019039 -0.042788,-0.034244 -0.017183,-0.015207 -0.033995,-0.031939 -0.051178,-0.05094 -0.015278,-0.019001 -0.028814,-0.041877 -0.040273,-0.068479 -0.011456,-0.028507 -0.017621,-0.057512 -0.017621,-0.086016 0,-0.05511 0.020924,-0.1081975 0.062923,-0.159506 0.043912,-0.05131 0.09192,-0.082129 0.1434669,-0.093532 l 0.1317205,0.6555665 c -0.080184,0.020904 -0.1361805,0.030901 -0.1686359,0.030901 -0.1336412,0 -0.2532426,-0.046347 -0.3582467,-0.139464 C 6.1337399,0.67771975 6.081014,0.56215385 6.081014,0.42342895 c 0,-0.2318412 0.1499581,-0.4725895 0.4496963,-0.7215343 z m 0.1661192,0.5160978 c 0.097365,0 0.1771795,0.030819 0.2382721,0.093532 0.061092,0.062711 0.091449,0.1468493 0.091449,0.2513678 0,0.1444265 -0.066877,0.2438592 -0.2005174,0.2989692 z" />
        <path
           d="m 7.2274533,1.1339286 q 0,0.00245 0.00734,0.00408 0.00734,0.00163 0.016321,0.00163 h 0.028562 q 0.012241,0 0.019586,-0.00163 0.00734,-0.00163 0.012241,-0.00571 0.00571,-0.00408 0.00898,-0.011425 0.00326,-0.00734 0.00653,-0.01877 0,-0.00408 0.00653,-0.00408 0.00245,0 0.0049,8.161e-4 0.00326,0 0.0049,0.00163 v 0.103641 q -0.00245,0.00245 -0.00979,0.00245 -0.00653,0 -0.00734,-0.0049 -0.0049,-0.01877 -0.00979,-0.024482 -0.0049,-0.00653 -0.00898,-0.00816 -0.010609,-0.00408 -0.040803,-0.00408 -0.011425,0 -0.025298,0.00163 -0.013873,0.00163 -0.013873,0.00653 v 0.083239 q 0,0.00163 0,0.00653 0,0.0049 0,0.012241 8.16e-4,0.00653 0.00163,0.013057 0.00163,0.00653 0.00326,0.010609 0.00245,0.00571 0.013057,0.00816 0.010609,0.00245 0.022034,0.00245 h 0.035091 q 0.032643,0 0.04978,-0.017138 0.016321,-0.016321 0.029378,-0.051412 8.161e-4,-0.00326 0.00734,-0.00326 0.00408,0 0.00898,8.161e-4 0.00571,8.16e-4 0.00734,0.00245 -0.00408,0.010609 -0.00816,0.023666 -0.00408,0.012241 -0.00898,0.024482 -0.00408,0.012241 -0.00734,0.023666 -0.00326,0.011425 -0.0049,0.020402 -0.00571,0 -0.026114,0 -0.019586,0 -0.047332,0 -0.02693,0 -0.057941,0 -0.031011,0 -0.058757,0 -0.02693,0 -0.047332,0 -0.020402,8.16e-4 -0.025298,8.16e-4 -0.00163,-0.00245 -0.00163,-0.00979 0,-0.00734 0.00163,-0.00979 0.00245,0 0.00816,-8.16e-4 0.00571,-8.161e-4 0.010609,-0.00163 0.00571,-8.16e-4 0.00979,-0.00245 0.0049,-0.00245 0.00653,-0.0049 0.00326,-0.00816 0.00326,-0.020402 8.161e-4,-0.012241 8.161e-4,-0.030195 v -0.198314 q 0,-0.017137 -8.161e-4,-0.029378 0,-0.012241 -0.00326,-0.021218 -0.00163,-0.00245 -0.00653,-0.00408 -0.00408,-0.001632 -0.00979,-0.002448 -0.0049,-8.1607e-4 -0.010609,-8.1607e-4 -0.00571,-8.1607e-4 -0.00816,-8.1607e-4 -0.00163,-0.003264 -0.00163,-0.0106089 0,-0.007345 0.00163,-0.009793 0.01877,0.001632 0.039171,0.001632 0.021218,0 0.038355,0 0.00816,0 0.031827,0 0.024482,-8.1607e-4 0.052229,-0.001632 0.027746,-8.1607e-4 0.053045,-8.1607e-4 0.025298,-8.1607e-4 0.037539,-8.1607e-4 0.00326,0.0204018 0.00734,0.0408036 0.00408,0.020402 0.00816,0.038355 -0.00163,0.00163 -0.00571,0.00245 -0.00326,8.161e-4 -0.00653,8.161e-4 -0.00245,0 -0.0049,-8.161e-4 -0.00245,-0.00163 -0.00326,-0.00408 -0.00898,-0.022034 -0.021218,-0.037539 -0.012241,-0.0163214 -0.037539,-0.0163214 h -0.044068 q -0.00979,0 -0.017954,8.1607e-4 -0.00734,8.1601e-4 -0.00898,0.005713 -0.00245,0.0049 -0.00326,0.013057 0,0.00816 0,0.019586 z"
           style="font-family:Ramaraja;-inkscape-font-specification:Ramaraja;fill:#9d835d;stroke:none"
           id="path49536" />
        <path
           d="m 7.7284692,1.2563392 q 0,0.00163 0,0.00653 0,0.0049 0,0.012241 8.16e-4,0.00653 0.00163,0.013057 0.00163,0.00653 0.00326,0.010609 0.00245,0.00571 0.013057,0.00816 0.010609,0.00245 0.022034,0.00245 h 0.035091 q 0.032643,0 0.04978,-0.017138 0.016321,-0.016321 0.029378,-0.051412 8.161e-4,-0.00326 0.00734,-0.00326 0.00408,0 0.00898,8.161e-4 0.00571,8.16e-4 0.00734,0.00245 -0.00408,0.010609 -0.00816,0.023666 -0.00408,0.012241 -0.00898,0.024482 -0.00408,0.012241 -0.00734,0.023666 -0.00326,0.011425 -0.0049,0.020402 -0.00571,0 -0.026114,0 -0.019586,0 -0.047332,0 -0.02693,0 -0.057941,0 -0.031011,0 -0.058757,0 -0.02693,0 -0.047332,0 -0.020402,8.16e-4 -0.025298,8.16e-4 -0.00163,-0.00245 -0.00163,-0.00979 0,-0.00734 0.00163,-0.00979 0.00245,0 0.00816,-8.16e-4 0.00571,-8.161e-4 0.010609,-0.00163 0.00571,-8.16e-4 0.00979,-0.00245 0.0049,-0.00245 0.00653,-0.0049 0.00326,-0.00816 0.00326,-0.020402 8.161e-4,-0.012241 8.161e-4,-0.030195 V 1.0555858 q 0,-0.017137 -8.161e-4,-0.029378 0,-0.012241 -0.00326,-0.021218 -0.00163,-0.00245 -0.00653,-0.00408 -0.00408,-0.001632 -0.00979,-0.002448 -0.0049,-0.001632 -0.010609,-0.001632 -0.00571,-8.1608e-4 -0.00816,-8.1608e-4 -0.00163,-0.003264 -0.00163,-0.0106089 0,-0.007345 0.00163,-0.009793 0.016321,0.001632 0.038355,0.003264 0.022034,8.1607e-4 0.039171,8.1607e-4 0.017137,0 0.038355,-8.1607e-4 0.021218,-0.001632 0.037539,-0.003264 0.00163,0.002448 0.00163,0.009793 0,0.007345 -0.00163,0.0106089 -0.00245,0 -0.00816,8.1608e-4 -0.00571,0 -0.011425,0.001632 -0.0049,8.1607e-4 -0.00979,0.002448 -0.00408,0.00163 -0.0049,0.00408 -0.00408,0.00898 -0.0049,0.021218 0,0.012241 0,0.029378 v 0.2007534 z"
           style="font-family:Ramaraja;-inkscape-font-specification:Ramaraja;fill:#9d835d;stroke:none"
           id="path49538" />
      </g>
    </g>
  </g>
</svg>
