<?xml version="1.0" encoding="UTF-8" standalone="no"?>
<!-- Created with Inkscape (http://www.inkscape.org/) -->

<svg
   width="13.490137mm"
   height="2.100647mm"
   viewBox="0 0 13.490137 2.100647"
   version="1.1"
   id="svg39319"
   inkscape:version="1.1.2 (0a00cf5339, 2022-02-04)"
   sodipodi:docname="logoIcon.svg"
   inkscape:export-filename="/var/www/html/tests/decentral-ninja/website/src/img/logoIcon.png"
   inkscape:export-xdpi="1905"
   inkscape:export-ydpi="1905"
   xmlns:inkscape="http://www.inkscape.org/namespaces/inkscape"
   xmlns:sodipodi="http://sodipodi.sourceforge.net/DTD/sodipodi-0.dtd"
   xmlns="http://www.w3.org/2000/svg"
   xmlns:svg="http://www.w3.org/2000/svg">
  <sodipodi:namedview
     id="namedview39321"
     pagecolor="#ffffff"
     bordercolor="#666666"
     borderopacity="1.0"
     inkscape:pageshadow="2"
     inkscape:pageopacity="0.0"
     inkscape:pagecheckerboard="0"
     inkscape:document-units="mm"
     showgrid="false"
     scale-x="1e-05"
     inkscape:zoom="16"
     inkscape:cx="25.96875"
     inkscape:cy="2.78125"
     inkscape:window-width="1856"
     inkscape:window-height="810"
     inkscape:window-x="0"
     inkscape:window-y="0"
     inkscape:window-maximized="1"
     inkscape:current-layer="g1492"
     showguides="true"
     inkscape:guide-bbox="true"
     fit-margin-top="0"
     fit-margin-left="0"
     fit-margin-right="0"
     fit-margin-bottom="0" />
  <defs
     id="defs39316">
    <inkscape:path-effect
       effect="taper_stroke"
       id="path-effect3484"
       is_visible="true"
       lpeversion="1"
       stroke_width="0.05"
       attach_start="0"
       end_offset="0.2"
       start_smoothing="3.3"
       end_smoothing="0.6"
       jointype="extrapolated"
       start_shape="center"
       end_shape="center"
       miter_limit="100" />
    <inkscape:path-effect
       effect="simplify"
       id="path-effect3482"
       is_visible="true"
       lpeversion="1"
       steps="1"
       threshold="0.0042"
       smooth_angles="110"
       helper_size="5"
       simplify_individual_paths="false"
       simplify_just_coalesce="false" />
    <inkscape:path-effect
       effect="offset"
       id="path-effect11814"
       is_visible="true"
       lpeversion="1"
       linejoin_type="miter"
       unit="mm"
       offset="0.01"
       miter_limit="4"
       attempt_force_join="false"
       update_on_knot_move="true" />
    <inkscape:path-effect
       effect="offset"
       id="path-effect11812"
       is_visible="true"
       lpeversion="1"
       linejoin_type="miter"
       unit="mm"
       offset="0.01"
       miter_limit="1"
       attempt_force_join="false"
       update_on_knot_move="true" />
    <linearGradient
       id="linearGradient11734"
       inkscape:swatch="solid">
      <stop
         style="stop-color:#ff27d9;stop-opacity:1;"
         offset="0"
         id="stop11732" />
    </linearGradient>
    <linearGradient
       id="linearGradient5784"
       inkscape:swatch="solid">
      <stop
         style="stop-color:#670002;stop-opacity:1;"
         offset="0"
         id="stop5782" />
    </linearGradient>
    <inkscape:path-effect
       effect="offset"
       id="path-effect43985"
       is_visible="true"
       lpeversion="1"
       linejoin_type="miter"
       unit="mm"
       offset="0.2"
       miter_limit="4"
       attempt_force_join="false"
       update_on_knot_move="true" />
    <inkscape:path-effect
       effect="offset"
       id="path-effect43983"
       is_visible="true"
       lpeversion="1"
       linejoin_type="miter"
       unit="mm"
       offset="0.7"
       miter_limit="4"
       attempt_force_join="false"
       update_on_knot_move="true" />
    <linearGradient
       id="linearGradient27357"
       inkscape:swatch="solid">
      <stop
         style="stop-color:#23d953;stop-opacity:1;"
         offset="0"
         id="stop27355" />
    </linearGradient>
    <linearGradient
       id="linearGradient51055"
       inkscape:swatch="solid">
      <stop
         style="stop-color:#68f45c;stop-opacity:1;"
         offset="0"
         id="stop51053" />
    </linearGradient>
    <inkscape:path-effect
       effect="copy_rotate"
       starting_point="1.4210855e-14,-1.4210855e-14"
       origin="71.512865,87.58"
       id="path-effect52748"
       is_visible="true"
       lpeversion="1"
       method="normal"
       num_copies="8"
       starting_angle="129.23313"
       rotation_angle="45"
       gap="0.03"
       copies_to_360="true"
       mirror_copies="false"
       split_items="false" />
    <inkscape:path-effect
       effect="copy_rotate"
       starting_point="0,0"
       origin="71.512865,87.58"
       id="path-effect52748-4"
       is_visible="true"
       lpeversion="1"
       method="normal"
       num_copies="8"
       starting_angle="0"
       rotation_angle="60"
       gap="0.03"
       copies_to_360="true"
       mirror_copies="false"
       split_items="false" />
    <inkscape:path-effect
       effect="copy_rotate"
       starting_point="1.4210855e-14,-1.4210855e-14"
       origin="71.512865,87.58"
       id="path-effect52748-2"
       is_visible="true"
       lpeversion="1"
       method="normal"
       num_copies="8"
       starting_angle="129.23313"
       rotation_angle="45"
       gap="0.03"
       copies_to_360="true"
       mirror_copies="false"
       split_items="false" />
    <inkscape:path-effect
       effect="copy_rotate"
       starting_point="1.4210855e-14,-1.4210855e-14"
       origin="71.512865,87.58"
       id="path-effect52748-5"
       is_visible="true"
       lpeversion="1"
       method="normal"
       num_copies="8"
       starting_angle="129.23313"
       rotation_angle="45"
       gap="0.03"
       copies_to_360="true"
       mirror_copies="false"
       split_items="false" />
    <inkscape:path-effect
       effect="copy_rotate"
       starting_point="8.2651359,10.12211"
       origin="71.512865,87.58"
       id="path-effect52748-2-7"
       is_visible="true"
       lpeversion="1"
       method="normal"
       num_copies="8"
       starting_angle="129.23313"
       rotation_angle="45"
       gap="0.03"
       copies_to_360="true"
       mirror_copies="false"
       split_items="false" />
    <inkscape:path-effect
       effect="copy_rotate"
       starting_point="76.010502,31.30025"
       origin="70.882173,31.30025"
       id="path-effect15961"
       is_visible="true"
       lpeversion="1"
       method="normal"
       num_copies="6"
       starting_angle="0"
       rotation_angle="60"
       gap="-0.01"
       copies_to_360="true"
       mirror_copies="false"
       split_items="false" />
    <inkscape:path-effect
       effect="transform_2pts"
       start="60.625515,31.30025"
       end="81.138831,31.30025"
       id="path-effect15965"
       is_visible="true"
       lpeversion="1"
       first_knot="1"
       last_knot="2"
       helper_size="20"
       stretch="1"
       offset="0"
       elastic="false"
       from_original_width="true"
       flip_vertical="false"
       flip_horizontal="false"
       lock_length="false"
       lock_angle="false" />
    <inkscape:path-effect
       effect="skeletal"
       id="path-effect15969"
       is_visible="true"
       lpeversion="1"
       pattern="m -33.229283,-42.304731 c -0.197833,0.104918 -1.311259,0.69306 -1.630032,0.861005 -0.16467,0.08676 -0.329376,0.172512 -0.366007,0.190579 -0.03664,0.01804 -0.223162,0.11533 -0.414483,0.216204 -0.603971,0.318378 -0.652762,0.343891 -0.657147,0.34369 -0.0052,-2.29e-4 -0.003,-0.06934 0.03448,-1.051456 0.04914,-1.288603 0.05624,-1.457851 0.06119,-1.45879 0.0061,-0.0012 0.07199,0.03961 0.552931,0.342278 0.21953,0.138159 0.40239,0.252207 0.406354,0.25344 0.01089,0.0034 0.013,-0.03086 0.03374,-0.548653 0.01037,-0.25891 0.01944,-0.481043 0.02016,-0.493632 l 0.0013,-0.02288 0.05654,0.03438 c 0.03109,0.01891 0.467297,0.292453 0.969339,0.607868 0.502041,0.315416 0.944247,0.592979 0.982678,0.616808 0.03843,0.02383 0.06929,0.04402 0.06858,0.04486 -7.06e-4,8.46e-4 -0.05454,0.02979 -0.119621,0.06431 z m -0.164524,-0.07625 c -0.0022,-0.0015 -0.0087,0.0021 -0.01454,0.0079 -0.0099,0.0099 -0.0098,0.01029 0.0015,0.0063 0.01382,-0.0049 0.01878,-0.01027 0.01306,-0.01417 z m -0.793809,0.42377 c -9.22e-4,-6.27e-4 -0.0068,4.78e-4 -0.01309,0.0025 -0.01035,0.0033 -0.01031,0.0035 5.24e-4,0.0028 0.01138,-7.57e-4 0.01622,-0.0028 0.01256,-0.0053 z m -0.230819,0.03388 c -0.0384,-0.02388 -0.187727,-0.117877 -0.331843,-0.208881 -0.248518,-0.15694 -0.347048,-0.217656 -0.348871,-0.21498 -6.73e-4,9.87e-4 -0.0222,0.557472 -0.03117,0.805713 -0.0021,0.05734 -8.2e-4,0.06858 0.0075,0.067 0.0155,-0.003 0.108495,-0.05055 0.411533,-0.2106 0.154123,-0.08139 0.297456,-0.156777 0.318512,-0.167527 0.02106,-0.01074 0.03963,-0.02127 0.04124,-0.02342 0.0017,-0.0023 -0.02605,-0.02192 -0.06686,-0.0473 z m -0.839806,0.07093 c 0.0077,-0.200845 0.01566,-0.412493 0.01758,-0.470328 l 0.0035,-0.105153 -0.05671,-0.04061 c -0.08272,-0.05924 -0.771695,-0.493265 -0.780395,-0.491616 -0.002,3.84e-4 -0.0046,0.03187 -0.0056,0.06995 -0.0011,0.03809 -0.01149,0.317917 -0.02316,0.621841 -0.01939,0.505301 -0.03713,0.982119 -0.04605,1.237916 -0.0019,0.05513 -0.0025,0.100919 -0.0013,0.101743 0.0012,8.25e-4 0.01617,-0.0059 0.03321,-0.01482 0.01703,-0.009 0.154759,-0.08157 0.30607,-0.161288 0.15131,-0.07972 0.315956,-0.166981 0.365874,-0.193918 0.04992,-0.02694 0.108383,-0.05835 0.129895,-0.06985 l 0.03913,-0.02088 0.0019,-0.0489 c 0.0011,-0.0269 0.0083,-0.213229 0.01601,-0.414075 z m -0.318177,-3.222937 c -0.0081,0.223787 -0.05542,1.482114 -0.06936,1.842151 -0.0072,0.185988 -0.01529,0.371505 -0.01796,0.412262 -0.0027,0.04076 -0.0117,0.250929 -0.02,0.467054 -0.02626,0.682243 -0.02856,0.737255 -0.03093,0.740951 -0.0028,0.0044 -0.06154,-0.03209 -0.89335,-0.555587 -1.091393,-0.686857 -1.234416,-0.777629 -1.232753,-0.782387 0.0021,-0.0059 0.0703,-0.04254 0.572886,-0.307714 0.229421,-0.121026 0.419612,-0.222379 0.422657,-0.225202 0.0084,-0.0078 -0.02023,-0.02669 -0.458277,-0.303547 -0.219036,-0.138436 -0.406873,-0.257361 -0.417415,-0.264278 l -0.01917,-0.01257 0.05804,-0.03178 c 0.03192,-0.01747 0.486921,-0.258462 1.011098,-0.535537 0.524183,-0.277066 0.98566,-0.521251 1.025511,-0.542622 0.03986,-0.02135 0.07277,-0.038 0.07314,-0.03696 3.77e-4,10e-4 -0.0015,0.06213 -0.0041,0.135752 z m -0.148295,0.104358 c -0.0024,0.0011 -0.0025,0.0086 -4.35e-4,0.01654 0.0036,0.01354 0.004,0.01365 0.0062,0.0019 0.0027,-0.01442 4.95e-4,-0.0214 -0.0057,-0.0184 z m -0.02991,0.899343 c -10e-4,4.89e-4 -0.003,0.0061 -0.0044,0.01258 -0.0023,0.0106 -0.0021,0.01069 0.0027,9.54e-4 0.005,-0.01023 0.0057,-0.01546 0.0017,-0.01353 z m -0.08607,0.216836 c -0.03988,0.02132 -0.195941,0.103651 -0.346817,0.182946 -0.26018,0.136739 -0.362013,0.191737 -0.360613,0.194642 5.19e-4,0.0011 0.471685,0.297961 0.682183,0.42985 0.04862,0.03046 0.05899,0.035 0.06176,0.02704 0.0052,-0.0149 0.01047,-0.119235 0.02338,-0.461699 0.0066,-0.17417 0.01296,-0.335992 0.01417,-0.359602 0.0012,-0.02361 0.0014,-0.04496 3.37e-4,-0.04743 -0.0011,-0.0026 -0.03201,0.0116 -0.07439,0.03426 z m -0.358476,0.762758 c -0.170065,-0.107128 -0.349401,-0.219804 -0.398524,-0.25039 l -0.08931,-0.05561 -0.06352,0.0288 c -0.09266,0.04202 -0.813028,0.421675 -0.815951,0.430031 -6.86e-4,0.0019 0.02531,0.01989 0.05776,0.03986 0.03245,0.01998 0.269577,0.168913 0.526953,0.330976 0.427908,0.269441 0.831976,0.523211 1.04904,0.658839 0.04678,0.02923 0.08615,0.05262 0.08748,0.05196 0.0013,-6.48e-4 0.003,-0.01694 0.0038,-0.03617 7.39e-4,-0.01924 0.0067,-0.174809 0.01336,-0.34571 0.0066,-0.170899 0.01337,-0.357116 0.015,-0.413815 0.0016,-0.0567 0.0037,-0.123036 0.0045,-0.147418 l 0.0015,-0.04433 -0.04138,-0.02613 c -0.02276,-0.01437 -0.180526,-0.113777 -0.350593,-0.220905 z m -2.950234,-1.335918 c 0.189778,0.118868 1.255838,0.789052 1.560668,0.981145 0.15747,0.09923 0.314089,0.198993 0.34805,0.221683 0.03395,0.02271 0.211461,0.135599 0.39448,0.25085 0.577709,0.363866 0.6242,0.393364 0.626218,0.397261 0.0024,0.0047 -0.05856,0.03725 -0.927827,0.49587 -1.140533,0.601744 -1.290655,0.680221 -1.293942,0.676405 -0.0041,-0.0047 -0.0017,-0.08215 0.01995,-0.649991 0.0099,-0.259199 0.01722,-0.474584 0.01631,-0.478633 -0.0025,-0.01114 -0.03322,0.0042 -0.492018,0.245107 -0.229408,0.120472 -0.426322,0.223673 -0.437579,0.229353 l -0.02047,0.01032 0.0015,-0.06616 c 8.34e-4,-0.03638 0.01962,-0.550917 0.04176,-1.143405 0.02214,-0.592489 0.04141,-1.114232 0.04283,-1.159429 0.0014,-0.0452 0.0035,-0.08202 0.0046,-0.08182 0.0011,1.83e-4 0.05307,0.03233 0.115508,0.07144 z m 0.01623,0.180605 c -2.18e-4,0.0026 0.0062,0.0065 0.0141,0.0086 0.01352,0.0036 0.01383,0.0034 0.0047,-0.0044 -0.01116,-0.0095 -0.01828,-0.01113 -0.01881,-0.0042 z m 0.763899,0.475574 c -8.9e-5,0.0011 0.0038,0.0057 0.0087,0.0101 0.008,0.0073 0.0082,0.0072 0.0022,-0.0019 -0.0063,-0.0095 -0.01055,-0.01265 -0.01088,-0.0082 z m 0.144753,0.182953 c -0.0015,0.04519 -0.0082,0.221515 -0.01497,0.391826 -0.01165,0.293692 -0.01497,0.40938 -0.01174,0.409621 0.0012,8.7e-5 0.493892,-0.259497 0.713352,-0.375862 0.05069,-0.02687 0.05981,-0.03358 0.05429,-0.03997 -0.01031,-0.01194 -0.09803,-0.06868 -0.388152,-0.251098 -0.147549,-0.09278 -0.2845,-0.179215 -0.304338,-0.192075 -0.01984,-0.01287 -0.03824,-0.02368 -0.04091,-0.02401 -0.0028,-3.87e-4 -0.006,0.03352 -0.0075,0.08156 z m 0.48133,0.691829 c -0.177808,0.09372 -0.365054,0.192695 -0.416102,0.219946 l -0.09283,0.04953 -0.0068,0.06941 c -0.0099,0.101253 -0.04133,0.914941 -0.03555,0.92165 0.0013,0.0016 0.02989,-0.01197 0.06341,-0.03008 0.03352,-0.01811 0.281078,-0.148992 0.550103,-0.290879 0.447302,-0.23585 0.869106,-0.458901 1.095092,-0.579075 0.04871,-0.0259 0.08865,-0.04829 0.08875,-0.04977 9.8e-5,-0.0015 -0.01316,-0.01108 -0.02944,-0.02135 -0.01629,-0.01026 -0.148019,-0.09324 -0.292716,-0.184421 -0.144695,-0.09118 -0.302587,-0.190135 -0.350874,-0.219898 -0.04829,-0.02976 -0.104723,-0.06469 -0.125442,-0.07756 l -0.03765,-0.02344 -0.04332,0.02277 c -0.02382,0.01253 -0.188804,0.09944 -0.366613,0.193156 z m -2.632056,1.887018 c 0.197832,-0.104918 1.311258,-0.693061 1.630031,-0.861006 0.16467,-0.08676 0.329377,-0.172512 0.366007,-0.190578 0.03664,-0.01804 0.223162,-0.115331 0.414483,-0.216204 0.603971,-0.318378 0.652762,-0.343892 0.657147,-0.343691 0.0052,2.3e-4 0.003,0.06934 -0.03448,1.051457 -0.04914,1.288602 -0.05624,1.457851 -0.06119,1.458789 -0.0061,0.0012 -0.072,-0.03961 -0.552931,-0.342277 -0.219531,-0.138159 -0.402391,-0.252208 -0.406354,-0.25344 -0.01089,-0.0034 -0.013,0.03086 -0.03374,0.548653 -0.01037,0.258909 -0.01944,0.481043 -0.02016,0.493631 l -0.0013,0.02289 -0.05654,-0.03438 c -0.03109,-0.01891 -0.467297,-0.292452 -0.969338,-0.607867 -0.502042,-0.315416 -0.944248,-0.59298 -0.982679,-0.616809 -0.03843,-0.02383 -0.06929,-0.04402 -0.06858,-0.04486 7.07e-4,-8.46e-4 0.05454,-0.02979 0.119621,-0.06431 z m 0.164523,0.07625 c 0.0022,0.0015 0.0087,-0.0021 0.01454,-0.0079 0.0099,-0.0099 0.0098,-0.01029 -0.0015,-0.0063 -0.01382,0.0049 -0.01878,0.01027 -0.01306,0.01417 z m 0.793809,-0.42377 c 9.22e-4,6.27e-4 0.0068,-4.78e-4 0.01309,-0.0025 0.01035,-0.0033 0.01031,-0.0035 -5.24e-4,-0.0028 -0.01138,7.58e-4 -0.01622,0.0028 -0.01256,0.0053 z m 0.230819,-0.03388 c 0.0384,0.02388 0.187727,0.117877 0.331844,0.208881 0.248517,0.15694 0.347047,0.217656 0.34887,0.214979 6.73e-4,-9.86e-4 0.0222,-0.557472 0.03117,-0.805712 0.0021,-0.05734 8.2e-4,-0.06858 -0.0075,-0.067 -0.0155,0.003 -0.108495,0.05055 -0.411533,0.210601 -0.154123,0.08139 -0.297456,0.156777 -0.318512,0.167527 -0.02106,0.01074 -0.03963,0.02127 -0.04124,0.02342 -0.0017,0.0023 0.02605,0.02192 0.06686,0.0473 z m 0.839806,-0.07093 c -0.0077,0.200845 -0.01566,0.412493 -0.01758,0.470327 l -0.0035,0.105154 0.05671,0.04061 c 0.08272,0.05924 0.771695,0.493265 0.780395,0.491615 0.002,-3.83e-4 0.0046,-0.03186 0.0056,-0.06995 0.0011,-0.03809 0.01149,-0.317917 0.02316,-0.621842 0.01939,-0.5053 0.03713,-0.982118 0.04605,-1.237915 0.0019,-0.05513 0.0025,-0.100919 0.0013,-0.101743 -0.0012,-8.25e-4 -0.01617,0.0059 -0.03321,0.01482 -0.01703,0.009 -0.15476,0.08157 -0.306071,0.161288 -0.15131,0.07972 -0.315956,0.166981 -0.365874,0.193918 -0.04992,0.02694 -0.108383,0.05835 -0.129895,0.06985 l -0.03913,0.02089 -0.0019,0.0489 c -0.0011,0.02689 -0.0083,0.213228 -0.01601,0.414075 z m 0.318177,3.222936 c 0.0081,-0.223786 0.05542,-1.482113 0.06936,-1.842151 0.0072,-0.185987 0.01529,-0.371505 0.01796,-0.412261 0.0027,-0.04075 0.0117,-0.250929 0.02,-0.467054 0.02626,-0.682244 0.02856,-0.737255 0.03093,-0.740951 0.0028,-0.0044 0.06154,0.03209 0.893349,0.555586 1.091393,0.686858 1.234416,0.77763 1.232753,0.782388 -0.0021,0.0059 -0.0703,0.04254 -0.572886,0.307714 -0.229421,0.121026 -0.419612,0.222378 -0.422657,0.225202 -0.0084,0.0078 0.02023,0.02669 0.458277,0.303546 0.219036,0.138437 0.406873,0.257362 0.417415,0.264279 l 0.01917,0.01257 -0.05804,0.03178 c -0.03192,0.01747 -0.486922,0.258463 -1.011099,0.535538 -0.524183,0.277066 -0.98566,0.521251 -1.02551,0.542622 -0.03986,0.02135 -0.07277,0.038 -0.07314,0.03696 -3.77e-4,-10e-4 0.0015,-0.06213 0.0041,-0.135752 z m 0.148295,-0.104357 c 0.0024,-0.0011 0.0025,-0.0086 4.35e-4,-0.01654 -0.0036,-0.01354 -0.004,-0.01365 -0.0062,-0.0019 -0.0027,0.01442 -4.94e-4,0.0214 0.0057,0.0184 z m 0.02991,-0.899343 c 10e-4,-4.9e-4 0.003,-0.0061 0.0044,-0.01258 0.0023,-0.0106 0.0021,-0.01069 -0.0027,-9.54e-4 -0.005,0.01023 -0.0057,0.01546 -0.0017,0.01353 z m 0.08607,-0.216837 c 0.03988,-0.02132 0.195941,-0.10365 0.346817,-0.182946 0.26018,-0.136738 0.362013,-0.191736 0.360613,-0.194641 -5.19e-4,-0.0011 -0.471685,-0.297961 -0.682182,-0.42985 -0.04862,-0.03046 -0.05899,-0.035 -0.06176,-0.02704 -0.0052,0.0149 -0.01047,0.119235 -0.02338,0.461698 -0.0066,0.174171 -0.01296,0.335993 -0.01417,0.359603 -0.0012,0.02361 -0.0014,0.04495 -3.37e-4,0.04743 0.0011,0.0026 0.03201,-0.0116 0.0744,-0.03426 z m 0.358476,-0.762757 c 0.170066,0.107127 0.349402,0.219804 0.398525,0.25039 l 0.08931,0.05561 0.06352,-0.0288 c 0.09266,-0.04202 0.813028,-0.421676 0.815951,-0.430032 6.86e-4,-0.0019 -0.02531,-0.01989 -0.05776,-0.03987 -0.03245,-0.01997 -0.269577,-0.168912 -0.526952,-0.330975 -0.427909,-0.269441 -0.831977,-0.523211 -1.049041,-0.658839 -0.04678,-0.02923 -0.08615,-0.05262 -0.08748,-0.05196 -0.0013,6.47e-4 -0.003,0.01693 -0.0038,0.03617 -7.39e-4,0.01924 -0.0067,0.174809 -0.01336,0.345709 -0.0066,0.170899 -0.01337,0.357116 -0.015,0.413815 -0.0016,0.0567 -0.0037,0.123037 -0.0045,0.147419 l -0.0015,0.04433 0.04138,0.02613 c 0.02276,0.01437 0.180526,0.113778 0.350593,0.220906 z m 2.950234,1.335918 c -0.189778,-0.118869 -1.255837,-0.789053 -1.560668,-0.981146 -0.15747,-0.09923 -0.314089,-0.198992 -0.34805,-0.221682 -0.03395,-0.02271 -0.21146,-0.135599 -0.394479,-0.250851 -0.577709,-0.363865 -0.624201,-0.393363 -0.626219,-0.39726 -0.0024,-0.0047 0.05856,-0.03725 0.927827,-0.49587 1.140533,-0.601744 1.290655,-0.680221 1.293942,-0.676405 0.0041,0.0047 0.0017,0.08215 -0.01995,0.649991 -0.0099,0.259198 -0.01722,0.474584 -0.01631,0.478633 0.0025,0.01114 0.03323,-0.0042 0.492017,-0.245107 0.229408,-0.120473 0.426323,-0.223673 0.437579,-0.229353 l 0.02047,-0.01032 -0.0015,0.06616 c -8.35e-4,0.03638 -0.01962,0.550918 -0.04176,1.143406 -0.02214,0.592489 -0.04141,1.114232 -0.04283,1.159429 -0.0014,0.0452 -0.0035,0.08202 -0.0046,0.08183 -0.0011,-1.84e-4 -0.05307,-0.03234 -0.115508,-0.07144 z m -0.01623,-0.180606 c 2.18e-4,-0.0026 -0.0062,-0.0065 -0.0141,-0.0086 -0.01352,-0.0036 -0.01383,-0.0034 -0.0047,0.0044 0.01115,0.0095 0.01828,0.01113 0.01881,0.0042 z m -0.763899,-0.475573 c 8.9e-5,-0.0011 -0.0038,-0.0057 -0.0087,-0.0101 -0.008,-0.0073 -0.0082,-0.0072 -0.0022,0.0019 0.0063,0.0095 0.01055,0.01264 0.01088,0.0082 z m -0.144753,-0.182954 c 0.0015,-0.04519 0.0082,-0.221514 0.01497,-0.391825 0.01166,-0.293692 0.01497,-0.40938 0.01174,-0.409621 -0.0012,-8.8e-5 -0.493892,0.259497 -0.713352,0.375862 -0.05069,0.02687 -0.05981,0.03358 -0.05429,0.03997 0.01031,0.01194 0.09803,0.06868 0.388152,0.251098 0.147549,0.09278 0.2845,0.179216 0.304338,0.192076 0.01984,0.01287 0.03824,0.02368 0.04091,0.02401 0.0028,3.87e-4 0.006,-0.03352 0.0075,-0.08156 z m -0.48133,-0.691828 c 0.177808,-0.09372 0.365054,-0.192695 0.416102,-0.219946 l 0.09283,-0.04953 0.0068,-0.06941 c 0.0099,-0.101252 0.04133,-0.91494 0.03555,-0.921649 -0.0013,-0.0016 -0.02989,0.01197 -0.06341,0.03008 -0.03352,0.01811 -0.281077,0.148992 -0.550102,0.290879 -0.447303,0.23585 -0.869106,0.458901 -1.095092,0.579075 -0.04871,0.0259 -0.08865,0.04829 -0.08875,0.04977 -9.8e-5,0.0015 0.01316,0.01108 0.02944,0.02135 0.0163,0.01026 0.148019,0.09324 0.292716,0.18442 0.144695,0.09118 0.302587,0.190136 0.350874,0.219898 0.04829,0.02976 0.104723,0.06469 0.125442,0.07756 l 0.03765,0.02345 0.04332,-0.02277 c 0.02382,-0.01253 0.188804,-0.09944 0.366613,-0.193155 z"
       copytype="repeated"
       prop_scale="0.19"
       scale_y_rel="false"
       spacing="0"
       normal_offset="0"
       tang_offset="0"
       prop_units="false"
       vertical_pattern="false"
       hide_knot="false"
       fuse_tolerance="0" />
    <inkscape:path-effect
       effect="copy_rotate"
       starting_point="76.010502,31.30025"
       origin="70.882173,31.30025"
       id="path-effect6714-4-8-3-4"
       is_visible="true"
       lpeversion="1"
       method="normal"
       num_copies="6"
       starting_angle="0"
       rotation_angle="60"
       gap="-0.01"
       copies_to_360="true"
       mirror_copies="false"
       split_items="false" />
  </defs>
  <g
     inkscape:groupmode="layer"
     id="g1492"
     inkscape:label="times path border"
     style="display:inline"
     transform="translate(-2.3497253,-7.2843098)"
     sodipodi:insensitive="true">
    <g
       aria-label="decentral"
       id="g1488"
       style="font-size:3.52778px;letter-spacing:0px;word-spacing:0px;opacity:1;fill:#fff8e0;fill-opacity:1;stroke:none;stroke-width:0.01;stroke-miterlimit:4;stroke-dasharray:none;stroke-opacity:1"
       transform="translate(1.3813821,3.0086618)">
      <g
         aria-label="MUSIð„žSCHUEL"
         id="text1486"
         style="font-size:1.41111px;line-height:125%;letter-spacing:0.396875px;fill:none;stroke:#000000;stroke-width:0.264583px">
        <path
           d="m 1.6226572,5.0408127 c 0.082082,0.00775 0.164852,0.011338 0.2469438,0.00106 0.026803,-0.010027 0.026021,0.025326 0.037149,0.041065 0.072127,0.161564 0.1442536,0.3231279 0.2163804,0.4846919 0.015186,-0.00361 0.016941,-0.031442 0.025524,-0.045961 C 2.1988062,5.395248 2.2502768,5.269196 2.2943373,5.140525 c 0.014254,-0.028467 0.011927,-0.078315 0.03448,-0.094074 0.090036,0.00483 0.1803821,2.799e-4 0.2703175,-0.00564 0.020675,0.036885 -0.00126,0.055668 -0.038693,0.052795 -0.057019,0.00725 -0.034784,0.07358 -0.036101,0.1123046 0.00648,0.1815333 0.00889,0.3633338 0.021238,0.5445705 -0.00314,0.047749 0.03524,0.074174 0.079657,0.071144 0.026459,0.00201 0.017491,0.069516 -0.017776,0.044216 -0.1109827,-0.014169 -0.2228839,-0.0075 -0.3338453,0.00282 -0.015596,-0.028822 -0.00342,-0.054535 0.028484,-0.048954 0.038894,4.886e-4 0.070601,-0.025694 0.065584,-0.066649 3.4e-5,-0.1521774 -0.0078,-0.3042388 -0.011249,-0.456365 -0.00603,-0.020304 0.00461,-0.085684 -0.01692,-0.075255 -0.072755,0.197554 -0.14551,0.395108 -0.218265,0.592662 -0.00841,0.022814 -0.056342,0.076647 -0.070393,0.033953 C 1.9601779,5.636672 1.8694989,5.4252904 1.77882,5.2139088 c -0.006,0.143947 -0.00716,0.2880083 -0.01363,0.4319474 -9.41e-5,0.046822 -0.00719,0.094939 0.00423,0.1408476 0.028806,0.042112 0.1224044,0.00702 0.1114751,0.071145 -0.034595,0.022925 -0.1072121,-0.00913 -0.156631,-4.717e-4 -0.050893,-0.00717 -0.11713,0.020717 -0.157572,0.00235 -0.018619,-0.060462 0.072831,-0.031854 0.098776,-0.070555 0.018916,-0.027067 0.015904,-0.063513 0.021156,-0.095484 0.010015,-0.1836124 0.014433,-0.3675598 0.02256,-0.5512733 0.00925,-0.061423 -0.084416,-0.033235 -0.090774,-0.072908 6.742e-4,-0.0096 8.293e-4,-0.019588 0.00425,-0.028695 z"
           style="font-family:Ramaraja;-inkscape-font-specification:Ramaraja;fill:#9d835d;stroke:none"
           id="path1574" />
        <path
           d="m 3.8276331,5.5074197 c 0.00276,0.114375 -0.038683,0.2357331 -0.134349,0.3044762 -0.1036384,0.075314 -0.2471689,0.078568 -0.3634345,0.03244 C 3.2316168,5.8042081 3.1684269,5.7033033 3.1618243,5.5991419 3.1516815,5.497899 3.1574964,5.3959714 3.1559447,5.2943941 c -0.00131,-0.058318 0.0042,-0.1176111 -0.00717,-0.175029 -0.010431,-0.048438 -0.1022074,-0.00326 -0.086664,-0.063728 0.012505,-0.029791 0.067209,-0.00142 0.098261,-0.00706 0.086383,0.00344 0.1730233,0.00192 0.2589831,-0.00776 0.015239,0.033551 -0.00351,0.056982 -0.038571,0.051032 -0.043323,-0.00215 -0.054621,0.039657 -0.051743,0.075323 0.00108,0.1313474 -0.00275,0.2628115 0.0033,0.3940504 0.0068,0.061284 0.028927,0.1234675 0.07007,0.1700905 0.057378,0.054958 0.1484331,0.068162 0.220133,0.035747 0.081784,-0.039915 0.1135543,-0.1359021 0.1243387,-0.2201117 0.00674,-0.090351 0.00234,-0.1811239 0.0036,-0.2716766 -7.759e-4,-0.053306 -0.00362,-0.1074611 -0.016929,-0.159203 -0.023027,-0.041309 -0.1094727,-8.156e-4 -0.097599,-0.06044 0.014074,-0.03297 0.075286,0.00233 0.1085353,-0.00614 0.065564,0.00389 0.1307502,-0.00421 0.1960267,-0.00867 0.01707,0.036917 -0.0074,0.056856 -0.043274,0.051032 -0.053001,-0.00355 -0.064399,0.048313 -0.065851,0.090079 -0.00694,0.104117 -0.0025,0.2085823 -0.00376,0.3128647 0,0.00421 -10e-8,0.00841 -10e-8,0.012619 z"
           style="font-family:Ramaraja;-inkscape-font-specification:Ramaraja;fill:#9d835d;stroke:none"
           id="path1576" />
        <path
           d="m 4.6553659,5.8235084 c 0.048699,0.0012 0.1050321,-0.02424 0.1153879,-0.076318 0.016656,-0.052012 -0.00574,-0.105872 -0.043597,-0.142346 C 4.6790238,5.5544304 4.6181373,5.5195544 4.561425,5.4799123 4.500494,5.4416123 4.4392502,5.3938413 4.4192417,5.3212712 c -0.019328,-0.066093 -0.00674,-0.1423148 0.041863,-0.1929698 0.065128,-0.07535 0.1701736,-0.1086086 0.2676407,-0.094074 0.052085,0.00668 0.1025949,0.021974 0.1542813,0.031045 0.00744,0.068791 0.00936,0.1380172 0.01506,0.2069623 -0.023825,0.018652 -0.061203,0.00441 -0.056913,-0.029632 -0.020493,-0.068996 -0.067497,-0.1410662 -0.1420532,-0.1572205 -0.04858,-0.0073 -0.1111958,0.017148 -0.1194593,0.071004 -0.013404,0.048586 0.00991,0.097229 0.044317,0.130902 0.067942,0.070665 0.1570407,0.1150814 0.232598,0.1763001 0.055736,0.048166 0.086878,0.1220886 0.080668,0.1956444 -0.00261,0.087273 -0.070341,0.1578846 -0.1471087,0.1907349 -0.087413,0.040892 -0.1868217,0.025619 -0.2783782,0.010381 -0.035127,-0.010719 -0.093304,-0.00261 -0.086982,-0.054363 -0.00962,-0.057867 -0.018543,-0.1159018 -0.023407,-0.17439 0.018373,-0.021585 0.060652,-0.024399 0.057354,0.013295 0.023694,0.069058 0.070874,0.1345858 0.1377309,0.1669805 0.018588,0.00781 0.038776,0.01169 0.058913,0.011637 z"
           style="font-family:Ramaraja;-inkscape-font-specification:Ramaraja;fill:#9d835d;stroke:none"
           id="path1578" />
        <path
           d="m 5.5583565,5.0502201 c 0.058476,4.72e-4 0.116855,-0.00316 0.174978,-0.00941 0.012041,0.027832 0.0022,0.058067 -0.031985,0.049857 -0.041965,-0.00257 -0.061908,0.034381 -0.058327,0.072207 0,0.1963761 0,0.3927522 0,0.5891283 -0.00165,0.033647 0.017346,0.067569 0.054098,0.067132 0.011969,0.00227 0.024054,0.00291 0.036214,0.00248 0.00867,0.022458 0.00684,0.058002 -0.024805,0.044871 -0.082683,-0.00533 -0.1656891,-0.010923 -0.248436,-0.00323 -0.026668,-0.00366 -0.06641,0.013568 -0.083297,-0.00307 -0.00716,-0.025957 0.00163,-0.04462 0.028102,-0.039513 0.044223,0.00245 0.071391,-0.033756 0.063592,-0.075937 0.00286,-0.1182931 8.317e-4,-0.2366689 0.00144,-0.3549997 -8.87e-4,-0.086208 0.00254,-0.1726019 -0.00376,-0.2586176 1.795e-4,-0.047697 -0.063019,-0.033276 -0.088196,-0.04762 -0.00674,-0.022891 -0.00306,-0.052617 0.02645,-0.040334 0.051167,0.00527 0.1025299,0.00716 0.1539351,0.00705 z"
           style="font-family:Ramaraja;-inkscape-font-specification:Ramaraja;fill:#9d835d;stroke:none"
           id="path1580" />
        <path
           id="path1582"
           style="font-size:1.76389px;font-family:Ramaraja;-inkscape-font-specification:Ramaraja;fill:#9d835d;fill-opacity:1;stroke:none;stroke-width:0.999999px"
           d="m 30.304688,27.53125 c -0.146668,0 -0.294741,0.135139 -0.441407,0.40625 -0.124374,0.226137 -0.19594,0.500245 -0.214843,0.822266 h 0.265624 c 0.02308,-0.07394 0.05129,-0.14552 0.08398,-0.214844 0.111111,-0.235555 0.24625,-0.353516 0.40625,-0.353516 0.142221,0 0.21289,0.12079 0.212891,0.365235 0,0.0647 -0.007,0.132878 -0.02148,0.203125 h 0.212891 c -0.0025,-0.17685 -0.02124,-0.342506 -0.05859,-0.496094 -0.03555,-0.16889 -0.07948,-0.304029 -0.132812,-0.40625 -0.05333,-0.102221 -0.108237,-0.182456 -0.166016,-0.240234 -0.05333,-0.05778 -0.10204,-0.08594 -0.146484,-0.08594 z m 0.503906,1.228516 c 1.74e-4,0.0125 0.002,0.02449 0.002,0.03711 0,0.05219 -0.0012,0.10344 -0.0039,0.154297 h 28.86914 v 5.662109 h -28.80664 c 4.18e-4,0.01722 0.002,0.03409 0.002,0.05078 0,0.04859 -0.0047,0.09562 -0.01172,0.140626 h 28.912109 a 0.09449764,0.09449764 0 0 0 0.0957,-0.0957 v -5.853515 a 0.09449764,0.09449764 0 0 0 -0.0957,-0.0957 z m 0.05078,6.044922 h -0.179687 c -0.01201,0.05278 -0.02759,0.102085 -0.04883,0.146484 -0.04444,0.106666 -0.104132,0.183532 -0.179687,0.232422 -0.07556,0.04888 -0.149593,0.08182 -0.220703,0.09961 -0.06667,0.02222 -0.132553,0.03516 -0.199219,0.03516 -0.177778,0 -0.306719,-0.06305 -0.386719,-0.1875 0.276311,0 0.43003,-0.108815 0.460938,-0.326171 h -0.908203 c 0.0023,0.183282 0.08393,0.339697 0.246093,0.466796 0.164446,0.133335 0.357857,0.199219 0.580079,0.199219 0.235555,0 0.435164,-0.07545 0.599609,-0.226562 0.13052,-0.119938 0.209402,-0.266319 0.236328,-0.439453 z m -1.662109,0 c -3.2e-5,-0.0026 0,-0.0052 0,-0.0078 0,-0.06261 0.0097,-0.123923 0.0293,-0.183594 H 9.0644531 V 28.951172 H 29.644531 c -2.3e-5,-0.0046 0,-0.0091 0,-0.01367 0,-0.06079 5.19e-4,-0.12002 0.0039,-0.177734 H 8.9765625 a 0.09449764,0.09449764 0 0 0 -0.095703,0.0957 v 5.853515 a 0.09449764,0.09449764 0 0 0 0.095703,0.0957 z m 0.447265,-5.853516 c 0.0015,0.298588 0.05166,0.627382 0.152344,0.986328 -0.155555,0.155555 -0.278298,0.279713 -0.367187,0.373047 -0.08444,0.08889 -0.18947,0.211632 -0.31836,0.367187 -0.124445,0.151111 -0.220443,0.287665 -0.287109,0.41211 -0.06222,0.12 -0.120494,0.261875 -0.173828,0.421875 -0.04889,0.16 -0.07422,0.317101 -0.07422,0.472656 0,0.444445 0.15427,0.826484 0.460937,1.146484 0.311112,0.32 0.68217,0.480469 1.113282,0.480469 0.146665,0 0.269408,-0.01435 0.367187,-0.04102 0.124445,0.577778 0.185547,0.914479 0.185547,1.007813 0,0.01222 3.4e-4,0.02324 0,0.03516 h 0.166016 c -0.0071,-0.290024 -0.07336,-0.655189 -0.199219,-1.095703 0.48,-0.186667 0.720703,-0.541961 0.720703,-1.066406 0,-0.315555 -0.09263,-0.583002 -0.279297,-0.800781 -0.186667,-0.222221 -0.416389,-0.332032 -0.6875,-0.332032 -0.05778,0 -0.122249,0.0062 -0.193359,0.01953 l -0.173828,-0.78711 c 0.465131,-0.428086 0.715648,-0.961851 0.75,-1.599609 h -0.265625 c -0.03678,0.101556 -0.0871,0.20862 -0.150391,0.320312 -0.146666,0.262224 -0.303767,0.444654 -0.472656,0.546875 -0.05778,-0.137779 -0.08789,-0.301615 -0.08789,-0.488281 0,-0.132222 0.01383,-0.257856 0.03711,-0.378906 z m 0.222657,0 h 0.673828 c 0.02383,-0.06581 0.04198,-0.129856 0.05469,-0.191406 h -0.681641 c -0.01945,0.06231 -0.03426,0.125813 -0.04687,0.191406 z m 0.835937,5.662109 h -0.603516 c 0.0071,0.03384 0.01172,0.06744 0.01172,0.103516 0,0.03082 -0.002,0.06052 -0.0059,0.08789 h 0.574219 c 0.01334,-0.05862 0.02147,-0.122451 0.02344,-0.191407 z m -0.603516,0 c -0.01738,-0.08288 -0.05527,-0.159083 -0.115234,-0.228515 -0.08,-0.09333 -0.186978,-0.140625 -0.320313,-0.140625 -0.128886,0 -0.24065,0.05827 -0.333984,0.173828 -0.04715,0.06365 -0.08138,0.127911 -0.103516,0.195312 z m -0.15625,-3.949219 0.121094,0.712891 c -0.159999,0.05778 -0.308072,0.175737 -0.441406,0.353516 -0.12889,0.173333 -0.193359,0.365329 -0.193359,0.574219 0,0.208887 0.06447,0.381752 0.193359,0.519531 0.133334,0.137779 0.273256,0.225625 0.419922,0.265625 l 0.05469,-0.0332 -0.04102,-0.01953 c -0.02667,-0.01778 -0.05961,-0.04452 -0.09961,-0.08008 -0.04,-0.03556 -0.07914,-0.0747 -0.11914,-0.11914 -0.03556,-0.04444 -0.06708,-0.09794 -0.09375,-0.160157 -0.02667,-0.06667 -0.04102,-0.134506 -0.04102,-0.201172 0,-0.128889 0.04871,-0.253046 0.146484,-0.373046 0.102224,-0.12 0.213985,-0.192085 0.333985,-0.21875 l 0.30664,1.533203 c -0.186667,0.04889 -0.317022,0.07227 -0.392578,0.07227 -0.311111,0 -0.589539,-0.108393 -0.833984,-0.326172 -0.244445,-0.217777 -0.367188,-0.488055 -0.367188,-0.8125 0,-0.542222 0.349097,-1.105277 1.046875,-1.6875 z m 0.386719,1.207032 c 0.226667,0 0.412467,0.07208 0.554688,0.21875 0.142223,0.146666 0.21289,0.343446 0.21289,0.58789 0,0.337779 -0.155685,0.57033 -0.466797,0.699219 z"
           transform="matrix(0.26458333,0,0,0.26458333,-1.3813821,-3.0086618)"
           inkscape:original-d="m 30.304688,27.53125 c -0.146668,0 -0.294741,0.135139 -0.441407,0.40625 -0.124374,0.226137 -0.19594,0.500245 -0.214843,0.822266 h 0.265624 c 0.02308,-0.07394 0.05129,-0.14552 0.08398,-0.214844 0.111111,-0.235555 0.24625,-0.353516 0.40625,-0.353516 0.142221,0 0.21289,0.12079 0.212891,0.365235 0,0.0647 -0.007,0.132878 -0.02148,0.203125 h 0.212891 c -0.0025,-0.17685 -0.02124,-0.342506 -0.05859,-0.496094 -0.03555,-0.16889 -0.07948,-0.304029 -0.132812,-0.40625 -0.05333,-0.102221 -0.108237,-0.182456 -0.166016,-0.240234 -0.05333,-0.05778 -0.10204,-0.08594 -0.146484,-0.08594 z m 0.503906,1.228516 c 1.74e-4,0.0125 0.002,0.02449 0.002,0.03711 0,0.05219 -0.0012,0.10344 -0.0039,0.154297 h 28.86914 v 5.662109 h -28.80664 c 4.18e-4,0.01722 0.002,0.03409 0.002,0.05078 0,0.04859 -0.0047,0.09562 -0.01172,0.140626 h 28.912109 a 0.09449764,0.09449764 0 0 0 0.0957,-0.0957 v -5.853515 a 0.09449764,0.09449764 0 0 0 -0.0957,-0.0957 z m 0.05078,6.044922 h -0.179687 c -0.01201,0.05278 -0.02759,0.102085 -0.04883,0.146484 -0.04444,0.106666 -0.104132,0.183532 -0.179687,0.232422 -0.07556,0.04888 -0.149593,0.08182 -0.220703,0.09961 -0.06667,0.02222 -0.132553,0.03516 -0.199219,0.03516 -0.177778,0 -0.306719,-0.06305 -0.386719,-0.1875 0.276311,0 0.43003,-0.108815 0.460938,-0.326171 h -0.908203 c 0.0023,0.183282 0.08393,0.339697 0.246093,0.466796 0.164446,0.133335 0.357857,0.199219 0.580079,0.199219 0.235555,0 0.435164,-0.07545 0.599609,-0.226562 0.13052,-0.119938 0.209402,-0.266319 0.236328,-0.439453 z m -1.662109,0 c -3.2e-5,-0.0026 0,-0.0052 0,-0.0078 0,-0.06261 0.0097,-0.123923 0.0293,-0.183594 H 9.0644531 V 28.951172 H 29.644531 c -2.3e-5,-0.0046 0,-0.0091 0,-0.01367 0,-0.06079 5.19e-4,-0.12002 0.0039,-0.177734 H 8.9765625 a 0.09449764,0.09449764 0 0 0 -0.095703,0.0957 v 5.853515 a 0.09449764,0.09449764 0 0 0 0.095703,0.0957 z m 0.447265,-5.853516 c 0.0015,0.298588 0.05166,0.627382 0.152344,0.986328 -0.155555,0.155555 -0.278298,0.279713 -0.367187,0.373047 -0.08444,0.08889 -0.18947,0.211632 -0.31836,0.367187 -0.124445,0.151111 -0.220443,0.287665 -0.287109,0.41211 -0.06222,0.12 -0.120494,0.261875 -0.173828,0.421875 -0.04889,0.16 -0.07422,0.317101 -0.07422,0.472656 0,0.444445 0.15427,0.826484 0.460937,1.146484 0.311112,0.32 0.68217,0.480469 1.113282,0.480469 0.146665,0 0.269408,-0.01435 0.367187,-0.04102 0.124445,0.577778 0.185547,0.914479 0.185547,1.007813 0,0.01222 3.4e-4,0.02324 0,0.03516 h 0.166016 c -0.0071,-0.290024 -0.07336,-0.655189 -0.199219,-1.095703 0.48,-0.186667 0.720703,-0.541961 0.720703,-1.066406 0,-0.315555 -0.09263,-0.583002 -0.279297,-0.800781 -0.186667,-0.222221 -0.416389,-0.332032 -0.6875,-0.332032 -0.05778,0 -0.122249,0.0062 -0.193359,0.01953 l -0.173828,-0.78711 c 0.465131,-0.428086 0.715648,-0.961851 0.75,-1.599609 h -0.265625 c -0.03678,0.101556 -0.0871,0.20862 -0.150391,0.320312 -0.146666,0.262224 -0.303767,0.444654 -0.472656,0.546875 -0.05778,-0.137779 -0.08789,-0.301615 -0.08789,-0.488281 0,-0.132222 0.01383,-0.257856 0.03711,-0.378906 z m 0.222657,0 h 0.673828 c 0.02383,-0.06581 0.04198,-0.129856 0.05469,-0.191406 h -0.681641 c -0.01945,0.06231 -0.03426,0.125813 -0.04687,0.191406 z m 0.835937,5.662109 h -0.603516 c 0.0071,0.03384 0.01172,0.06744 0.01172,0.103516 0,0.03082 -0.002,0.06052 -0.0059,0.08789 h 0.574219 c 0.01334,-0.05862 0.02147,-0.122451 0.02344,-0.191407 z m -0.603516,0 c -0.01738,-0.08288 -0.05527,-0.159083 -0.115234,-0.228515 -0.08,-0.09333 -0.186978,-0.140625 -0.320313,-0.140625 -0.128886,0 -0.24065,0.05827 -0.333984,0.173828 -0.04715,0.06365 -0.08138,0.127911 -0.103516,0.195312 z m -0.15625,-3.949219 0.121094,0.712891 c -0.159999,0.05778 -0.308072,0.175737 -0.441406,0.353516 -0.12889,0.173333 -0.193359,0.365329 -0.193359,0.574219 0,0.208887 0.06447,0.381752 0.193359,0.519531 0.133334,0.137779 0.273256,0.225625 0.419922,0.265625 l 0.05469,-0.0332 -0.04102,-0.01953 c -0.02667,-0.01778 -0.05961,-0.04452 -0.09961,-0.08008 -0.04,-0.03556 -0.07914,-0.0747 -0.11914,-0.11914 -0.03556,-0.04444 -0.06708,-0.09794 -0.09375,-0.160157 -0.02667,-0.06667 -0.04102,-0.134506 -0.04102,-0.201172 0,-0.128889 0.04871,-0.253046 0.146484,-0.373046 0.102224,-0.12 0.213985,-0.192085 0.333985,-0.21875 l 0.30664,1.533203 c -0.186667,0.04889 -0.317022,0.07227 -0.392578,0.07227 -0.311111,0 -0.589539,-0.108393 -0.833984,-0.326172 -0.244445,-0.217777 -0.367188,-0.488055 -0.367188,-0.8125 0,-0.542222 0.349097,-1.105277 1.046875,-1.6875 z m 0.386719,1.207032 c 0.226667,0 0.412467,0.07208 0.554688,0.21875 0.142223,0.146666 0.21289,0.343446 0.21289,0.58789 0,0.337779 -0.155685,0.57033 -0.466797,0.699219 z" />
        <path
           d="m 7.5423667,5.8235084 c 0.048699,0.0012 0.1050321,-0.02424 0.1153879,-0.076318 0.016656,-0.052012 -0.00574,-0.1058723 -0.043597,-0.142346 C 7.5660236,5.5544304 7.5051377,5.5195544 7.4484252,5.479912 7.3874942,5.441612 7.3262504,5.393841 7.3062418,5.3212709 c -0.019328,-0.066093 -0.00674,-0.1423148 0.041863,-0.1929698 0.065128,-0.07535 0.1701736,-0.1086086 0.2676407,-0.094074 0.052085,0.00668 0.1025949,0.021974 0.1542813,0.031045 0.00744,0.068791 0.00936,0.1380172 0.01506,0.2069623 -0.023825,0.018652 -0.061203,0.00441 -0.056913,-0.029632 -0.020493,-0.068996 -0.067497,-0.1410662 -0.1420532,-0.1572205 -0.04858,-0.0073 -0.1111958,0.017148 -0.1194593,0.071004 -0.013404,0.048586 0.00991,0.097229 0.044317,0.130902 0.067942,0.070665 0.1570407,0.1150814 0.232598,0.1763001 0.055736,0.048166 0.086878,0.1220886 0.080668,0.1956444 -0.00261,0.087273 -0.070341,0.1578846 -0.1471087,0.1907349 -0.087413,0.040892 -0.1868217,0.025619 -0.2783782,0.010381 -0.035127,-0.010719 -0.093304,-0.00261 -0.086982,-0.054363 -0.00962,-0.057867 -0.018543,-0.1159018 -0.023407,-0.17439 0.018373,-0.021585 0.060652,-0.024399 0.057354,0.013295 0.023694,0.069058 0.070874,0.1345858 0.1377309,0.1669805 0.018589,0.00781 0.038775,0.01169 0.058913,0.011638 z"
           style="font-family:Ramaraja;-inkscape-font-specification:Ramaraja;fill:#9d835d;stroke:none"
           id="path1584" />
        <path
           d="m 9.0154458,5.6240715 c -0.00949,0.061433 -0.021992,0.1230413 -0.043271,0.181563 -0.039225,0.027483 -0.093866,0.033113 -0.1395584,0.050256 C 8.7034046,5.8879314 8.5570318,5.8770265 8.4454318,5.7991962 8.3268811,5.7226202 8.2554093,5.5807061 8.2652644,5.4398922 8.2712715,5.2667531 8.3959747,5.106544 8.5612841,5.0558387 8.6609674,5.0225854 8.7678567,5.036888 8.87033,5.044885 8.910029,5.051765 8.967058,5.042905 8.96088,5.098722 8.973568,5.147436 8.984451,5.196678 8.99475,5.2458887 8.973122,5.2846617 8.932794,5.2560007 8.930193,5.2207817 8.893008,5.1301387 8.7911535,5.0822533 8.6968442,5.0879536 c -0.077803,-0.00151 -0.1506405,0.046406 -0.1849291,0.1153652 -0.055212,0.1095959 -0.056561,0.2390214 -0.034512,0.3574666 0.018298,0.097797 0.069918,0.1996844 0.1654158,0.2410652 0.08671,0.032485 0.1985789,0.018653 0.2587994,-0.05737 0.031861,-0.040341 0.052696,-0.087673 0.070558,-0.1354672 0.015843,-7.326e-4 0.029862,0.00784 0.043271,0.015058 z"
           style="font-family:Ramaraja;-inkscape-font-specification:Ramaraja;fill:#9d835d;stroke:none"
           id="path1586" />
        <path
           d="m 9.7265261,5.6823974 c 0.00214,0.040878 -0.00756,0.08554 0.015051,0.1222943 0.021585,0.014962 0.049507,0.017237 0.075261,0.016937 0.016004,0.036176 -0.00625,0.055414 -0.040923,0.043747 -0.0813,-0.00561 -0.1628715,-0.00877 -0.2441959,-0.00158 -0.037051,0.00403 -0.092923,0.013693 -0.068601,-0.042168 0.028028,3.47e-4 0.059865,-0.00236 0.080904,-0.022579 0.013877,-0.04991 0.00803,-0.1028441 0.00941,-0.154256 -5.595e-4,-0.1575011 0.00121,-0.3150352 -0.00106,-0.4725121 0.00519,-0.040842 -0.00924,-0.084663 -0.057742,-0.081605 -0.036113,0.015336 -0.04992,-0.043535 -0.021901,-0.048917 0.1142985,0.011728 0.2298776,0.011558 0.3441057,-9.402e-4 0.015239,0.033551 -0.00351,0.056982 -0.038571,0.051032 -0.042045,-0.00202 -0.054058,0.040446 -0.051741,0.075014 0,0.078397 0,0.1567941 0,0.2351912 0.010759,0.00867 0.027988,0.00282 0.041312,0.00573 0.064669,0.00333 0.1295311,0.00158 0.1942551,0.00132 0.02553,-0.00495 0.07697,0.011394 0.06526,-0.030081 -0.0017,-0.082631 3.99e-4,-0.1654573 -0.0054,-0.2479002 0.0044,-0.057564 -0.0827,-0.020455 -0.08821,-0.059849 -0.0086,-0.053299 0.0602,-0.017302 0.09199,-0.022925 0.08784,0.00356 0.176007,0.00264 0.26341,-0.00753 0.01546,0.032655 -0.0021,0.056585 -0.03681,0.051032 -0.04371,-0.00324 -0.05407,0.039836 -0.05162,0.075014 3.75e-4,0.1973441 -7.51e-4,0.3947492 5.63e-4,0.5920552 -0.005,0.044178 0.03498,0.064695 0.07375,0.062707 0.03515,-0.00641 0.02036,0.070635 -0.01481,0.044481 -0.08465,-0.00595 -0.169614,-0.00996 -0.254309,-0.00231 -0.03702,0.00403 -0.09301,0.013677 -0.0686,-0.042168 0.02712,-5.396e-4 0.05977,-0.00133 0.07902,-0.022579 0.01382,-0.049922 0.008,-0.1028433 0.0094,-0.154256 0,-0.055826 0,-0.1116525 0,-0.1674788 -0.0219,-0.014257 -0.06092,-0.00485 -0.09031,-0.00752 -0.06899,9.663e-4 -0.1383224,-0.0027 -0.2069742,0.00376 -0.00434,0.026857 -6.608e-4,0.055605 -0.00188,0.083198 1.6e-6,0.041881 3.3e-6,0.083762 4.9e-6,0.125643 z"
           style="font-family:Ramaraja;-inkscape-font-specification:Ramaraja;fill:#9d835d;stroke:none"
           id="path1588" />
        <path
           d="m 11.440435,5.5074197 c 0.0028,0.114375 -0.03868,0.235736 -0.134349,0.3044762 -0.103638,0.075313 -0.247168,0.078568 -0.363432,0.03244 -0.09823,-0.04013 -0.161424,-0.1410317 -0.168022,-0.2451949 -0.01014,-0.1012501 -0.0043,-0.2031847 -0.0059,-0.3047692 -0.0013,-0.058312 0.0042,-0.1175946 -0.0072,-0.175007 -0.01043,-0.048439 -0.102202,-0.00326 -0.0867,-0.063728 0.01257,-0.029789 0.06723,-0.00142 0.0983,-0.00706 0.08638,0.00344 0.173024,0.00192 0.258984,-0.00776 0.01533,0.033528 -0.0035,0.056995 -0.03856,0.051032 -0.04333,-0.00216 -0.05459,0.039661 -0.05174,0.075325 9.84e-4,0.129179 -0.0025,0.2584552 0.0029,0.3875449 0.0053,0.063629 0.02818,0.1282306 0.0705,0.1765949 0.05738,0.054958 0.148431,0.068161 0.22013,0.035747 0.08178,-0.039916 0.113557,-0.1359029 0.124348,-0.2201117 0.0067,-0.090358 0.0023,-0.1811389 0.0036,-0.271699 -7.63e-4,-0.053299 -0.0036,-0.1074404 -0.01689,-0.1591806 -0.02304,-0.041308 -0.109461,-8.223e-4 -0.09763,-0.06044 0.01414,-0.032968 0.0753,0.00233 0.108572,-0.00614 0.06556,0.00389 0.130752,-0.00421 0.19603,-0.00867 0.01717,0.0369 -0.0074,0.056867 -0.04328,0.051032 -0.05301,-0.00355 -0.06436,0.048322 -0.06584,0.090079 -0.007,0.1041217 -0.0026,0.2085991 -0.0039,0.3128897 -2e-6,0.0042 -3e-6,0.0084 -4e-6,0.012594 z"
           style="font-family:Ramaraja;-inkscape-font-specification:Ramaraja;fill:#9d835d;stroke:none"
           id="path1590" />
        <path
           d="m 12.266287,5.4058198 c 0.02046,0.018207 0.05203,0.011837 0.07809,0.01317 0.04349,-0.00187 0.09581,0.00923 0.127458,-0.02822 0.01856,-0.023091 0.02028,-0.091869 0.06162,-0.059956 0,0.078936 0,0.1578725 0,0.2368088 -0.05776,0.028614 -0.03778,-0.067243 -0.08279,-0.080908 -0.05405,-0.013704 -0.111564,-0.011226 -0.166396,-0.0033 -0.02495,0.00184 -0.01669,0.028052 -0.01799,0.04479 5.44e-4,0.069804 -0.0011,0.1397441 8.04e-4,0.2094634 0.0033,0.024932 0.0043,0.059268 0.03477,0.065482 0.04803,0.011662 0.09785,0.00582 0.146798,0.00701 0.05356,8.553e-4 0.106466,-0.026118 0.132666,-0.073664 0.03001,-0.027319 0.02309,-0.106134 0.0782,-0.089875 0.03505,0.00515 -0.0071,0.050882 -0.0067,0.074314 -0.01782,0.046916 -0.03454,0.094539 -0.0441,0.143933 -0.186236,2.902e-4 -0.372494,-5.836e-4 -0.558715,4.406e-4 -0.02502,0.00215 -0.06127,0.00861 -0.05068,-0.0289 0.0085,-0.035686 0.08545,-0.00266 0.08903,-0.05282 0.0082,-0.082586 0.0036,-0.1658917 0.0048,-0.2488261 -6.44e-4,-0.1233538 0.0015,-0.2467563 -0.0015,-0.3700707 0.0078,-0.042448 -0.01794,-0.079518 -0.06357,-0.072962 -0.04209,0.013993 -0.03954,-0.06873 0.0021,-0.047052 0.08199,0.00283 0.164117,0.00205 0.246138,0.00107 0.102574,-0.00398 0.205215,-0.00487 0.307831,-0.00681 0.0097,0.061237 0.02212,0.1220245 0.03575,0.182504 -0.05026,0.032319 -0.05641,-0.038634 -0.07903,-0.066506 -0.01887,-0.035642 -0.05471,-0.062404 -0.09628,-0.061295 -0.05259,7.66e-4 -0.105542,-0.00286 -0.157807,0.00326 -0.0254,0.013044 -0.01976,0.047186 -0.02056,0.071695 -9e-6,0.079073 -3.2e-5,0.1581471 -4.7e-5,0.2372206 z"
           style="font-family:Ramaraja;-inkscape-font-specification:Ramaraja;fill:#9d835d;stroke:none"
           id="path1592" />
        <path
           d="m 13.421397,5.6880418 c 1.34e-4,0.035001 -0.0024,0.072441 0.01528,0.1039517 0.03724,0.025605 0.08525,0.016535 0.128192,0.01834 0.05478,0.00192 0.117282,-0.00289 0.153688,-0.049595 0.03316,-0.031741 0.03966,-0.0848 0.06868,-0.115509 0.02505,-0.00366 0.05764,0.00349 0.03492,0.03292 -0.01968,0.062168 -0.04659,0.122244 -0.05833,0.1867368 -0.186235,2.902e-4 -0.372494,-5.836e-4 -0.558714,4.406e-4 -0.02502,0.00215 -0.06128,0.00861 -0.05069,-0.0289 0.0085,-0.035686 0.08545,-0.00266 0.08904,-0.05282 0.0082,-0.082521 0.0036,-0.16576 0.0048,-0.2486285 -6.53e-4,-0.1234243 0.0015,-0.2468977 -0.0015,-0.3702824 0.008,-0.043382 -0.01842,-0.077844 -0.06357,-0.074725 -0.04068,0.014604 -0.0403,-0.067077 -4.82e-4,-0.046801 0.109318,0.010373 0.21975,0.00955 0.328915,-0.00235 0.01214,0.027816 0.0022,0.058079 -0.03199,0.049857 -0.04249,-0.00268 -0.06204,0.035201 -0.05833,0.073197 1.5e-5,0.1747153 -2.9e-5,0.3494892 2.2e-5,0.5241679 z"
           style="font-family:Ramaraja;-inkscape-font-specification:Ramaraja;fill:#9d835d;stroke:none"
           id="path1594" />
      </g>
    </g>
  </g>
</svg>
