<?xml version="1.0" encoding="UTF-8" standalone="no"?>
<!-- Created with Inkscape (http://www.inkscape.org/) -->

<svg
   width="16mm"
   height="16mm"
   viewBox="0 0 16 16"
   version="1.1"
   id="svg39319"
   inkscape:version="1.1.2 (0a00cf5339, 2022-02-04)"
   sodipodi:docname="logo.svg"
   inkscape:export-filename="/var/www/html/tests/decentral-ninja/website/src/img/logoIcon.png"
   inkscape:export-xdpi="1905"
   inkscape:export-ydpi="1905"
   xmlns:inkscape="http://www.inkscape.org/namespaces/inkscape"
   xmlns:sodipodi="http://sodipodi.sourceforge.net/DTD/sodipodi-0.dtd"
   xmlns:xlink="http://www.w3.org/1999/xlink"
   xmlns="http://www.w3.org/2000/svg"
   xmlns:svg="http://www.w3.org/2000/svg">
  <sodipodi:namedview
     id="namedview39321"
     pagecolor="#ffffff"
     bordercolor="#666666"
     borderopacity="1.0"
     inkscape:pageshadow="2"
     inkscape:pageopacity="0.0"
     inkscape:pagecheckerboard="0"
     inkscape:document-units="mm"
     showgrid="false"
     scale-x="1e-05"
     inkscape:zoom="15.999999"
     inkscape:cx="35.562502"
     inkscape:cy="33.906252"
     inkscape:window-width="1856"
     inkscape:window-height="810"
     inkscape:window-x="0"
     inkscape:window-y="0"
     inkscape:window-maximized="1"
     inkscape:current-layer="g22339"
     showguides="true"
     inkscape:guide-bbox="true">
    <sodipodi:guide
       position="8.0016138,9.7167456"
       orientation="1,0"
       id="guide43244" />
    <sodipodi:guide
       position="-4.6632813,7.1364577"
       orientation="0,-1"
       id="guide20030" />
  </sodipodi:namedview>
  <defs
     id="defs39316">
    <linearGradient
       id="linearGradient5784"
       inkscape:swatch="solid">
      <stop
         style="stop-color:#670002;stop-opacity:1;"
         offset="0"
         id="stop5782" />
    </linearGradient>
    <inkscape:path-effect
       effect="offset"
       id="path-effect43985"
       is_visible="true"
       lpeversion="1"
       linejoin_type="miter"
       unit="mm"
       offset="0.2"
       miter_limit="4"
       attempt_force_join="false"
       update_on_knot_move="true" />
    <inkscape:path-effect
       effect="offset"
       id="path-effect43983"
       is_visible="true"
       lpeversion="1"
       linejoin_type="miter"
       unit="mm"
       offset="0.7"
       miter_limit="4"
       attempt_force_join="false"
       update_on_knot_move="true" />
    <linearGradient
       id="linearGradient27357"
       inkscape:swatch="solid">
      <stop
         style="stop-color:#23d953;stop-opacity:1;"
         offset="0"
         id="stop27355" />
    </linearGradient>
    <linearGradient
       id="linearGradient51055"
       inkscape:swatch="solid">
      <stop
         style="stop-color:#68f45c;stop-opacity:1;"
         offset="0"
         id="stop51053" />
    </linearGradient>
    <inkscape:path-effect
       effect="copy_rotate"
       starting_point="1.4210855e-14,-1.4210855e-14"
       origin="71.512865,87.58"
       id="path-effect52748"
       is_visible="true"
       lpeversion="1"
       method="normal"
       num_copies="8"
       starting_angle="129.23313"
       rotation_angle="45"
       gap="0.03"
       copies_to_360="true"
       mirror_copies="false"
       split_items="false" />
    <inkscape:path-effect
       effect="copy_rotate"
       starting_point="0,0"
       origin="71.512865,87.58"
       id="path-effect52748-4"
       is_visible="true"
       lpeversion="1"
       method="normal"
       num_copies="8"
       starting_angle="0"
       rotation_angle="60"
       gap="0.03"
       copies_to_360="true"
       mirror_copies="false"
       split_items="false" />
    <inkscape:path-effect
       effect="copy_rotate"
       starting_point="1.4210855e-14,-1.4210855e-14"
       origin="71.512865,87.58"
       id="path-effect52748-2"
       is_visible="true"
       lpeversion="1"
       method="normal"
       num_copies="8"
       starting_angle="129.23313"
       rotation_angle="45"
       gap="0.03"
       copies_to_360="true"
       mirror_copies="false"
       split_items="false" />
    <inkscape:path-effect
       effect="copy_rotate"
       starting_point="1.4210855e-14,-1.4210855e-14"
       origin="71.512865,87.58"
       id="path-effect52748-5"
       is_visible="true"
       lpeversion="1"
       method="normal"
       num_copies="8"
       starting_angle="129.23313"
       rotation_angle="45"
       gap="0.03"
       copies_to_360="true"
       mirror_copies="false"
       split_items="false" />
    <inkscape:path-effect
       effect="copy_rotate"
       starting_point="8.2651359,10.12211"
       origin="71.512865,87.58"
       id="path-effect52748-2-7"
       is_visible="true"
       lpeversion="1"
       method="normal"
       num_copies="8"
       starting_angle="129.23313"
       rotation_angle="45"
       gap="0.03"
       copies_to_360="true"
       mirror_copies="false"
       split_items="false" />
    <inkscape:path-effect
       effect="copy_rotate"
       starting_point="76.010502,31.30025"
       origin="70.882173,31.30025"
       id="path-effect15961"
       is_visible="true"
       lpeversion="1"
       method="normal"
       num_copies="6"
       starting_angle="0"
       rotation_angle="60"
       gap="-0.01"
       copies_to_360="true"
       mirror_copies="false"
       split_items="false" />
    <inkscape:path-effect
       effect="transform_2pts"
       start="60.625515,31.30025"
       end="81.138831,31.30025"
       id="path-effect15965"
       is_visible="true"
       lpeversion="1"
       first_knot="1"
       last_knot="2"
       helper_size="20"
       stretch="1"
       offset="0"
       elastic="false"
       from_original_width="true"
       flip_vertical="false"
       flip_horizontal="false"
       lock_length="false"
       lock_angle="false" />
    <inkscape:path-effect
       effect="skeletal"
       id="path-effect15969"
       is_visible="true"
       lpeversion="1"
       pattern="m -33.229283,-42.304731 c -0.197833,0.104918 -1.311259,0.69306 -1.630032,0.861005 -0.16467,0.08676 -0.329376,0.172512 -0.366007,0.190579 -0.03664,0.01804 -0.223162,0.11533 -0.414483,0.216204 -0.603971,0.318378 -0.652762,0.343891 -0.657147,0.34369 -0.0052,-2.29e-4 -0.003,-0.06934 0.03448,-1.051456 0.04914,-1.288603 0.05624,-1.457851 0.06119,-1.45879 0.0061,-0.0012 0.07199,0.03961 0.552931,0.342278 0.21953,0.138159 0.40239,0.252207 0.406354,0.25344 0.01089,0.0034 0.013,-0.03086 0.03374,-0.548653 0.01037,-0.25891 0.01944,-0.481043 0.02016,-0.493632 l 0.0013,-0.02288 0.05654,0.03438 c 0.03109,0.01891 0.467297,0.292453 0.969339,0.607868 0.502041,0.315416 0.944247,0.592979 0.982678,0.616808 0.03843,0.02383 0.06929,0.04402 0.06858,0.04486 -7.06e-4,8.46e-4 -0.05454,0.02979 -0.119621,0.06431 z m -0.164524,-0.07625 c -0.0022,-0.0015 -0.0087,0.0021 -0.01454,0.0079 -0.0099,0.0099 -0.0098,0.01029 0.0015,0.0063 0.01382,-0.0049 0.01878,-0.01027 0.01306,-0.01417 z m -0.793809,0.42377 c -9.22e-4,-6.27e-4 -0.0068,4.78e-4 -0.01309,0.0025 -0.01035,0.0033 -0.01031,0.0035 5.24e-4,0.0028 0.01138,-7.57e-4 0.01622,-0.0028 0.01256,-0.0053 z m -0.230819,0.03388 c -0.0384,-0.02388 -0.187727,-0.117877 -0.331843,-0.208881 -0.248518,-0.15694 -0.347048,-0.217656 -0.348871,-0.21498 -6.73e-4,9.87e-4 -0.0222,0.557472 -0.03117,0.805713 -0.0021,0.05734 -8.2e-4,0.06858 0.0075,0.067 0.0155,-0.003 0.108495,-0.05055 0.411533,-0.2106 0.154123,-0.08139 0.297456,-0.156777 0.318512,-0.167527 0.02106,-0.01074 0.03963,-0.02127 0.04124,-0.02342 0.0017,-0.0023 -0.02605,-0.02192 -0.06686,-0.0473 z m -0.839806,0.07093 c 0.0077,-0.200845 0.01566,-0.412493 0.01758,-0.470328 l 0.0035,-0.105153 -0.05671,-0.04061 c -0.08272,-0.05924 -0.771695,-0.493265 -0.780395,-0.491616 -0.002,3.84e-4 -0.0046,0.03187 -0.0056,0.06995 -0.0011,0.03809 -0.01149,0.317917 -0.02316,0.621841 -0.01939,0.505301 -0.03713,0.982119 -0.04605,1.237916 -0.0019,0.05513 -0.0025,0.100919 -0.0013,0.101743 0.0012,8.25e-4 0.01617,-0.0059 0.03321,-0.01482 0.01703,-0.009 0.154759,-0.08157 0.30607,-0.161288 0.15131,-0.07972 0.315956,-0.166981 0.365874,-0.193918 0.04992,-0.02694 0.108383,-0.05835 0.129895,-0.06985 l 0.03913,-0.02088 0.0019,-0.0489 c 0.0011,-0.0269 0.0083,-0.213229 0.01601,-0.414075 z m -0.318177,-3.222937 c -0.0081,0.223787 -0.05542,1.482114 -0.06936,1.842151 -0.0072,0.185988 -0.01529,0.371505 -0.01796,0.412262 -0.0027,0.04076 -0.0117,0.250929 -0.02,0.467054 -0.02626,0.682243 -0.02856,0.737255 -0.03093,0.740951 -0.0028,0.0044 -0.06154,-0.03209 -0.89335,-0.555587 -1.091393,-0.686857 -1.234416,-0.777629 -1.232753,-0.782387 0.0021,-0.0059 0.0703,-0.04254 0.572886,-0.307714 0.229421,-0.121026 0.419612,-0.222379 0.422657,-0.225202 0.0084,-0.0078 -0.02023,-0.02669 -0.458277,-0.303547 -0.219036,-0.138436 -0.406873,-0.257361 -0.417415,-0.264278 l -0.01917,-0.01257 0.05804,-0.03178 c 0.03192,-0.01747 0.486921,-0.258462 1.011098,-0.535537 0.524183,-0.277066 0.98566,-0.521251 1.025511,-0.542622 0.03986,-0.02135 0.07277,-0.038 0.07314,-0.03696 3.77e-4,10e-4 -0.0015,0.06213 -0.0041,0.135752 z m -0.148295,0.104358 c -0.0024,0.0011 -0.0025,0.0086 -4.35e-4,0.01654 0.0036,0.01354 0.004,0.01365 0.0062,0.0019 0.0027,-0.01442 4.95e-4,-0.0214 -0.0057,-0.0184 z m -0.02991,0.899343 c -10e-4,4.89e-4 -0.003,0.0061 -0.0044,0.01258 -0.0023,0.0106 -0.0021,0.01069 0.0027,9.54e-4 0.005,-0.01023 0.0057,-0.01546 0.0017,-0.01353 z m -0.08607,0.216836 c -0.03988,0.02132 -0.195941,0.103651 -0.346817,0.182946 -0.26018,0.136739 -0.362013,0.191737 -0.360613,0.194642 5.19e-4,0.0011 0.471685,0.297961 0.682183,0.42985 0.04862,0.03046 0.05899,0.035 0.06176,0.02704 0.0052,-0.0149 0.01047,-0.119235 0.02338,-0.461699 0.0066,-0.17417 0.01296,-0.335992 0.01417,-0.359602 0.0012,-0.02361 0.0014,-0.04496 3.37e-4,-0.04743 -0.0011,-0.0026 -0.03201,0.0116 -0.07439,0.03426 z m -0.358476,0.762758 c -0.170065,-0.107128 -0.349401,-0.219804 -0.398524,-0.25039 l -0.08931,-0.05561 -0.06352,0.0288 c -0.09266,0.04202 -0.813028,0.421675 -0.815951,0.430031 -6.86e-4,0.0019 0.02531,0.01989 0.05776,0.03986 0.03245,0.01998 0.269577,0.168913 0.526953,0.330976 0.427908,0.269441 0.831976,0.523211 1.04904,0.658839 0.04678,0.02923 0.08615,0.05262 0.08748,0.05196 0.0013,-6.48e-4 0.003,-0.01694 0.0038,-0.03617 7.39e-4,-0.01924 0.0067,-0.174809 0.01336,-0.34571 0.0066,-0.170899 0.01337,-0.357116 0.015,-0.413815 0.0016,-0.0567 0.0037,-0.123036 0.0045,-0.147418 l 0.0015,-0.04433 -0.04138,-0.02613 c -0.02276,-0.01437 -0.180526,-0.113777 -0.350593,-0.220905 z m -2.950234,-1.335918 c 0.189778,0.118868 1.255838,0.789052 1.560668,0.981145 0.15747,0.09923 0.314089,0.198993 0.34805,0.221683 0.03395,0.02271 0.211461,0.135599 0.39448,0.25085 0.577709,0.363866 0.6242,0.393364 0.626218,0.397261 0.0024,0.0047 -0.05856,0.03725 -0.927827,0.49587 -1.140533,0.601744 -1.290655,0.680221 -1.293942,0.676405 -0.0041,-0.0047 -0.0017,-0.08215 0.01995,-0.649991 0.0099,-0.259199 0.01722,-0.474584 0.01631,-0.478633 -0.0025,-0.01114 -0.03322,0.0042 -0.492018,0.245107 -0.229408,0.120472 -0.426322,0.223673 -0.437579,0.229353 l -0.02047,0.01032 0.0015,-0.06616 c 8.34e-4,-0.03638 0.01962,-0.550917 0.04176,-1.143405 0.02214,-0.592489 0.04141,-1.114232 0.04283,-1.159429 0.0014,-0.0452 0.0035,-0.08202 0.0046,-0.08182 0.0011,1.83e-4 0.05307,0.03233 0.115508,0.07144 z m 0.01623,0.180605 c -2.18e-4,0.0026 0.0062,0.0065 0.0141,0.0086 0.01352,0.0036 0.01383,0.0034 0.0047,-0.0044 -0.01116,-0.0095 -0.01828,-0.01113 -0.01881,-0.0042 z m 0.763899,0.475574 c -8.9e-5,0.0011 0.0038,0.0057 0.0087,0.0101 0.008,0.0073 0.0082,0.0072 0.0022,-0.0019 -0.0063,-0.0095 -0.01055,-0.01265 -0.01088,-0.0082 z m 0.144753,0.182953 c -0.0015,0.04519 -0.0082,0.221515 -0.01497,0.391826 -0.01165,0.293692 -0.01497,0.40938 -0.01174,0.409621 0.0012,8.7e-5 0.493892,-0.259497 0.713352,-0.375862 0.05069,-0.02687 0.05981,-0.03358 0.05429,-0.03997 -0.01031,-0.01194 -0.09803,-0.06868 -0.388152,-0.251098 -0.147549,-0.09278 -0.2845,-0.179215 -0.304338,-0.192075 -0.01984,-0.01287 -0.03824,-0.02368 -0.04091,-0.02401 -0.0028,-3.87e-4 -0.006,0.03352 -0.0075,0.08156 z m 0.48133,0.691829 c -0.177808,0.09372 -0.365054,0.192695 -0.416102,0.219946 l -0.09283,0.04953 -0.0068,0.06941 c -0.0099,0.101253 -0.04133,0.914941 -0.03555,0.92165 0.0013,0.0016 0.02989,-0.01197 0.06341,-0.03008 0.03352,-0.01811 0.281078,-0.148992 0.550103,-0.290879 0.447302,-0.23585 0.869106,-0.458901 1.095092,-0.579075 0.04871,-0.0259 0.08865,-0.04829 0.08875,-0.04977 9.8e-5,-0.0015 -0.01316,-0.01108 -0.02944,-0.02135 -0.01629,-0.01026 -0.148019,-0.09324 -0.292716,-0.184421 -0.144695,-0.09118 -0.302587,-0.190135 -0.350874,-0.219898 -0.04829,-0.02976 -0.104723,-0.06469 -0.125442,-0.07756 l -0.03765,-0.02344 -0.04332,0.02277 c -0.02382,0.01253 -0.188804,0.09944 -0.366613,0.193156 z m -2.632056,1.887018 c 0.197832,-0.104918 1.311258,-0.693061 1.630031,-0.861006 0.16467,-0.08676 0.329377,-0.172512 0.366007,-0.190578 0.03664,-0.01804 0.223162,-0.115331 0.414483,-0.216204 0.603971,-0.318378 0.652762,-0.343892 0.657147,-0.343691 0.0052,2.3e-4 0.003,0.06934 -0.03448,1.051457 -0.04914,1.288602 -0.05624,1.457851 -0.06119,1.458789 -0.0061,0.0012 -0.072,-0.03961 -0.552931,-0.342277 -0.219531,-0.138159 -0.402391,-0.252208 -0.406354,-0.25344 -0.01089,-0.0034 -0.013,0.03086 -0.03374,0.548653 -0.01037,0.258909 -0.01944,0.481043 -0.02016,0.493631 l -0.0013,0.02289 -0.05654,-0.03438 c -0.03109,-0.01891 -0.467297,-0.292452 -0.969338,-0.607867 -0.502042,-0.315416 -0.944248,-0.59298 -0.982679,-0.616809 -0.03843,-0.02383 -0.06929,-0.04402 -0.06858,-0.04486 7.07e-4,-8.46e-4 0.05454,-0.02979 0.119621,-0.06431 z m 0.164523,0.07625 c 0.0022,0.0015 0.0087,-0.0021 0.01454,-0.0079 0.0099,-0.0099 0.0098,-0.01029 -0.0015,-0.0063 -0.01382,0.0049 -0.01878,0.01027 -0.01306,0.01417 z m 0.793809,-0.42377 c 9.22e-4,6.27e-4 0.0068,-4.78e-4 0.01309,-0.0025 0.01035,-0.0033 0.01031,-0.0035 -5.24e-4,-0.0028 -0.01138,7.58e-4 -0.01622,0.0028 -0.01256,0.0053 z m 0.230819,-0.03388 c 0.0384,0.02388 0.187727,0.117877 0.331844,0.208881 0.248517,0.15694 0.347047,0.217656 0.34887,0.214979 6.73e-4,-9.86e-4 0.0222,-0.557472 0.03117,-0.805712 0.0021,-0.05734 8.2e-4,-0.06858 -0.0075,-0.067 -0.0155,0.003 -0.108495,0.05055 -0.411533,0.210601 -0.154123,0.08139 -0.297456,0.156777 -0.318512,0.167527 -0.02106,0.01074 -0.03963,0.02127 -0.04124,0.02342 -0.0017,0.0023 0.02605,0.02192 0.06686,0.0473 z m 0.839806,-0.07093 c -0.0077,0.200845 -0.01566,0.412493 -0.01758,0.470327 l -0.0035,0.105154 0.05671,0.04061 c 0.08272,0.05924 0.771695,0.493265 0.780395,0.491615 0.002,-3.83e-4 0.0046,-0.03186 0.0056,-0.06995 0.0011,-0.03809 0.01149,-0.317917 0.02316,-0.621842 0.01939,-0.5053 0.03713,-0.982118 0.04605,-1.237915 0.0019,-0.05513 0.0025,-0.100919 0.0013,-0.101743 -0.0012,-8.25e-4 -0.01617,0.0059 -0.03321,0.01482 -0.01703,0.009 -0.15476,0.08157 -0.306071,0.161288 -0.15131,0.07972 -0.315956,0.166981 -0.365874,0.193918 -0.04992,0.02694 -0.108383,0.05835 -0.129895,0.06985 l -0.03913,0.02089 -0.0019,0.0489 c -0.0011,0.02689 -0.0083,0.213228 -0.01601,0.414075 z m 0.318177,3.222936 c 0.0081,-0.223786 0.05542,-1.482113 0.06936,-1.842151 0.0072,-0.185987 0.01529,-0.371505 0.01796,-0.412261 0.0027,-0.04075 0.0117,-0.250929 0.02,-0.467054 0.02626,-0.682244 0.02856,-0.737255 0.03093,-0.740951 0.0028,-0.0044 0.06154,0.03209 0.893349,0.555586 1.091393,0.686858 1.234416,0.77763 1.232753,0.782388 -0.0021,0.0059 -0.0703,0.04254 -0.572886,0.307714 -0.229421,0.121026 -0.419612,0.222378 -0.422657,0.225202 -0.0084,0.0078 0.02023,0.02669 0.458277,0.303546 0.219036,0.138437 0.406873,0.257362 0.417415,0.264279 l 0.01917,0.01257 -0.05804,0.03178 c -0.03192,0.01747 -0.486922,0.258463 -1.011099,0.535538 -0.524183,0.277066 -0.98566,0.521251 -1.02551,0.542622 -0.03986,0.02135 -0.07277,0.038 -0.07314,0.03696 -3.77e-4,-10e-4 0.0015,-0.06213 0.0041,-0.135752 z m 0.148295,-0.104357 c 0.0024,-0.0011 0.0025,-0.0086 4.35e-4,-0.01654 -0.0036,-0.01354 -0.004,-0.01365 -0.0062,-0.0019 -0.0027,0.01442 -4.94e-4,0.0214 0.0057,0.0184 z m 0.02991,-0.899343 c 10e-4,-4.9e-4 0.003,-0.0061 0.0044,-0.01258 0.0023,-0.0106 0.0021,-0.01069 -0.0027,-9.54e-4 -0.005,0.01023 -0.0057,0.01546 -0.0017,0.01353 z m 0.08607,-0.216837 c 0.03988,-0.02132 0.195941,-0.10365 0.346817,-0.182946 0.26018,-0.136738 0.362013,-0.191736 0.360613,-0.194641 -5.19e-4,-0.0011 -0.471685,-0.297961 -0.682182,-0.42985 -0.04862,-0.03046 -0.05899,-0.035 -0.06176,-0.02704 -0.0052,0.0149 -0.01047,0.119235 -0.02338,0.461698 -0.0066,0.174171 -0.01296,0.335993 -0.01417,0.359603 -0.0012,0.02361 -0.0014,0.04495 -3.37e-4,0.04743 0.0011,0.0026 0.03201,-0.0116 0.0744,-0.03426 z m 0.358476,-0.762757 c 0.170066,0.107127 0.349402,0.219804 0.398525,0.25039 l 0.08931,0.05561 0.06352,-0.0288 c 0.09266,-0.04202 0.813028,-0.421676 0.815951,-0.430032 6.86e-4,-0.0019 -0.02531,-0.01989 -0.05776,-0.03987 -0.03245,-0.01997 -0.269577,-0.168912 -0.526952,-0.330975 -0.427909,-0.269441 -0.831977,-0.523211 -1.049041,-0.658839 -0.04678,-0.02923 -0.08615,-0.05262 -0.08748,-0.05196 -0.0013,6.47e-4 -0.003,0.01693 -0.0038,0.03617 -7.39e-4,0.01924 -0.0067,0.174809 -0.01336,0.345709 -0.0066,0.170899 -0.01337,0.357116 -0.015,0.413815 -0.0016,0.0567 -0.0037,0.123037 -0.0045,0.147419 l -0.0015,0.04433 0.04138,0.02613 c 0.02276,0.01437 0.180526,0.113778 0.350593,0.220906 z m 2.950234,1.335918 c -0.189778,-0.118869 -1.255837,-0.789053 -1.560668,-0.981146 -0.15747,-0.09923 -0.314089,-0.198992 -0.34805,-0.221682 -0.03395,-0.02271 -0.21146,-0.135599 -0.394479,-0.250851 -0.577709,-0.363865 -0.624201,-0.393363 -0.626219,-0.39726 -0.0024,-0.0047 0.05856,-0.03725 0.927827,-0.49587 1.140533,-0.601744 1.290655,-0.680221 1.293942,-0.676405 0.0041,0.0047 0.0017,0.08215 -0.01995,0.649991 -0.0099,0.259198 -0.01722,0.474584 -0.01631,0.478633 0.0025,0.01114 0.03323,-0.0042 0.492017,-0.245107 0.229408,-0.120473 0.426323,-0.223673 0.437579,-0.229353 l 0.02047,-0.01032 -0.0015,0.06616 c -8.35e-4,0.03638 -0.01962,0.550918 -0.04176,1.143406 -0.02214,0.592489 -0.04141,1.114232 -0.04283,1.159429 -0.0014,0.0452 -0.0035,0.08202 -0.0046,0.08183 -0.0011,-1.84e-4 -0.05307,-0.03234 -0.115508,-0.07144 z m -0.01623,-0.180606 c 2.18e-4,-0.0026 -0.0062,-0.0065 -0.0141,-0.0086 -0.01352,-0.0036 -0.01383,-0.0034 -0.0047,0.0044 0.01115,0.0095 0.01828,0.01113 0.01881,0.0042 z m -0.763899,-0.475573 c 8.9e-5,-0.0011 -0.0038,-0.0057 -0.0087,-0.0101 -0.008,-0.0073 -0.0082,-0.0072 -0.0022,0.0019 0.0063,0.0095 0.01055,0.01264 0.01088,0.0082 z m -0.144753,-0.182954 c 0.0015,-0.04519 0.0082,-0.221514 0.01497,-0.391825 0.01166,-0.293692 0.01497,-0.40938 0.01174,-0.409621 -0.0012,-8.8e-5 -0.493892,0.259497 -0.713352,0.375862 -0.05069,0.02687 -0.05981,0.03358 -0.05429,0.03997 0.01031,0.01194 0.09803,0.06868 0.388152,0.251098 0.147549,0.09278 0.2845,0.179216 0.304338,0.192076 0.01984,0.01287 0.03824,0.02368 0.04091,0.02401 0.0028,3.87e-4 0.006,-0.03352 0.0075,-0.08156 z m -0.48133,-0.691828 c 0.177808,-0.09372 0.365054,-0.192695 0.416102,-0.219946 l 0.09283,-0.04953 0.0068,-0.06941 c 0.0099,-0.101252 0.04133,-0.91494 0.03555,-0.921649 -0.0013,-0.0016 -0.02989,0.01197 -0.06341,0.03008 -0.03352,0.01811 -0.281077,0.148992 -0.550102,0.290879 -0.447303,0.23585 -0.869106,0.458901 -1.095092,0.579075 -0.04871,0.0259 -0.08865,0.04829 -0.08875,0.04977 -9.8e-5,0.0015 0.01316,0.01108 0.02944,0.02135 0.0163,0.01026 0.148019,0.09324 0.292716,0.18442 0.144695,0.09118 0.302587,0.190136 0.350874,0.219898 0.04829,0.02976 0.104723,0.06469 0.125442,0.07756 l 0.03765,0.02345 0.04332,-0.02277 c 0.02382,-0.01253 0.188804,-0.09944 0.366613,-0.193155 z"
       copytype="repeated"
       prop_scale="0.19"
       scale_y_rel="false"
       spacing="0"
       normal_offset="0"
       tang_offset="0"
       prop_units="false"
       vertical_pattern="false"
       hide_knot="false"
       fuse_tolerance="0" />
    <inkscape:path-effect
       effect="copy_rotate"
       starting_point="76.010502,31.30025"
       origin="70.882173,31.30025"
       id="path-effect6714-4-8-3-4"
       is_visible="true"
       lpeversion="1"
       method="normal"
       num_copies="6"
       starting_angle="0"
       rotation_angle="60"
       gap="-0.01"
       copies_to_360="true"
       mirror_copies="false"
       split_items="false" />
    <linearGradient
       inkscape:collect="always"
       xlink:href="#linearGradient5784"
       id="linearGradient20005"
       gradientUnits="userSpaceOnUse"
       gradientTransform="translate(2.7543857,5.4735616)"
       x1="1.0522772"
       y1="2.3927163"
       x2="9.908233"
       y2="2.3927163" />
    <linearGradient
       inkscape:collect="always"
       xlink:href="#linearGradient5784"
       id="linearGradient21973"
       gradientUnits="userSpaceOnUse"
       gradientTransform="matrix(3.7795276,0,0,3.7795276,10.631247,22.808797)"
       x1="1.0522772"
       y1="2.3927163"
       x2="9.908233"
       y2="2.3927163" />
  </defs>
  <g
     inkscape:groupmode="layer"
     id="layer16"
     inkscape:label="noto music text"
     style="display:none"
     sodipodi:insensitive="true">
    <g
       aria-label="decentral"
       id="text12154"
       style="font-size:3.52778px;letter-spacing:0px;word-spacing:0px;opacity:1;fill:#fff8e0;fill-opacity:1;stroke:none;stroke-width:0.01;stroke-miterlimit:4;stroke-dasharray:none;stroke-opacity:1"
       transform="translate(0.0584652,0.56126604)">
      <text
         xml:space="preserve"
         style="font-size:1.41111px;line-height:125%;font-family:sans-serif;letter-spacing:0px;word-spacing:0px;fill:url(#linearGradient20005);fill-opacity:1;stroke:#000000;stroke-width:0.264583px;stroke-linecap:butt;stroke-linejoin:miter;stroke-opacity:1"
         x="3.810797"
         y="8.2555733"
         id="text3278"><tspan
           sodipodi:role="line"
           id="tspan3276"
           style="font-style:normal;font-variant:normal;font-weight:normal;font-stretch:normal;font-family:'Noto Music';-inkscape-font-specification:'Noto Music';fill:url(#linearGradient20005);fill-opacity:1;stroke:none;stroke-width:0.264583px"
           x="3.810797"
           y="8.2555733">MUSI𝄞SCHUEL</tspan></text>
    </g>
  </g>
  <g
     inkscape:groupmode="layer"
     id="g20013"
     inkscape:label="noto music path bg round"
     style="display:none"
     sodipodi:insensitive="true">
    <g
       aria-label="decentral"
       id="g20011"
       style="font-size:3.52778px;letter-spacing:0px;word-spacing:0px;opacity:1;fill:#fff8e0;fill-opacity:1;stroke:none;stroke-width:0.01;stroke-miterlimit:4;stroke-dasharray:none;stroke-opacity:1"
       transform="translate(0.0584652,0.56126604)">
      <g
         aria-label="MUSI𝄞SCHUEL"
         id="text20009"
         style="font-size:1.41111px;fill:url(#linearGradient20005);stroke:#000000;stroke-width:0.264583px">
        <path
           id="path21711"
           style="-inkscape-font-specification:'Noto Music';fill:url(#linearGradient21973);stroke:#670002;stroke-width:0;stroke-linecap:round;stroke-miterlimit:4;stroke-dasharray:none;stroke-opacity:1"
           d="m 30.320312,26.234375 c -0.09185,-9.08e-4 -0.184883,0.05588 -0.261718,0.199219 -0.398538,0.512913 -0.49977,1.160025 -0.44336,1.794922 H 29.8125 c 0.0057,-0.09891 0.01816,-0.197503 0.03711,-0.294922 0.08069,-0.342935 0.196966,-0.774838 0.556641,-0.917969 0.428674,-0.03849 0.348146,0.559 0.244141,0.820313 -0.05401,0.130316 -0.111508,0.263079 -0.177735,0.392578 h 0.427735 c 0.09432,-0.526499 0.04287,-1.077227 -0.175782,-1.566407 -0.05698,-0.215179 -0.228941,-0.426001 -0.404298,-0.427734 z m 0.580079,1.994141 c -0.104632,0.584049 -0.387768,1.138211 -0.820313,1.542968 l 0.1875,0.896485 c 0.556753,-0.131399 1.094619,0.284419 1.267578,0.798828 0.239414,0.617108 -0.01182,1.426626 -0.654297,1.681641 -0.207564,0.163282 0.08327,0.601207 0.06836,0.875 0.04139,0.157664 0.06536,0.330158 0.05859,0.498046 0,0 16.465243,5.077726 21.542969,0 1.483267,-1.483267 1.483267,-4.809701 0,-6.292968 -5.103046,-5.103046 -21.65039,0 -21.65039,0 z m 0.107421,6.292968 h -0.193359 c -0.0042,0.05205 -0.0101,0.103869 -0.02148,0.15625 -0.08098,0.465061 -0.654014,0.747396 -1.066407,0.511719 -0.294443,-0.188096 0.08901,-0.09208 0.201172,-0.208984 0.160211,-0.104463 0.219825,-0.283474 0.201172,-0.458985 h -1.042968 c -0.01525,0.094 -0.0116,0.191601 0.01367,0.28125 0.153789,0.667284 1.09254,0.832067 1.578125,0.423828 0.227741,-0.174718 0.319159,-0.433931 0.330078,-0.705078 z m -1.921874,0 c 0.04357,-0.268609 0.243099,-0.512323 0.541015,-0.488281 0.282183,-0.01483 0.474692,0.231765 0.501953,0.488281 h 0.685547 c 0.03454,-0.426748 -0.149382,-0.842767 -0.210937,-1.261718 -0.967443,0.270125 -1.99817,-0.478162 -2.19336,-1.431641 -0.160234,-0.648661 0.08097,-1.320467 0.484375,-1.830078 0.261486,-0.341547 0.575505,-0.641689 0.876953,-0.947266 -0.07521,-0.263024 -0.131283,-0.541269 -0.15625,-0.822265 0,0 -11.982457,-3.695277 -15.677734,0 -1.483267,1.483267 -1.483267,4.809701 0,6.292968 3.570521,3.570521 15.148438,0 15.148438,0 z m 1.386718,-6.292968 H 29.8125 c -0.01362,0.234332 0.01205,0.468928 0.101562,0.689453 0.247715,-0.169894 0.421368,-0.421125 0.558594,-0.689453 z m 6.423828,1.232422 c 0.258537,-0.0078 0.520135,0.02575 0.767578,0.08789 0.09343,0.05362 0.361903,0.06218 0.335938,0.181641 -0.05706,0.120468 -0.112859,0.240855 -0.169922,0.361328 -0.272296,-0.11966 -0.564441,-0.215206 -0.865234,-0.208985 -0.406494,-0.01209 -0.822155,0.172612 -1.046875,0.519532 -0.282766,0.423272 -0.308514,0.961822 -0.234375,1.451172 0.06616,0.424937 0.307294,0.861822 0.732422,1.011718 0.471942,0.1678 0.987349,0.0789 1.455078,-0.05859 v 0.416015 c -0.441508,0.162898 -0.925747,0.188101 -1.388672,0.121094 -0.492426,-0.07332 -0.93621,-0.404379 -1.136719,-0.861328 -0.219616,-0.501781 -0.249941,-1.074888 -0.152344,-1.609375 0.09324,-0.500707 0.398323,-0.971649 0.859375,-1.205078 0.261943,-0.135239 0.550742,-0.198154 0.84375,-0.207031 z m -12.023437,0.002 c 0.367682,-0.0083 0.737807,0.06466 1.074219,0.21289 -0.04978,0.136891 -0.100615,0.273268 -0.150391,0.410157 -0.392271,-0.161485 -0.838818,-0.273186 -1.257813,-0.154297 -0.23574,0.06746 -0.403439,0.307335 -0.373046,0.552734 -0.0014,0.219866 0.149174,0.409406 0.339843,0.503906 0.420198,0.233613 0.927657,0.314337 1.283203,0.658203 0.175405,0.171591 0.25314,0.416392 0.248047,0.658204 0.01251,0.342413 -0.162581,0.684583 -0.46289,0.855468 -0.434533,0.261366 -0.970431,0.240469 -1.455078,0.173828 -0.160354,-0.03681 -0.368151,-0.05411 -0.486329,-0.15625 v -0.441406 c 0.450259,0.185046 0.957011,0.287894 1.439454,0.183594 0.265345,-0.05499 0.499745,-0.288893 0.484375,-0.572266 0.01139,-0.208745 -0.104137,-0.4083 -0.28711,-0.507812 -0.392143,-0.24974 -0.881953,-0.309461 -1.242187,-0.615235 -0.324013,-0.242318 -0.408227,-0.698127 -0.308594,-1.072265 0.115865,-0.392092 0.513858,-0.621159 0.900391,-0.669922 0.08417,-0.01062 0.169056,-0.01762 0.253906,-0.01953 z m 8.527344,0 c 0.367682,-0.0083 0.737807,0.06466 1.074218,0.21289 -0.04978,0.136891 -0.09866,0.273268 -0.148437,0.410157 -0.392272,-0.161485 -0.840771,-0.273186 -1.259766,-0.154297 -0.23574,0.06746 -0.401486,0.307335 -0.371094,0.552734 -0.0014,0.219866 0.149175,0.409406 0.339844,0.503906 0.420198,0.233613 0.927657,0.314337 1.283203,0.658203 0.175404,0.171591 0.251183,0.416393 0.246094,0.658204 0.01252,0.342412 -0.162581,0.684584 -0.462891,0.855468 -0.434533,0.261365 -0.968478,0.240469 -1.453124,0.173828 -0.160355,-0.03681 -0.370104,-0.05411 -0.488282,-0.15625 v -0.441406 c 0.450259,0.185046 0.95701,0.287894 1.439453,0.183594 0.265346,-0.05499 0.501699,-0.288893 0.486329,-0.572266 0.01139,-0.208745 -0.10609,-0.4083 -0.289063,-0.507812 -0.392144,-0.24974 -0.881953,-0.309461 -1.242187,-0.615235 -0.324014,-0.242318 -0.408227,-0.698127 -0.308594,-1.072265 0.115865,-0.392092 0.513858,-0.621159 0.90039,-0.669922 0.08417,-0.01062 0.169057,-0.01762 0.253907,-0.01953 z m -18.259766,0.05273 h 0.710937 l 1.171876,3.119141 c 0.0548,-0.01935 0.05551,-0.118003 0.08789,-0.169922 l 1.128906,-2.949219 h 0.703125 v 3.808594 H 18.46875 c 0.0028,-0.918102 -0.0065,-1.83785 0.0059,-2.75586 0.0052,-0.193247 0.02029,-0.385159 0.03125,-0.578125 -0.05476,0.01935 -0.05365,0.119922 -0.08594,0.171875 l -1.203125,3.16211 c -0.131554,0 -0.262977,-2e-6 -0.394531,0 l -1.253907,-3.339844 c -0.04097,0.115317 0.01788,0.330942 0.0059,0.482422 0.01799,0.85291 0.0062,1.707467 0.0098,2.560547 v 0.296875 h -0.443359 z m 4.800781,0 h 0.480469 c 0.0014,0.85149 -0.003,1.703257 0.002,2.554687 0.0062,0.326567 0.169479,0.675716 0.488281,0.800782 0.308009,0.119558 0.663175,0.122371 0.97461,0.01367 0.358594,-0.135243 0.521698,-0.544464 0.513672,-0.904297 V 29.515625 H 22.875 v 2.462891 c 0.0058,0.440284 -0.170907,0.910013 -0.552734,1.15625 -0.372983,0.251765 -0.849856,0.274571 -1.283204,0.214843 -0.40505,-0.05403 -0.784572,-0.305142 -0.953124,-0.683593 -0.18945,-0.380518 -0.136078,-0.81076 -0.144532,-1.220704 z m 6.560547,0 h 1.375 v 0.277344 c -0.149333,0.03557 -0.297932,0.07187 -0.447265,0.107422 v 3.044921 c 0.149332,0.03379 0.297931,0.06779 0.447265,0.101563 v 0.277344 h -1.375 v -0.277344 c 0.149333,-0.03379 0.297932,-0.06779 0.447266,-0.101563 v -3.044921 c -0.149333,-0.03557 -0.297932,-0.07187 -0.447266,-0.107422 z m 12.201172,0 h 0.480469 v 1.611328 h 1.953125 v -1.611328 h 0.478515 v 3.808594 h -0.478515 v -1.777344 h -1.953125 v 1.777344 h -0.480469 z m 3.916016,0 h 0.478515 c 0.0014,0.85149 -0.0011,1.703257 0.0039,2.554687 0.006,0.326563 0.169475,0.675715 0.488282,0.800782 0.307993,0.119558 0.663172,0.122371 0.974609,0.01367 0.358602,-0.135243 0.5217,-0.544463 0.513672,-0.904297 v -2.464844 h 0.474609 v 2.462891 0.002 c 0.0051,0.439733 -0.171457,0.908415 -0.552734,1.154297 -0.373002,0.251762 -0.849854,0.274571 -1.283203,0.214843 -0.405052,-0.05403 -0.786519,-0.305146 -0.955078,-0.683593 -0.189468,-0.380516 -0.13415,-0.810759 -0.142578,-1.220704 z m 3.935547,0 h 2.126953 V 29.9375 h -1.646485 v 1.189453 h 1.550782 v 0.416016 h -1.550782 v 1.359375 h 1.646485 v 0.421875 h -2.126953 z m 2.964843,0 H 50 v 3.380859 h 1.664062 v 0.427735 H 49.519531 Z M 29.935547,29.90434 c -0.606569,0.490788 -1.215071,1.154176 -1.199219,1.984375 0.0144,0.786651 0.838237,1.406725 1.59961,1.248047 0.279903,0.0322 0.229177,-0.157428 0.177734,-0.341797 L 30.21875,31.302734 c -0.432613,0.09992 -0.721851,0.654241 -0.449219,1.041016 0.05984,0.147124 0.580173,0.431866 0.152344,0.308594 -0.49791,-0.19667 -0.704877,-0.830966 -0.476563,-1.302735 0.08688,-0.32708 0.477898,-0.502912 0.634766,-0.697265 z m 0.556641,1.378906 c -0.08925,-4.49e-4 -0.138088,0.04717 -0.07031,0.189453 0.104451,0.519091 0.210006,1.03755 0.314453,1.556641 0.624786,-0.24788 0.7191,-1.257002 0.138672,-1.607422 -0.08557,-0.05822 -0.268069,-0.138094 -0.382812,-0.138672 z"
           transform="matrix(0.26458333,0,0,0.26458333,-0.0584652,-0.56126604)"
           sodipodi:nodetypes="scccccccccscccccccaaccccccccccccccccccccaacccccscccccccccccccssccccccccccccccccsssccccccccccccccccssccccccccccccccccccccccccccccccccccccccccccccccccccccccccccccccccccccccccccccccccccccccccccccccccccccccccscccs" />
      </g>
    </g>
  </g>
  <g
     inkscape:groupmode="layer"
     id="g1831"
     inkscape:label="noto music path bg"
     style="display:none"
     sodipodi:insensitive="true">
    <g
       aria-label="decentral"
       id="g1829"
       style="font-size:3.52778px;letter-spacing:0px;word-spacing:0px;opacity:1;fill:#fff8e0;fill-opacity:1;stroke:none;stroke-width:0.01;stroke-miterlimit:4;stroke-dasharray:none;stroke-opacity:1"
       transform="translate(0.0584652,0.56126604)">
      <g
         aria-label="MUSI𝄞SCHUEL"
         id="g1827"
         style="font-size:1.41111px;fill:url(#linearGradient20005);stroke:#000000;stroke-width:0.264583px">
        <path
           id="path1825"
           style="-inkscape-font-specification:'Noto Music';fill:url(#linearGradient21973);stroke:#670002;stroke-width:0;stroke-linecap:round;stroke-miterlimit:4;stroke-dasharray:none;stroke-opacity:1"
           d="m 30.320312,26.234375 c -0.09185,-9.08e-4 -0.184883,0.05588 -0.261718,0.199219 -0.398538,0.512913 -0.49977,1.160025 -0.44336,1.794922 H 29.8125 c 0.0057,-0.09891 0.01816,-0.197503 0.03711,-0.294922 0.08069,-0.342935 0.196966,-0.774838 0.556641,-0.917969 0.428674,-0.03849 0.348146,0.559 0.244141,0.820313 -0.05401,0.130316 -0.111508,0.263079 -0.177735,0.392578 h 0.427735 c 0.09432,-0.526499 0.04287,-1.077227 -0.175782,-1.566407 -0.05698,-0.215179 -0.228941,-0.426001 -0.404298,-0.427734 z m 0.580079,1.994141 c -0.104632,0.584049 -0.387768,1.138211 -0.820313,1.542968 l 0.1875,0.896485 c 0.556753,-0.131399 1.094619,0.284419 1.267578,0.798828 0.239414,0.617108 -0.01182,1.426626 -0.654297,1.681641 -0.207564,0.163282 0.08327,0.601207 0.06836,0.875 0.04139,0.157664 0.06536,0.330158 0.05859,0.498046 h 21.542969 v -6.292968 z m 0.107421,6.292968 h -0.193359 c -0.0042,0.05205 -0.0101,0.103869 -0.02148,0.15625 -0.08098,0.465061 -0.654014,0.747396 -1.066407,0.511719 -0.294443,-0.188096 0.08901,-0.09208 0.201172,-0.208984 0.160211,-0.104463 0.219825,-0.283474 0.201172,-0.458985 h -1.042968 c -0.01525,0.094 -0.0116,0.191601 0.01367,0.28125 0.153789,0.667284 1.09254,0.832067 1.578125,0.423828 0.227741,-0.174718 0.319159,-0.433931 0.330078,-0.705078 z m -1.921874,0 c 0.04357,-0.268609 0.243099,-0.512323 0.541015,-0.488281 0.282183,-0.01483 0.474692,0.231765 0.501953,0.488281 h 0.685547 c 0.03454,-0.426748 -0.149382,-0.842767 -0.210937,-1.261718 -0.967443,0.270125 -1.99817,-0.478162 -2.19336,-1.431641 -0.160234,-0.648661 0.08097,-1.320467 0.484375,-1.830078 0.261486,-0.341547 0.575505,-0.641689 0.876953,-0.947266 -0.07521,-0.263024 -0.131283,-0.541269 -0.15625,-0.822265 H 13.9375 v 6.292968 z m 1.386718,-6.292968 H 29.8125 c -0.01362,0.234332 0.01205,0.468928 0.101562,0.689453 0.247715,-0.169894 0.421368,-0.421125 0.558594,-0.689453 z m 6.423828,1.232422 c 0.258537,-0.0078 0.520135,0.02575 0.767578,0.08789 0.09343,0.05362 0.361903,0.06218 0.335938,0.181641 -0.05706,0.120468 -0.112859,0.240855 -0.169922,0.361328 -0.272296,-0.11966 -0.564441,-0.215206 -0.865234,-0.208985 -0.406494,-0.01209 -0.822155,0.172612 -1.046875,0.519532 -0.282766,0.423272 -0.308514,0.961822 -0.234375,1.451172 0.06616,0.424937 0.307294,0.861822 0.732422,1.011718 0.471942,0.1678 0.987349,0.0789 1.455078,-0.05859 v 0.416015 c -0.441508,0.162898 -0.925747,0.188101 -1.388672,0.121094 -0.492426,-0.07332 -0.93621,-0.404379 -1.136719,-0.861328 -0.219616,-0.501781 -0.249941,-1.074888 -0.152344,-1.609375 0.09324,-0.500707 0.398323,-0.971649 0.859375,-1.205078 0.261943,-0.135239 0.550742,-0.198154 0.84375,-0.207031 z m -12.023437,0.002 c 0.367682,-0.0083 0.737807,0.06466 1.074219,0.21289 -0.04978,0.136891 -0.100615,0.273268 -0.150391,0.410157 -0.392271,-0.161485 -0.838818,-0.273186 -1.257813,-0.154297 -0.23574,0.06746 -0.403439,0.307335 -0.373046,0.552734 -0.0014,0.219866 0.149174,0.409406 0.339843,0.503906 0.420198,0.233613 0.927657,0.314337 1.283203,0.658203 0.175405,0.171591 0.25314,0.416392 0.248047,0.658204 0.01251,0.342413 -0.162581,0.684583 -0.46289,0.855468 -0.434533,0.261366 -0.970431,0.240469 -1.455078,0.173828 -0.160354,-0.03681 -0.368151,-0.05411 -0.486329,-0.15625 v -0.441406 c 0.450259,0.185046 0.957011,0.287894 1.439454,0.183594 0.265345,-0.05499 0.499745,-0.288893 0.484375,-0.572266 0.01139,-0.208745 -0.104137,-0.4083 -0.28711,-0.507812 -0.392143,-0.24974 -0.881953,-0.309461 -1.242187,-0.615235 -0.324013,-0.242318 -0.408227,-0.698127 -0.308594,-1.072265 0.115865,-0.392092 0.513858,-0.621159 0.900391,-0.669922 0.08417,-0.01062 0.169056,-0.01762 0.253906,-0.01953 z m 8.527344,0 c 0.367682,-0.0083 0.737807,0.06466 1.074218,0.21289 -0.04978,0.136891 -0.09866,0.273268 -0.148437,0.410157 -0.392272,-0.161485 -0.840771,-0.273186 -1.259766,-0.154297 -0.23574,0.06746 -0.401486,0.307335 -0.371094,0.552734 -0.0014,0.219866 0.149175,0.409406 0.339844,0.503906 0.420198,0.233613 0.927657,0.314337 1.283203,0.658203 0.175404,0.171591 0.251183,0.416393 0.246094,0.658204 0.01252,0.342412 -0.162581,0.684584 -0.462891,0.855468 -0.434533,0.261365 -0.968478,0.240469 -1.453124,0.173828 -0.160355,-0.03681 -0.370104,-0.05411 -0.488282,-0.15625 v -0.441406 c 0.450259,0.185046 0.95701,0.287894 1.439453,0.183594 0.265346,-0.05499 0.501699,-0.288893 0.486329,-0.572266 0.01139,-0.208745 -0.10609,-0.4083 -0.289063,-0.507812 -0.392144,-0.24974 -0.881953,-0.309461 -1.242187,-0.615235 -0.324014,-0.242318 -0.408227,-0.698127 -0.308594,-1.072265 0.115865,-0.392092 0.513858,-0.621159 0.90039,-0.669922 0.08417,-0.01062 0.169057,-0.01762 0.253907,-0.01953 z m -18.259766,0.05273 h 0.710937 l 1.171876,3.119141 c 0.0548,-0.01935 0.05551,-0.118003 0.08789,-0.169922 l 1.128906,-2.949219 h 0.703125 v 3.808594 H 18.46875 c 0.0028,-0.918102 -0.0065,-1.83785 0.0059,-2.75586 0.0052,-0.193247 0.02029,-0.385159 0.03125,-0.578125 -0.05476,0.01935 -0.05365,0.119922 -0.08594,0.171875 l -1.203125,3.16211 c -0.131554,0 -0.262977,-2e-6 -0.394531,0 l -1.253907,-3.339844 c -0.04097,0.115317 0.01788,0.330942 0.0059,0.482422 0.01799,0.85291 0.0062,1.707467 0.0098,2.560547 v 0.296875 h -0.443359 z m 4.800781,0 h 0.480469 c 0.0014,0.85149 -0.003,1.703257 0.002,2.554687 0.0062,0.326567 0.169479,0.675716 0.488281,0.800782 0.308009,0.119558 0.663175,0.122371 0.97461,0.01367 0.358594,-0.135243 0.521698,-0.544464 0.513672,-0.904297 V 29.515625 H 22.875 v 2.462891 c 0.0058,0.440284 -0.170907,0.910013 -0.552734,1.15625 -0.372983,0.251765 -0.849856,0.274571 -1.283204,0.214843 -0.40505,-0.05403 -0.784572,-0.305142 -0.953124,-0.683593 -0.18945,-0.380518 -0.136078,-0.81076 -0.144532,-1.220704 z m 6.560547,0 h 1.375 v 0.277344 c -0.149333,0.03557 -0.297932,0.07187 -0.447265,0.107422 v 3.044921 c 0.149332,0.03379 0.297931,0.06779 0.447265,0.101563 v 0.277344 h -1.375 v -0.277344 c 0.149333,-0.03379 0.297932,-0.06779 0.447266,-0.101563 v -3.044921 c -0.149333,-0.03557 -0.297932,-0.07187 -0.447266,-0.107422 z m 12.201172,0 h 0.480469 v 1.611328 h 1.953125 v -1.611328 h 0.478515 v 3.808594 h -0.478515 v -1.777344 h -1.953125 v 1.777344 h -0.480469 z m 3.916016,0 h 0.478515 c 0.0014,0.85149 -0.0011,1.703257 0.0039,2.554687 0.006,0.326563 0.169475,0.675715 0.488282,0.800782 0.307993,0.119558 0.663172,0.122371 0.974609,0.01367 0.358602,-0.135243 0.5217,-0.544463 0.513672,-0.904297 v -2.464844 h 0.474609 c 0,0.820682 0,1.642209 0,2.462891 0,0 0,0.002 0,0.002 0.0051,0.439733 -0.171457,0.908415 -0.552734,1.154297 -0.373002,0.251762 -0.849854,0.274571 -1.283203,0.214843 -0.405052,-0.05403 -0.786519,-0.305146 -0.955078,-0.683593 -0.189468,-0.380516 -0.13415,-0.810759 -0.142578,-1.220704 z m 3.935547,0 h 2.126953 V 29.9375 h -1.646485 v 1.189453 h 1.550782 v 0.416016 h -1.550782 v 1.359375 h 1.646485 v 0.421875 h -2.126953 z m 2.964843,0 H 50 v 3.380859 h 1.664062 v 0.427735 H 49.519531 Z M 29.935547,29.90434 c -0.606569,0.490788 -1.215071,1.154176 -1.199219,1.984375 0.0144,0.786651 0.838237,1.406725 1.59961,1.248047 0.279903,0.0322 0.229177,-0.157428 0.177734,-0.341797 L 30.21875,31.302734 c -0.432613,0.09992 -0.721851,0.654241 -0.449219,1.041016 0.05984,0.147124 0.580173,0.431866 0.152344,0.308594 -0.49791,-0.19667 -0.704877,-0.830966 -0.476563,-1.302735 0.08688,-0.32708 0.477898,-0.502912 0.634766,-0.697265 z m 0.556641,1.378906 c -0.08925,-4.49e-4 -0.138088,0.04717 -0.07031,0.189453 0.104451,0.519091 0.210006,1.03755 0.314453,1.556641 0.624786,-0.24788 0.7191,-1.257002 0.138672,-1.607422 -0.08557,-0.05822 -0.268069,-0.138094 -0.382812,-0.138672 z"
           transform="matrix(0.26458333,0,0,0.26458333,-0.0584652,-0.56126604)" />
      </g>
    </g>
  </g>
  <g
     inkscape:groupmode="layer"
     id="g3050"
     inkscape:label="times text"
     style="display:none"
     sodipodi:insensitive="true">
    <g
       aria-label="decentral"
       id="g3048"
       style="font-size:3.52778px;letter-spacing:0px;word-spacing:0px;opacity:1;fill:#fff8e0;fill-opacity:1;stroke:none;stroke-width:0.01;stroke-miterlimit:4;stroke-dasharray:none;stroke-opacity:1"
       transform="translate(1.3813821,3.0086618)">
      <text
         xml:space="preserve"
         style="font-size:1.41111px;line-height:125%;font-family:sans-serif;letter-spacing:0.396875px;word-spacing:0px;fill:none;stroke:#000000;stroke-width:0.264583px;stroke-linecap:butt;stroke-linejoin:miter;stroke-opacity:1"
         x="1.372003"
         y="5.8630195"
         id="text8176"><tspan
           sodipodi:role="line"
           id="tspan8174"
           style="font-style:normal;font-variant:normal;font-weight:normal;font-stretch:normal;font-family:Ramaraja;-inkscape-font-specification:Ramaraja;fill:#9d835d;fill-opacity:1;stroke:none;stroke-width:0.264583px"
           x="1.372003"
           y="5.8630195"
           dy="0"
           rotate="0 0 0 0 0 0 0 0 0 0 0 0">MUSI<tspan
   style="font-style:normal;font-variant:normal;font-weight:normal;font-stretch:normal;font-size:1.76389px;font-family:Ramaraja;-inkscape-font-specification:Ramaraja"
   id="tspan12770"
   rotate="0 0">𝄞</tspan>SCHUEL</tspan></text>
    </g>
  </g>
  <g
     inkscape:groupmode="layer"
     id="g20200"
     inkscape:label="times text border"
     style="display:none"
     sodipodi:insensitive="true">
    <g
       aria-label="decentral"
       id="g20198"
       style="font-size:3.52778px;letter-spacing:0px;word-spacing:0px;opacity:1;fill:#fff8e0;fill-opacity:1;stroke:none;stroke-width:0.01;stroke-miterlimit:4;stroke-dasharray:none;stroke-opacity:1"
       transform="translate(1.3813821,3.0086618)">
      <text
         xml:space="preserve"
         style="font-size:1.41111px;line-height:125%;font-family:sans-serif;letter-spacing:0.396875px;word-spacing:0px;fill:none;stroke:#000000;stroke-width:0.264583px;stroke-linecap:butt;stroke-linejoin:miter;stroke-opacity:1"
         x="1.372003"
         y="5.8630195"
         id="text20196"><tspan
           sodipodi:role="line"
           id="tspan20194"
           style="font-style:normal;font-variant:normal;font-weight:normal;font-stretch:normal;font-family:Ramaraja;-inkscape-font-specification:Ramaraja;fill:#9d835d;fill-opacity:1;stroke:none;stroke-width:0.264583px"
           x="1.372003"
           y="5.8630195"
           dy="0"
           rotate="0 0 0 0 0 0 0 0 0 0 0 0">MUSI<tspan
   style="font-style:normal;font-variant:normal;font-weight:normal;font-stretch:normal;font-size:1.76389px;font-family:Ramaraja;-inkscape-font-specification:Ramaraja"
   id="tspan20192"
   rotate="0 0">𝄞</tspan>SCHUEL</tspan></text>
    </g>
    <rect
       style="fill:none;fill-opacity:1;stroke:#9d835d;stroke-width:0.0806126;stroke-linecap:butt;stroke-linejoin:bevel;stroke-miterlimit:4;stroke-dasharray:none;stroke-opacity:1;paint-order:normal"
       id="rect20270"
       width="13.439937"
       height="1.5482516"
       x="2.3741477"
       y="7.6351647" />
  </g>
  <g
     inkscape:groupmode="layer"
     id="g22339"
     inkscape:label="times object border exclude"
     style="display:inline">
    <g
       aria-label="decentral"
       id="g22335"
       style="font-size:3.52778px;letter-spacing:0px;word-spacing:0px;opacity:1;fill:#fff8e0;fill-opacity:1;stroke:none;stroke-width:0.01;stroke-miterlimit:4;stroke-dasharray:none;stroke-opacity:1"
       transform="translate(1.3813821,3.0086618)">
      <g
         aria-label="MUSI𝄞SCHUEL"
         id="text22333"
         style="font-size:1.41111px;line-height:125%;letter-spacing:0.396875px;fill:none;stroke:#000000;stroke-width:0.264583px">
        <path
           id="path22360"
           style="font-family:Ramaraja;-inkscape-font-specification:Ramaraja;fill:#9d835d;stroke:none;stroke-width:0.999999px"
           d="m 30.304688,27.53125 c -0.146668,0 -0.294741,0.135139 -0.441407,0.40625 -0.136756,0.24865 -0.20951,0.555347 -0.21875,0.919922 h 0.242188 c 0.02711,-0.108984 0.06441,-0.213027 0.111328,-0.3125 0.111111,-0.235555 0.24625,-0.353516 0.40625,-0.353516 0.142221,0 0.212889,0.12079 0.212891,0.365235 0,0.0943 -0.01608,0.194703 -0.04688,0.300781 h 0.240235 c 4.08e-4,-0.01994 0,-0.04041 0,-0.06055 0,-0.191111 -0.02055,-0.368758 -0.06055,-0.533203 -0.03555,-0.16889 -0.07948,-0.304029 -0.132812,-0.40625 -0.05333,-0.102221 -0.108237,-0.182457 -0.166016,-0.240234 -0.05333,-0.05778 -0.102041,-0.08594 -0.146484,-0.08594 z m 0.505859,1.326172 c -0.0139,0.679766 -0.265994,1.244307 -0.753906,1.693359 l 0.173828,0.78711 c 0.07111,-0.01333 0.13558,-0.01953 0.193359,-0.01953 0.271111,0 0.500833,0.109811 0.6875,0.332032 0.186666,0.217779 0.279297,0.485226 0.279297,0.800781 0,0.524445 -0.240703,0.879739 -0.720703,1.066406 0.133334,0.466667 0.201172,0.848707 0.201172,1.146484 0,0.01539 -0.0013,0.02989 -0.002,0.04492 h 28.90039 v -5.851562 z m 0.05859,5.851562 h -0.173829 c -0.01055,0.09083 -0.03098,0.172193 -0.06445,0.242188 -0.04444,0.106666 -0.104132,0.183532 -0.179687,0.232422 -0.07556,0.04888 -0.149593,0.08182 -0.220703,0.09961 -0.06667,0.02222 -0.132553,0.03516 -0.199219,0.03516 -0.177778,0 -0.306719,-0.06305 -0.386719,-0.1875 0.311112,0 0.466797,-0.138506 0.466797,-0.414062 0,-0.0027 4e-5,-0.0051 0,-0.0078 h -0.908203 c -0.0045,0.02929 -0.0059,0.05792 -0.0059,0.08789 0,0.186666 0.08165,0.34572 0.246093,0.474609 0.164446,0.133335 0.357857,0.199219 0.580079,0.199219 0.235554,0 0.435164,-0.07545 0.599609,-0.226562 0.153701,-0.141239 0.236052,-0.320148 0.246094,-0.535157 z m -1.666016,0 c 0.01549,-0.101042 0.05804,-0.197987 0.126953,-0.291015 0.09333,-0.115556 0.205099,-0.173828 0.333984,-0.173828 0.133335,0 0.240313,0.04729 0.320313,0.140625 0.08261,0.09566 0.125161,0.20304 0.126953,0.324218 h 0.583984 c 0.0049,-0.04182 0.0078,-0.08462 0.0078,-0.130859 0,-0.09333 -0.0611,-0.430035 -0.185547,-1.007813 -0.09778,0.02667 -0.220522,0.04102 -0.367187,0.04102 -0.431112,0 -0.80217,-0.160469 -1.113282,-0.480469 -0.306667,-0.32 -0.460937,-0.702039 -0.460937,-1.146484 0,-0.155555 0.02533,-0.312656 0.07422,-0.472656 0.05333,-0.16 0.111607,-0.301875 0.173828,-0.421875 0.06667,-0.124445 0.162664,-0.260999 0.287109,-0.41211 0.12889,-0.155555 0.233915,-0.278298 0.31836,-0.367187 0.08889,-0.09333 0.211632,-0.217492 0.367187,-0.373047 -0.102224,-0.364444 -0.152344,-0.697777 -0.152344,-1 0,-0.02703 -6.69e-4,-0.05366 0,-0.08008 H 8.9726562 v 5.851562 z m 1.367187,-5.851562 h -0.683593 c -0.03708,0.149093 -0.05664,0.305762 -0.05664,0.472656 0,0.186666 0.03011,0.350502 0.08789,0.488281 0.168889,-0.102221 0.32599,-0.284651 0.472656,-0.546875 0.08289,-0.14628 0.142268,-0.285168 0.179687,-0.414062 z m -8.339843,1.529297 c 0.137481,0 0.266247,0.01452 0.384765,0.04297 0.123261,0.02844 0.256217,0.05749 0.398438,0.08594 0.01421,0.12326 0.02454,0.248956 0.0293,0.376953 0.0095,0.128 0.01784,0.264028 0.02734,0.40625 -0.01897,0.01897 -0.03769,0.02734 -0.05664,0.02734 h -0.07031 c -0.03793,-0.0047 -0.05971,-0.01618 -0.06445,-0.03516 -0.0095,-0.06637 -0.03126,-0.140111 -0.06445,-0.220704 -0.03318,-0.08059 -0.07676,-0.157405 -0.128906,-0.228515 -0.05215,-0.07111 -0.115554,-0.130327 -0.191406,-0.177735 -0.07111,-0.05215 -0.152114,-0.07812 -0.242188,-0.07812 -0.09482,0 -0.184199,0.02905 -0.269531,0.08594 -0.08533,0.05689 -0.126953,0.163868 -0.126953,0.320313 0,0.07111 0.01983,0.14178 0.0625,0.21289 0.04267,0.06637 0.09769,0.13285 0.164062,0.199219 0.07111,0.06163 0.144851,0.123918 0.220703,0.185547 0.08059,0.05689 0.155452,0.108842 0.226563,0.15625 0.07585,0.05215 0.155736,0.107173 0.236328,0.164062 0.08533,0.05215 0.160194,0.115554 0.226563,0.191406 0.06637,0.07111 0.121396,0.156305 0.164062,0.25586 0.04267,0.09482 0.06445,0.213248 0.06445,0.355469 0,0.128 -0.02905,0.246432 -0.08594,0.355468 -0.05689,0.104295 -0.13482,0.193679 -0.234375,0.269532 -0.09482,0.07585 -0.204867,0.135068 -0.328125,0.177734 -0.118519,0.04267 -0.241141,0.06445 -0.369141,0.06445 -0.137482,0 -0.286081,-0.01145 -0.447266,-0.03516 -0.156444,-0.02371 -0.306997,-0.05388 -0.449218,-0.0918 -0.0095,-0.05215 -0.02092,-0.117507 -0.03516,-0.193359 -0.0095,-0.07585 -0.02092,-0.150713 -0.03516,-0.226563 -0.0095,-0.08059 -0.0198,-0.154332 -0.0293,-0.220703 -0.0047,-0.07111 -0.0089,-0.123063 -0.01367,-0.15625 0.0095,-0.01421 0.03126,-0.02873 0.06445,-0.04297 0.03793,-0.01421 0.06083,-0.02148 0.07031,-0.02148 0.03793,0 0.05971,0.01145 0.06445,0.03516 0.0095,0.06637 0.03545,0.143184 0.07813,0.228516 0.04267,0.08533 0.09769,0.167454 0.164063,0.248047 0.06637,0.07585 0.14123,0.142331 0.226562,0.199218 0.09007,0.05215 0.186718,0.07813 0.291016,0.07813 0.12326,0 0.230239,-0.03324 0.320312,-0.09961 0.09007,-0.07111 0.134766,-0.189542 0.134766,-0.355469 0,-0.08533 -0.02598,-0.163264 -0.07813,-0.234375 -0.04741,-0.07585 -0.107744,-0.146522 -0.183594,-0.21289 -0.07111,-0.06637 -0.147923,-0.125587 -0.228515,-0.177735 -0.08059,-0.05215 -0.148189,-0.09991 -0.205079,-0.142578 L 21.65625,31.988281 c -0.08059,-0.05689 -0.154332,-0.122249 -0.220703,-0.193359 -0.06163,-0.07111 -0.112464,-0.150161 -0.150391,-0.240234 -0.03793,-0.09007 -0.05664,-0.197053 -0.05664,-0.320313 0,-0.118518 0.02905,-0.229687 0.08594,-0.333984 0.06163,-0.104295 0.139559,-0.195632 0.234375,-0.271485 0.09482,-0.07585 0.201794,-0.135068 0.320313,-0.177734 0.118518,-0.04267 0.23807,-0.06445 0.361328,-0.06445 z m 12.238281,0 c 0.137482,0 0.266247,0.01452 0.384766,0.04297 0.12326,0.02844 0.254263,0.05749 0.396484,0.08594 0.01421,0.12326 0.02454,0.248956 0.0293,0.376953 0.0095,0.128 0.0198,0.264028 0.0293,0.40625 -0.01897,0.01897 -0.03964,0.02734 -0.05859,0.02734 h -0.07031 c -0.03793,-0.0047 -0.05971,-0.01618 -0.06445,-0.03516 -0.0095,-0.06637 -0.02931,-0.140111 -0.0625,-0.220704 -0.03318,-0.08059 -0.07676,-0.157405 -0.128906,-0.228515 -0.05215,-0.07111 -0.115554,-0.130327 -0.191406,-0.177735 -0.07111,-0.05215 -0.152114,-0.07812 -0.242188,-0.07812 -0.09482,0 -0.184199,0.02905 -0.269531,0.08594 -0.08533,0.05689 -0.128906,0.163868 -0.128906,0.320313 0,0.07111 0.02179,0.14178 0.06445,0.21289 0.04267,0.06637 0.09769,0.13285 0.164062,0.199219 0.07111,0.06163 0.142898,0.123918 0.21875,0.185547 0.08059,0.05689 0.157406,0.108842 0.228516,0.15625 0.07585,0.05215 0.153783,0.107173 0.234375,0.164062 0.08533,0.05215 0.162147,0.115554 0.228516,0.191406 0.06637,0.07111 0.119443,0.156305 0.162109,0.25586 0.04267,0.09482 0.06445,0.213248 0.06445,0.355469 0,0.128 -0.02905,0.246432 -0.08594,0.355468 -0.05689,0.104295 -0.13482,0.193679 -0.234375,0.269532 -0.09482,0.07585 -0.202914,0.135068 -0.326172,0.177734 -0.118519,0.04267 -0.243094,0.06445 -0.371094,0.06445 -0.137481,0 -0.28608,-0.01145 -0.447265,-0.03516 -0.156445,-0.02371 -0.305045,-0.05388 -0.447266,-0.0918 -0.0095,-0.05215 -0.02287,-0.117507 -0.03711,-0.193359 -0.0095,-0.07585 -0.02092,-0.150713 -0.03516,-0.226563 -0.0095,-0.08059 -0.01784,-0.154332 -0.02734,-0.220703 -0.0047,-0.07111 -0.01089,-0.123063 -0.01562,-0.15625 0.0095,-0.01421 0.03126,-0.02873 0.06445,-0.04297 0.03793,-0.01421 0.06278,-0.02148 0.07227,-0.02148 0.03793,0 0.05776,0.01145 0.0625,0.03516 0.0095,0.06637 0.03545,0.143184 0.07813,0.228516 0.04267,0.08533 0.09769,0.167454 0.164063,0.248047 0.06637,0.07585 0.143184,0.142331 0.228515,0.199218 0.09007,0.05215 0.186719,0.07813 0.291016,0.07813 0.12326,0 0.230239,-0.03324 0.320313,-0.09961 0.09007,-0.07111 0.134765,-0.189542 0.134765,-0.355469 0,-0.08533 -0.02598,-0.163264 -0.07813,-0.234375 -0.04741,-0.07585 -0.109694,-0.146522 -0.185547,-0.21289 -0.07111,-0.06637 -0.14597,-0.125587 -0.226562,-0.177735 -0.08059,-0.05215 -0.150142,-0.09991 -0.207031,-0.142578 l -0.25586,-0.169922 c -0.08059,-0.05689 -0.154332,-0.122249 -0.220703,-0.193359 -0.06163,-0.07111 -0.110511,-0.150161 -0.148437,-0.240234 -0.03793,-0.09007 -0.05664,-0.197053 -0.05664,-0.320313 0,-0.118518 0.0271,-0.229687 0.08398,-0.333984 0.06163,-0.104295 0.13956,-0.195632 0.234375,-0.271485 0.09482,-0.07585 0.201794,-0.135068 0.320313,-0.177734 0.118518,-0.04267 0.240023,-0.06445 0.363281,-0.06445 z m 4.232422,0.01563 c 0.01383,-3.34e-4 0.02709,0 0.04102,0 0.156444,0 0.323758,0.0073 0.503906,0.02148 0.180147,0.01421 0.33908,0.03404 0.476562,0.0625 0,0.01421 0.0073,0.05778 0.02148,0.128906 0.01897,0.07111 0.03769,0.145971 0.05664,0.226563 0.01897,0.08059 0.03657,0.157405 0.05078,0.228515 0.01897,0.07111 0.02734,0.114683 0.02734,0.128907 0,0.01421 -0.01257,0.02986 -0.04102,0.04883 -0.02371,0.01421 -0.04969,0.02148 -0.07813,0.02148 -0.03318,0 -0.05497,-0.0073 -0.06445,-0.02148 -0.01421,-0.04267 -0.03907,-0.09881 -0.07227,-0.169922 -0.03318,-0.07585 -0.08514,-0.149593 -0.15625,-0.220703 -0.06637,-0.07111 -0.155755,-0.130327 -0.269531,-0.177734 -0.109037,-0.05215 -0.246184,-0.07813 -0.41211,-0.07813 -0.165926,1e-6 -0.309216,0.03436 -0.427734,0.105469 -0.113779,0.07111 -0.206233,0.166638 -0.277344,0.285157 -0.07111,0.118518 -0.123066,0.255665 -0.15625,0.412109 -0.03318,0.151703 -0.04883,0.310636 -0.04883,0.476562 0,0.18489 0.01871,0.365609 0.05664,0.541016 0.03793,0.175408 0.09714,0.334341 0.177734,0.476563 0.08533,0.137481 0.189242,0.24865 0.3125,0.333984 0.128,0.08533 0.282743,0.126953 0.462891,0.126953 0.137481,0 0.24977,-0.01871 0.339843,-0.05664 0.09482,-0.03793 0.1747,-0.08681 0.236329,-0.148437 0.04741,-0.04267 0.08903,-0.09462 0.126953,-0.15625 0.04266,-0.06637 0.07898,-0.12866 0.107421,-0.185547 0.02844,-0.06163 0.05023,-0.113582 0.06445,-0.15625 0.01897,-0.04741 0.03042,-0.07646 0.03516,-0.08594 0.03793,0 0.06809,0.0073 0.0918,0.02148 0.02324,0.0093 0.04709,0.0213 0.07031,0.03516 0,0.01421 -0.0053,0.06086 -0.01953,0.136719 -0.01421,0.07111 -0.03181,0.149041 -0.05078,0.234375 -0.01897,0.08533 -0.04076,0.163264 -0.06445,0.234375 -0.01897,0.07111 -0.03769,0.108539 -0.05664,0.113281 -0.151703,0.05215 -0.307564,0.102983 -0.46875,0.150391 -0.156445,0.04741 -0.344427,0.07031 -0.5625,0.07031 -0.222816,0 -0.430631,-0.03743 -0.625,-0.113281 -0.194383,-0.08059 -0.364756,-0.190644 -0.511719,-0.328125 -0.146963,-0.137481 -0.264276,-0.300605 -0.349609,-0.490234 -0.08533,-0.18963 -0.126953,-0.396326 -0.126953,-0.619141 0,-0.227555 0.04162,-0.438442 0.126953,-0.632813 0.08533,-0.194371 0.202646,-0.364756 0.349609,-0.511718 0.146963,-0.146963 0.317349,-0.261205 0.511719,-0.341797 0.186666,-0.08 0.384297,-0.121953 0.591797,-0.126953 z m 14.685547,0.01367 c 0.02252,-2.96e-4 0.04277,0 0.06055,0 0.0189,0.118518 0.03874,0.23695 0.0625,0.355468 0.02369,0.118519 0.04853,0.229687 0.07227,0.333985 -0.0096,0.0095 -0.02717,0.01675 -0.05078,0.02148 -0.0189,0.0047 -0.03762,0.0078 -0.05664,0.0078 -0.01411,0 -0.02863,-0.0031 -0.04297,-0.0078 -0.01411,-0.0095 -0.02256,-0.02092 -0.02734,-0.03516 -0.05216,-0.128 -0.114441,-0.238051 -0.185547,-0.328125 -0.07111,-0.09482 -0.179199,-0.140625 -0.326172,-0.140625 H 52.50782 c -0.05689,0 -0.108854,0.0011 -0.15625,0.0059 -0.04266,0.0047 -0.06863,0.02233 -0.07812,0.05078 -0.01411,0.02844 -0.02451,0.06587 -0.0293,0.113281 v 0.169922 0.839843 c 0,0.01421 0.02179,0.02566 0.06445,0.03516 0.04266,0.0095 0.09042,0.01563 0.142578,0.01563 h 0.248047 c 0.07111,0 0.129191,-0.0062 0.171875,-0.01563 0.04266,-0.0095 0.07702,-0.02512 0.105468,-0.04883 0.03318,-0.02371 0.05915,-0.05695 0.07813,-0.09961 0.0189,-0.04267 0.03762,-0.09769 0.05664,-0.164062 0,-0.02371 0.02067,-0.03516 0.05859,-0.03516 0.01411,0 0.02668,0.0011 0.04102,0.0059 0.0189,0 0.03342,0.0062 0.04297,0.01563 v 0.902343 c -0.01411,0.01421 -0.0412,0.02148 -0.08398,0.02148 -0.03792,0 -0.05972,-0.01452 -0.06445,-0.04297 -0.02845,-0.109037 -0.05749,-0.179706 -0.08594,-0.21289 -0.02845,-0.03793 -0.05441,-0.06083 -0.07813,-0.07031 -0.06163,-0.02371 -0.180073,-0.03711 -0.355468,-0.03711 -0.06637,0 -0.140099,0.0062 -0.220704,0.01563 -0.0806,0.0095 -0.121093,0.02819 -0.121093,0.05664 v 0.72461 0.05664 0.107422 l 0.01563,0.113281 c 0.0096,0.03793 0.01802,0.06809 0.02734,0.0918 0.01411,0.03318 0.05155,0.05804 0.113282,0.07227 0.06163,0.01421 0.12699,0.02148 0.193359,0.02148 h 0.304688 c 0.189631,0 0.33404,-0.05083 0.433593,-0.15039 0.09482,-0.09482 0.180017,-0.243415 0.25586,-0.447266 0.0048,-0.01897 0.02658,-0.0293 0.06445,-0.0293 0.02369,0 0.04965,0.0031 0.07813,0.0078 0.03318,0.0047 0.05498,0.01201 0.06445,0.02148 -0.02369,0.06163 -0.0466,0.131179 -0.07031,0.207031 -0.02369,0.07111 -0.05161,0.14178 -0.08008,0.212891 -0.02369,0.07111 -0.04353,0.138707 -0.0625,0.205078 -0.0189,0.06637 -0.03342,0.125587 -0.04297,0.177734 H 53.310547 52.898438 52.394531 51.882812 51.46875 c -0.118526,0.0047 -0.190328,0.0078 -0.21875,0.0078 -0.0096,-0.01421 -0.01563,-0.04326 -0.01563,-0.08594 0,-0.04266 0.0061,-0.06976 0.01563,-0.08398 0.01411,0 0.03703,-0.0031 0.07031,-0.0078 0.03318,-0.0047 0.06335,-0.0089 0.0918,-0.01367 0.03318,-0.0047 0.06223,-0.01201 0.08594,-0.02148 0.02845,-0.01421 0.04717,-0.02873 0.05664,-0.04297 0.0189,-0.04741 0.0293,-0.106623 0.0293,-0.177734 0.0048,-0.07111 0.0059,-0.159374 0.0059,-0.263672 v -1.728515 c 0,-0.09956 -0.0011,-0.184749 -0.0059,-0.25586 0,-0.07111 -0.0104,-0.131446 -0.0293,-0.183593 -0.0096,-0.01421 -0.02829,-0.02566 -0.05664,-0.03516 -0.02369,-0.0095 -0.05273,-0.01675 -0.08594,-0.02148 -0.02845,-0.0047 -0.05861,-0.0078 -0.0918,-0.0078 -0.03318,-0.0047 -0.0561,-0.0078 -0.07031,-0.0078 -0.0096,-0.01897 -0.01563,-0.04914 -0.01563,-0.0918 0,-0.04267 0.0061,-0.07171 0.01563,-0.08594 0.109027,0.0095 0.221318,0.01563 0.339844,0.01562 h 0.333984 0.277344 c 0.142211,-0.0047 0.293881,-0.01089 0.455078,-0.01562 0.161184,-0.0047 0.315927,-0.0059 0.462891,-0.0059 0.11023,-0.0036 0.200023,-0.0069 0.267578,-0.0078 z m -42.695313,0.0078 c 0.109037,0.0047 0.194231,0.01201 0.25586,0.02148 0.06163,0.0047 0.146822,0.0059 0.255859,0.0059 0.08059,0 0.158522,-0.0011 0.234375,-0.0059 0.07585,-0.0095 0.161046,-0.01675 0.255859,-0.02148 l 0.888672,1.990234 0.01563,0.0078 c 0.01421,0 0.01953,-0.01032 0.01953,-0.0293 l 0.199218,-0.498047 c 0.05689,-0.142221 0.116106,-0.29501 0.177735,-0.460937 0.06637,-0.165927 0.125587,-0.320669 0.177734,-0.462891 0.01897,-0.05215 0.03964,-0.10829 0.05859,-0.169922 0.01897,-0.06163 0.03462,-0.119727 0.04883,-0.171875 0.01897,-0.06163 0.03657,-0.121962 0.05078,-0.183594 h 0.05664 c 0.03318,1e-6 0.06754,0.0011 0.105469,0.0059 h 0.121093 0.0918 c 0.08059,0 0.190644,-0.0011 0.328125,-0.0059 0.137482,-0.0095 0.252843,-0.01675 0.347656,-0.02148 0.0095,0.0095 0.01675,0.03657 0.02149,0.08398 0.0095,0.04267 0.0095,0.07479 0,0.09375 -0.02371,0 -0.06533,0.0042 -0.126953,0.01367 -0.05689,0.0095 -0.09739,0.02092 -0.121094,0.03516 -0.02371,0.01897 -0.04242,0.04076 -0.05664,0.06445 -0.0095,0.02371 -0.01255,0.06533 -0.0078,0.126953 0.0047,0.08533 0.0089,0.209909 0.01367,0.371094 0.0047,0.156444 0.01089,0.329902 0.01563,0.519531 0.0095,0.189629 0.01675,0.381801 0.02148,0.576172 0.0047,0.189629 0.01006,0.360014 0.01953,0.511718 0.0047,0.09007 0.01089,0.175268 0.01563,0.25586 0.0095,0.08059 0.02512,0.151262 0.04883,0.21289 0.0047,0.01897 0.02233,0.0335 0.05078,0.04297 0.02844,0.0095 0.05861,0.01785 0.0918,0.02734 0.03318,0.0047 0.06335,0.01089 0.0918,0.01563 h 0.05664 c 0.0095,0.02371 0.01563,0.05388 0.01563,0.0918 0.0047,0.03318 0.0017,0.06223 -0.0078,0.08594 -0.09482,-0.0095 -0.198724,-0.0198 -0.3125,-0.0293 -0.109037,-0.0095 -0.216016,-0.01367 -0.320313,-0.01367 -0.109037,0 -0.231659,0.0042 -0.369141,0.01367 -0.137481,0.0095 -0.262057,0.0198 -0.371093,0.0293 -0.0095,-0.0095 -0.0148,-0.03545 -0.01953,-0.07813 0,-0.04266 0.0042,-0.0759 0.01367,-0.09961 h 0.06445 l 0.09961,-0.01563 c 0.03793,-0.0095 0.07116,-0.01785 0.09961,-0.02734 0.03318,-0.01421 0.05302,-0.02873 0.0625,-0.04297 0.0095,-0.02371 0.01675,-0.04969 0.02149,-0.07812 0.0095,-0.03318 0.01367,-0.06223 0.01367,-0.08594 V 32.833959 L 13.464893,31.3906 c 0,-0.01897 -0.0031,-0.04495 -0.0078,-0.07813 0,-0.03793 -0.0031,-0.07424 -0.0078,-0.107422 0,-0.03318 -0.0011,-0.06223 -0.0059,-0.08594 -0.0047,-0.02844 -0.01201,-0.04102 -0.02148,-0.04102 -0.0095,0 -0.01675,0.0084 -0.02148,0.02734 l -0.824219,2.240234 c -0.0047,0.0095 -0.01506,0.02707 -0.0293,0.05078 -0.01421,0.01897 -0.02985,0.03881 -0.04883,0.0625 -0.01897,0.01897 -0.04076,0.03769 -0.06445,0.05664 -0.01897,0.01421 -0.03769,0.02148 -0.05664,0.02148 -0.01897,0 -0.0335,-0.0011 -0.04297,-0.0059 L 11.28125,31.078125 c -0.0095,0.241779 -0.01675,0.438141 -0.02148,0.589844 0,0.151702 -0.0031,0.288849 -0.0078,0.412109 -0.0047,0.118519 -0.0089,0.240021 -0.01367,0.363281 -0.0047,0.123261 -0.0089,0.27605 -0.01367,0.460938 -0.0047,0.05215 -0.0047,0.114434 0,0.185547 0.0047,0.07111 0.0089,0.115802 0.01367,0.134765 0.0047,0.02371 0.02959,0.0455 0.07227,0.06445 0.04267,0.01897 0.08736,0.03462 0.134765,0.04883 0.04741,0.0095 0.08903,0.0198 0.126954,0.0293 0.04266,0.0047 0.06864,0.0078 0.07813,0.0078 0.0095,0.01897 0.01563,0.04607 0.01563,0.08398 0.0047,0.03793 0.0017,0.07005 -0.0078,0.09375 -0.09482,-0.0095 -0.190343,-0.0198 -0.285156,-0.0293 -0.09482,-0.0095 -0.194533,-0.01367 -0.298828,-0.01367 -0.109037,0 -0.205682,0.0042 -0.291016,0.01367 -0.08533,0.0095 -0.181979,0.0198 -0.291015,0.0293 -0.0095,-0.01897 -0.01675,-0.04495 -0.02149,-0.07813 0,-0.03793 0.0042,-0.07005 0.01367,-0.09375 0.01421,0 0.04019,-0.0011 0.07813,-0.0059 0.03793,-0.0095 0.07843,-0.02287 0.121094,-0.03711 0.04267,-0.01421 0.08317,-0.02985 0.121094,-0.04883 0.03793,-0.02371 0.0639,-0.04969 0.07812,-0.07812 0.0047,-0.0095 0.0089,-0.03238 0.01367,-0.07031 0.0095,-0.03793 0.01675,-0.07843 0.02149,-0.121094 l 0.01563,-0.128906 c 0.0047,-0.04267 0.0059,-0.07283 0.0059,-0.0918 0.0047,-0.137481 0.01201,-0.307867 0.02149,-0.511719 0.0095,-0.203852 0.01675,-0.406358 0.02148,-0.605468 0.0095,-0.203853 0.01675,-0.385691 0.02148,-0.546875 0.0095,-0.161185 0.01367,-0.271236 0.01367,-0.328125 0,-0.01897 -0.0011,-0.03462 -0.0059,-0.04883 0,-0.01897 -0.0062,-0.03769 -0.01563,-0.05664 -0.0095,-0.01421 -0.02819,-0.02761 -0.05664,-0.03711 -0.02371,-0.01421 -0.05276,-0.02566 -0.08594,-0.03516 -0.02845,-0.0095 -0.05861,-0.01675 -0.0918,-0.02148 -0.02844,-0.0047 -0.05135,-0.0059 -0.07031,-0.0059 -0.01421,-0.02371 -0.02036,-0.05695 -0.01563,-0.09961 0.0047,-0.04741 0.01089,-0.07339 0.01563,-0.07813 z m 5.453125,0 c 0.09482,0.0095 0.205985,0.01785 0.333985,0.02734 0.128,0.0047 0.242241,0.0078 0.341796,0.0078 0.09482,0 0.202914,-0.0031 0.326172,-0.0078 0.128,-0.0095 0.241122,-0.01785 0.335938,-0.02734 0.0095,0.01421 0.01367,0.04131 0.01367,0.08398 0,0.04267 -0.0042,0.07479 -0.01367,0.09375 -0.01421,1e-6 -0.03907,0.0011 -0.07227,0.0059 -0.03318,0 -0.06642,0.0062 -0.09961,0.01563 -0.02845,0.0047 -0.05554,0.01201 -0.08398,0.02148 -0.02844,0.0095 -0.04604,0.02092 -0.05078,0.03516 -0.01897,0.05215 -0.03042,0.112483 -0.03516,0.183593 v 0.25586 0.861328 c 0,0.161184 0.0042,0.305593 0.01367,0.433593 0.01421,0.123261 0.05052,0.245883 0.107422,0.369141 0.04267,0.104295 0.09462,0.188369 0.15625,0.25 0.06637,0.05689 0.13285,0.101581 0.199219,0.134766 0.06637,0.02844 0.129777,0.04716 0.191406,0.05664 0.06163,0.0047 0.116654,0.0078 0.164062,0.0078 0.09482,0 0.18727,-0.02179 0.277344,-0.06445 0.09007,-0.04267 0.171077,-0.109143 0.242188,-0.199219 0.07111,-0.09482 0.127256,-0.213248 0.169921,-0.355469 0.04741,-0.146963 0.07031,-0.324611 0.07031,-0.533203 v -0.796875 c 0,-0.104297 -0.0073,-0.212395 -0.02148,-0.326172 -0.0095,-0.113776 -0.02204,-0.19785 -0.04102,-0.25 -0.0095,-0.01897 -0.03126,-0.03462 -0.06445,-0.04883 -0.03318,-0.01421 -0.0695,-0.02566 -0.107422,-0.03516 -0.03793,-0.0095 -0.07535,-0.01563 -0.113281,-0.01563 -0.03318,-0.0047 -0.05609,-0.0059 -0.07031,-0.0059 -0.0095,-0.01897 -0.01563,-0.05109 -0.01563,-0.09375 0,-0.04266 0.0062,-0.06976 0.01563,-0.08398 0.109037,0.0095 0.205682,0.01785 0.291016,0.02734 0.09007,0.0047 0.189791,0.0078 0.298828,0.0078 0.104297,0 0.196751,-0.0042 0.277344,-0.01367 0.08533,-0.0095 0.174718,-0.01675 0.269531,-0.02148 0.0095,0.01421 0.01367,0.04131 0.01367,0.08398 0,0.04267 -0.0042,0.07479 -0.01367,0.09375 -0.01421,0 -0.04019,0.0011 -0.07813,0.0059 -0.03793,0 -0.07535,0.0062 -0.113281,0.01563 -0.03793,0.0047 -0.07424,0.01311 -0.107422,0.02734 -0.03318,0.01421 -0.05497,0.03293 -0.06445,0.05664 -0.01897,0.05215 -0.03462,0.136221 -0.04883,0.25 -0.0095,0.113779 -0.01367,0.220757 -0.01367,0.320313 V 32.1875 c 0,0.241779 -0.03631,0.449594 -0.107422,0.625 -0.07111,0.170666 -0.166638,0.312003 -0.285157,0.425781 -0.118518,0.113777 -0.255664,0.200923 -0.412109,0.257813 -0.151703,0.05215 -0.311754,0.07813 -0.482422,0.07813 -0.19911,0 -0.387092,-0.03324 -0.5625,-0.09961 -0.1754,-0.07111 -0.316736,-0.176976 -0.425773,-0.314458 -0.09482,-0.113777 -0.164365,-0.252043 -0.207031,-0.417968 -0.03793,-0.170667 -0.05664,-0.380435 -0.05664,-0.626954 v -0.996093 c 0,-0.09956 -0.0031,-0.184749 -0.0078,-0.25586 0,-0.07111 -0.01145,-0.131446 -0.03516,-0.183593 -0.0047,-0.01421 -0.02038,-0.02566 -0.04883,-0.03516 -0.02371,-0.0095 -0.05276,-0.01675 -0.08594,-0.02148 -0.03318,-0.0095 -0.06642,-0.01563 -0.09961,-0.01563 -0.02844,-0.0047 -0.05023,-0.0059 -0.06445,-0.0059 -0.0095,-0.01897 -0.01367,-0.05109 -0.01367,-0.09375 0,-0.04266 0.0042,-0.06976 0.01367,-0.08398 z m 8.746094,0 c 0.09482,0.0095 0.205984,0.01785 0.333984,0.02734 0.128,0.0047 0.242242,0.0078 0.341797,0.0078 0.09956,0 0.210724,-0.0031 0.333985,-0.0078 0.123258,-0.0095 0.231356,-0.01785 0.326171,-0.02734 0.0095,0.01421 0.01563,0.04131 0.01563,0.08398 -10e-7,0.04267 -0.0062,0.07479 -0.01563,0.09375 -0.01421,0 -0.03712,0.0011 -0.07031,0.0059 -0.03318,0 -0.06642,0.0062 -0.09961,0.01563 -0.02844,0.0047 -0.05749,0.01201 -0.08594,0.02148 -0.02371,0.0095 -0.03823,0.02092 -0.04297,0.03516 -0.02371,0.05215 -0.03628,0.112483 -0.04102,0.183593 v 0.25586 1.728515 0.263672 c 0.0047,0.07111 0.01731,0.130327 0.04102,0.177734 0.0047,0.01421 0.01926,0.02874 0.04297,0.04297 0.02845,0.0095 0.05749,0.01785 0.08594,0.02734 l 0.09961,0.01563 h 0.07031 c 0.0095,0.01897 0.01563,0.04914 0.01563,0.0918 -10e-7,0.04267 -0.0062,0.07171 -0.01563,0.08594 -0.09482,-0.0095 -0.205986,-0.01675 -0.333984,-0.02148 -0.128,-0.0095 -0.240288,-0.01563 -0.339844,-0.01563 -0.09482,0 -0.207937,0.0062 -0.335937,0.01563 -0.123261,0.0047 -0.231359,0.01201 -0.326172,0.02148 -0.0095,-0.01421 -0.01367,-0.04326 -0.01367,-0.08594 0,-0.04267 0.0042,-0.07283 0.01367,-0.0918 h 0.07031 c 0.03318,-0.0047 0.06531,-0.01089 0.09375,-0.01563 0.03318,-0.0095 0.06028,-0.01785 0.08398,-0.02734 0.02845,-0.01421 0.04716,-0.02873 0.05664,-0.04297 0.01897,-0.04741 0.0293,-0.106623 0.0293,-0.177734 0.0047,-0.07111 0.0078,-0.159374 0.0078,-0.263672 v -1.728515 c 0,-0.09956 -0.0031,-0.184749 -0.0078,-0.25586 0,-0.07111 -0.01032,-0.131446 -0.0293,-0.183593 -0.0095,-0.01421 -0.02819,-0.02566 -0.05664,-0.03516 -0.02371,-0.0095 -0.05081,-0.01675 -0.08398,-0.02148 -0.02844,-0.0095 -0.06057,-0.01563 -0.09375,-0.01563 -0.03318,-0.0047 -0.05609,-0.0059 -0.07031,-0.0059 -0.0095,-0.01897 -0.01367,-0.05109 -0.01367,-0.09375 0,-0.04266 0.0042,-0.06976 0.01367,-0.08398 z m 16.759766,0 c 0.09482,0.0095 0.205984,0.01785 0.333984,0.02734 0.128,0.0047 0.242242,0.0078 0.341797,0.0078 0.09956,0 0.210724,-0.0031 0.333984,-0.0078 0.123258,-0.0095 0.231356,-0.01785 0.326172,-0.02734 0.0095,0.01421 0.01563,0.04131 0.01563,0.08398 0,0.04267 -0.0062,0.07479 -0.01563,0.09375 -0.01421,1e-6 -0.03712,0.0011 -0.07031,0.0059 -0.03318,0 -0.06642,0.0062 -0.09961,0.01563 -0.02844,0.0047 -0.05749,0.01201 -0.08594,0.02148 -0.02371,0.0095 -0.03824,0.02092 -0.04297,0.03516 -0.02371,0.05215 -0.03628,0.112483 -0.04102,0.183593 v 0.25586 0.669921 c 0,0.0047 0.0011,0.0059 0.0059,0.0059 l 0.0078,0.0078 0.269532,0.01367 h 0.298828 0.269531 c 0.09955,-0.0047 0.192002,-0.0089 0.277344,-0.01367 v -0.0078 l 0.0078,-0.01367 -0.0078,-0.662109 c 0,-0.09956 -0.0011,-0.184749 -0.0059,-0.25586 0,-0.07111 -0.0104,-0.131446 -0.0293,-0.183593 -0.0048,-0.01421 -0.02043,-0.02566 -0.04883,-0.03516 -0.02369,-0.0095 -0.05273,-0.01675 -0.08594,-0.02148 -0.03318,-0.0095 -0.06643,-0.01563 -0.09961,-0.01563 -0.02845,-0.0047 -0.05024,-0.0059 -0.06445,-0.0059 -0.0096,-0.01897 -0.01367,-0.05109 -0.01367,-0.09375 0,-0.04266 0.0041,-0.06976 0.01367,-0.08398 0.09482,0.0095 0.205985,0.01785 0.333985,0.02734 0.128,0.0047 0.241121,0.0078 0.335937,0.0078 0.09955,0 0.210722,-0.0031 0.333984,-0.0078 0.128,-0.0095 0.236094,-0.01785 0.326172,-0.02734 0.0096,0.01421 0.01563,0.04131 0.01563,0.08398 0.0048,0.04267 -0.0013,0.07479 -0.01563,0.09375 -0.01411,1e-6 -0.037,0.0011 -0.07031,0.0059 -0.02845,0 -0.06057,0.0062 -0.09375,0.01563 -0.03318,0.0047 -0.06335,0.01201 -0.0918,0.02148 -0.02369,0.0095 -0.03821,0.02092 -0.04297,0.03516 -0.0189,0.05215 -0.03037,0.112483 -0.03516,0.183593 v 0.25586 1.728515 0.263672 c 0.0048,0.07111 0.01626,0.130327 0.03516,0.177734 0.0048,0.01421 0.01931,0.02874 0.04297,0.04297 0.02845,0.0095 0.05861,0.01785 0.0918,0.02734 0.03318,0.0047 0.0653,0.01089 0.09375,0.01563 h 0.07031 c 0.01411,0.01897 0.02016,0.04914 0.01563,0.0918 0,0.04267 -0.0061,0.07171 -0.01563,0.08594 -0.09008,-0.0095 -0.198172,-0.01675 -0.326172,-0.02148 -0.128,-0.0095 -0.242244,-0.01563 -0.341796,-0.01563 -0.09955,0 -0.210722,0.0062 -0.333985,0.01563 -0.123263,0.0047 -0.233309,0.01201 -0.328125,0.02148 -0.0096,-0.01421 -0.01367,-0.04326 -0.01367,-0.08594 0,-0.04267 0.0041,-0.07283 0.01367,-0.0918 h 0.06445 l 0.09961,-0.01563 c 0.03318,-0.0095 0.06223,-0.01785 0.08594,-0.02734 0.02845,-0.01421 0.04409,-0.02873 0.04883,-0.04297 0.0189,-0.04741 0.0293,-0.106623 0.0293,-0.177734 0.0048,-0.07111 0.0059,-0.159374 0.0059,-0.263672 v -0.77539 l -0.0059,-0.01367 v -0.0078 c -0.08534,-0.0047 -0.173618,-0.0059 -0.263672,-0.0059 h -0.277343 -0.3125 c -0.07111,0 -0.129207,0.0011 -0.171875,0.0059 -0.03793,0 -0.06083,0.0031 -0.07031,0.0078 h -0.02148 c -0.0047,0.0047 -0.0059,0.0089 -0.0059,0.01367 v 0.0078 0.767578 0.263672 c 0.0047,0.07111 0.01731,0.130327 0.04102,0.177734 0.0047,0.01421 0.01926,0.02874 0.04297,0.04297 0.02844,0.0095 0.05749,0.01785 0.08594,0.02734 l 0.09961,0.01563 h 0.07031 c 0.0095,0.01897 0.01563,0.04914 0.01563,0.0918 0,0.04267 -0.0062,0.07171 -0.01563,0.08594 -0.09482,-0.0095 -0.205984,-0.01675 -0.333984,-0.02148 -0.128,-0.0095 -0.242242,-0.01563 -0.341797,-0.01563 -0.09482,0 -0.205984,0.0062 -0.333985,0.01563 -0.123257,0.0047 -0.231356,0.01201 -0.326171,0.02148 -0.0095,-0.01421 -0.01367,-0.04326 -0.01367,-0.08594 0,-0.04267 0.0042,-0.07283 0.01367,-0.0918 h 0.07031 c 0.03318,-0.0047 0.06531,-0.01089 0.09375,-0.01563 0.03318,-0.0095 0.06028,-0.01785 0.08398,-0.02734 0.02844,-0.01421 0.04716,-0.02873 0.05664,-0.04297 0.01897,-0.04741 0.0293,-0.106623 0.0293,-0.177734 0.0047,-0.07111 0.0078,-0.159374 0.0078,-0.263672 v -1.728515 c 0,-0.09956 -0.0031,-0.184749 -0.0078,-0.25586 0,-0.07111 -0.01032,-0.131446 -0.0293,-0.183593 -0.0095,-0.01421 -0.02819,-0.02566 -0.05664,-0.03516 -0.02371,-0.0095 -0.05081,-0.01675 -0.08398,-0.02148 -0.02844,-0.0095 -0.06057,-0.01563 -0.09375,-0.01563 -0.03318,-0.0047 -0.05609,-0.0059 -0.07031,-0.0059 -0.0095,-0.01897 -0.01367,-0.05109 -0.01367,-0.09375 0,-0.04266 0.0042,-0.06976 0.01367,-0.08398 z m 4.59375,0 c 0.09482,0.0095 0.205984,0.01785 0.333984,0.02734 0.128,0.0047 0.240291,0.0078 0.339844,0.0078 0.09482,0 0.204862,-0.0031 0.328125,-0.0078 0.128,-0.0095 0.239168,-0.01785 0.333984,-0.02734 0.0096,0.01421 0.01367,0.04131 0.01367,0.08398 0,0.04267 -0.0041,0.07479 -0.01367,0.09375 -0.01411,1e-6 -0.03703,0.0011 -0.07031,0.0059 -0.03318,0 -0.06643,0.0062 -0.09961,0.01563 -0.02845,0.0047 -0.05749,0.01201 -0.08594,0.02148 -0.02845,0.0095 -0.04409,0.02092 -0.04883,0.03516 -0.0189,0.05215 -0.03232,0.112483 -0.03711,0.183593 v 0.25586 0.861328 c 0,0.161184 0.0061,0.305593 0.01563,0.433593 0.01411,0.123261 0.04847,0.245883 0.105469,0.369141 0.04266,0.104295 0.09462,0.188369 0.15625,0.25 0.06637,0.05689 0.13285,0.101581 0.199219,0.134766 0.06637,0.02844 0.131728,0.04716 0.193359,0.05664 0.06163,0.0047 0.114714,0.0078 0.162109,0.0078 0.09482,0 0.187266,-0.02179 0.277344,-0.06445 0.09008,-0.04267 0.171082,-0.109143 0.242188,-0.199219 0.07111,-0.09482 0.129191,-0.213248 0.171875,-0.355469 0.04742,-0.146963 0.07031,-0.324611 0.07031,-0.533203 v -0.796875 c 0,-0.104297 -0.0074,-0.212395 -0.02148,-0.326172 -0.0096,-0.113776 -0.0241,-0.19785 -0.04297,-0.25 -0.0096,-0.01897 -0.02942,-0.03462 -0.0625,-0.04883 -0.03318,-0.01421 -0.0695,-0.02566 -0.107422,-0.03516 -0.03792,-0.0095 -0.07536,-0.01563 -0.113281,-0.01563 -0.03318,-0.0047 -0.05803,-0.0059 -0.07227,-0.0059 -0.0096,-0.01897 -0.01367,-0.05109 -0.01367,-0.09375 0,-0.04266 0.0041,-0.06976 0.01367,-0.08398 0.109027,0.0095 0.207627,0.01785 0.292969,0.02734 0.09008,0.0047 0.187848,0.0078 0.296875,0.0078 0.10429,0 0.196739,-0.0042 0.277344,-0.01367 0.08534,-0.0095 0.176669,-0.01675 0.271484,-0.02148 0.0096,0.01421 0.01367,0.04131 0.01367,0.08398 0,0.04267 -0.0041,0.07479 -0.01367,0.09375 -0.01411,0 -0.04008,0.0011 -0.07813,0.0059 -0.03792,0 -0.07731,0.0062 -0.115234,0.01563 -0.03792,0.0047 -0.07229,0.01311 -0.105469,0.02734 -0.03318,0.01421 -0.05498,0.03293 -0.06445,0.05664 -0.0189,0.05215 -0.03454,0.136221 -0.04883,0.25 -0.0096,0.113779 -0.01563,0.220757 -0.01563,0.320313 V 32.1875 c 0,0.241779 -0.03436,0.449594 -0.105469,0.625 -0.07111,0.170666 -0.16663,0.312003 -0.285156,0.425781 -0.118526,0.113777 -0.255672,0.200923 -0.41211,0.257813 -0.15171,0.05215 -0.313716,0.07813 -0.484374,0.07813 -0.199106,0 -0.385134,-0.03324 -0.560547,-0.09961 -0.175396,-0.07111 -0.318685,-0.176971 -0.427735,-0.314453 -0.09482,-0.113776 -0.164373,-0.252041 -0.207031,-0.417968 -0.03792,-0.170666 -0.05664,-0.380434 -0.05664,-0.626954 v -0.996093 c 0,-0.09956 -0.0011,-0.184749 -0.0059,-0.25586 0,-0.07111 -0.01342,-0.131446 -0.03711,-0.183593 -0.0048,-0.01421 -0.02043,-0.02566 -0.04883,-0.03516 -0.02369,-0.0095 -0.05273,-0.01675 -0.08594,-0.02148 -0.03318,-0.0095 -0.06643,-0.01563 -0.09961,-0.01563 -0.02845,-0.0047 -0.04829,-0.0059 -0.0625,-0.0059 -0.0096,-0.01897 -0.01563,-0.05109 -0.01563,-0.09375 0,-0.04266 0.0061,-0.06976 0.01563,-0.08398 z m 9.371093,0 c 0.09482,0.0095 0.205985,0.01785 0.333985,0.02734 0.128,0.0047 0.242244,0.0078 0.341797,0.0078 0.09955,0 0.210721,-0.0031 0.333984,-0.0078 0.123263,-0.0095 0.231356,-0.01785 0.326172,-0.02734 0.0096,0.01421 0.01563,0.04131 0.01563,0.08398 0,0.04267 -0.0061,0.07479 -0.01563,0.09375 -0.01411,1e-6 -0.037,0.0011 -0.07031,0.0059 -0.03318,0 -0.06643,0.0062 -0.09961,0.01563 -0.02845,0.0047 -0.05749,0.01201 -0.08594,0.02148 -0.02369,0.0095 -0.03821,0.02092 -0.04297,0.03516 -0.02369,0.05215 -0.03821,0.112483 -0.04297,0.183593 v 0.25586 1.75 h 0.002 v 0.05664 0.107422 l 0.01367,0.113281 c 0.0096,0.03793 0.01802,0.06809 0.02734,0.0918 0.01411,0.03318 0.0535,0.05804 0.115234,0.07227 0.06163,0.01421 0.125038,0.02148 0.191406,0.02148 h 0.306641 c 0.189631,0 0.334038,-0.05083 0.433594,-0.15039 0.09482,-0.09482 0.180017,-0.243415 0.255859,-0.447266 0.0048,-0.01897 0.02463,-0.0293 0.0625,-0.0293 0.02369,0 0.04965,0.0031 0.07813,0.0078 0.03318,0.0047 0.05498,0.01201 0.06445,0.02148 -0.02369,0.06163 -0.04658,0.131179 -0.07031,0.207031 -0.02369,0.07111 -0.04965,0.14178 -0.07813,0.212891 -0.02369,0.07111 -0.04548,0.138707 -0.06445,0.205078 -0.0189,0.06637 -0.03342,0.125587 -0.04297,0.177734 h -0.226563 -0.414062 -0.503906 -0.511719 -0.412109 c -0.118526,0.0047 -0.192256,0.0078 -0.220704,0.0078 -0.0096,-0.01421 -0.01563,-0.04326 -0.01563,-0.08594 0,-0.04266 0.0061,-0.06976 0.01563,-0.08398 0.01411,0 0.037,-0.0031 0.07031,-0.0078 0.03318,-0.0047 0.0653,-0.0089 0.09375,-0.01367 0.03318,-0.0047 0.06027,-0.01201 0.08398,-0.02148 0.02845,-0.01421 0.04717,-0.02873 0.05664,-0.04297 0.0189,-0.04741 0.0293,-0.106623 0.0293,-0.177734 0.0048,-0.07111 0.0078,-0.159374 0.0078,-0.263672 v -1.728515 c 0,-0.09956 -0.003,-0.184749 -0.0078,-0.25586 0,-0.07111 -0.0104,-0.131446 -0.0293,-0.183593 -0.0096,-0.01421 -0.02829,-0.02566 -0.05664,-0.03516 -0.02369,-0.0095 -0.05078,-0.01675 -0.08398,-0.02148 -0.02845,-0.0095 -0.06057,-0.01563 -0.09375,-0.01563 -0.03318,-0.0047 -0.05608,-0.0059 -0.07031,-0.0059 -0.0096,-0.01897 -0.01563,-0.05109 -0.01563,-0.09375 0,-0.04266 0.0061,-0.06976 0.01563,-0.08398 z m -25.671875,0.240234 c -0.697778,0.582223 -1.046875,1.145279 -1.046875,1.6875 0,0.324445 0.122743,0.594724 0.367188,0.8125 0.244445,0.217779 0.522873,0.326172 0.833984,0.326172 0.07556,0 0.205911,-0.02338 0.392578,-0.07227 l -0.30664,-1.533203 c -0.12,0.02667 -0.231761,0.09875 -0.333985,0.21875 -0.09778,0.12 -0.146484,0.244158 -0.146484,0.373046 0,0.06667 0.01435,0.134504 0.04102,0.201172 0.02667,0.06222 0.05819,0.115712 0.09375,0.160157 0.04,0.04444 0.07914,0.08358 0.11914,0.11914 0.04,0.03556 0.07294,0.0623 0.09961,0.08008 l 0.04102,0.01953 -0.05469,0.0332 c -0.146666,-0.04 -0.286588,-0.127846 -0.419922,-0.265625 -0.12889,-0.137779 -0.193359,-0.310645 -0.193359,-0.519531 0,-0.20889 0.06447,-0.400886 0.193359,-0.574219 0.133334,-0.177779 0.281407,-0.295739 0.441406,-0.353516 z m 0.386719,1.207032 0.300781,1.505859 c 0.311112,-0.128889 0.466797,-0.36144 0.466797,-0.699219 0,-0.244444 -0.07067,-0.441224 -0.21289,-0.58789 -0.142221,-0.146667 -0.328021,-0.21875 -0.554688,-0.21875 z"
           transform="matrix(0.26458333,0,0,0.26458333,-1.3813821,-3.0086618)" />
      </g>
    </g>
  </g>
</svg>
